<svg xmlns="http://www.w3.org/2000/svg" width="50" height="50.13" viewBox="0 0 50 50.13">
  <metadata><?xpacket begin="﻿" id="W5M0MpCehiHzreSzNTczkc9d"?>
<x:xmpmeta xmlns:x="adobe:ns:meta/" x:xmptk="Adobe XMP Core 5.6-c142 79.160924, 2017/07/13-01:06:39        ">
   <rdf:RDF xmlns:rdf="http://www.w3.org/1999/02/22-rdf-syntax-ns#">
      <rdf:Description rdf:about=""/>
   </rdf:RDF>
</x:xmpmeta>
                                                                                                    
                                                                                                    
                                                                                                    
                                                                                                    
                                                                                                    
                                                                                                    
                                                                                                    
                                                                                                    
                                                                                                    
                                                                                                    
                                                                                                    
                                                                                                    
                                                                                                    
                                                                                                    
                                                                                                    
                                                                                                    
                                                                                                    
                                                                                                    
                                                                                                    
                                                                                                    
                           
<?xpacket end="w"?></metadata>
<defs>
    <style>
      .cls-1 {
        fill: #fff;
        fill-rule: evenodd;
      }
    </style>
  </defs>
  <path id="Forma_1" data-name="Forma 1" class="cls-1" d="M1288.99,4854.12a5.013,5.013,0,1,0-5.01-5.02A5.027,5.027,0,0,0,1288.99,4854.12Zm10.93-11.16v-4.83h-0.63l-4.19.01,0.01,4.83Zm-10.93-18.93a25.065,25.065,0,1,0,25,25.07A25.065,25.065,0,0,0,1288.99,4824.03Zm14.22,22.14v11.67a5.52,5.52,0,0,1-5.5,5.52h-17.45a5.512,5.512,0,0,1-5.49-5.52v-17.49a5.5,5.5,0,0,1,5.49-5.51h17.45a5.512,5.512,0,0,1,5.5,5.51v5.82Zm-6.44,2.93a7.78,7.78,0,1,1-15.56,0,7.882,7.882,0,0,1,.57-2.93h-4.24v11.67a2.725,2.725,0,0,0,2.72,2.73h17.45a2.734,2.734,0,0,0,2.73-2.73v-11.67h-4.25A7.693,7.693,0,0,1,1296.77,4849.1Z" transform="translate(-1264 -4824.03)"/>
</svg>
