<?xml version="1.0" standalone="no"?>
<!DOCTYPE svg PUBLIC "-//W3C//DTD SVG 1.1//EN" "http://www.w3.org/Graphics/SVG/1.1/DTD/svg11.dtd" >
<svg xmlns="http://www.w3.org/2000/svg" xmlns:xlink="http://www.w3.org/1999/xlink" version="1.1">
<metadata></metadata>
<defs>
<font id="dk_mandarin_whispersregular" horiz-adv-x="931" >
<font-face units-per-em="2048" ascent="1638" descent="-410" />
<missing-glyph horiz-adv-x="614" />
<glyph horiz-adv-x="0" />
<glyph horiz-adv-x="682" />
<glyph horiz-adv-x="0" />
<glyph horiz-adv-x="0" />
<glyph unicode="&#xd;" horiz-adv-x="614" />
<glyph unicode=" "  horiz-adv-x="614" />
<glyph unicode="&#x09;" horiz-adv-x="614" />
<glyph unicode="&#xa0;" horiz-adv-x="614" />
<glyph unicode="!" horiz-adv-x="348" d="M133 449q0 -2 -2.5 -8.5t-5.5 -6.5t-6.5 5t-7.5 5h-5q-2 -2 -2 -12h-4q-2 0 -4.5 5t-13.5 5v15h-4l-4 -4h-2q-4 0 -8.5 10t-6.5 12q-12 231 -12 463q0 56 2 165t2 165q0 71 -4 116q0 1 -1 3.5t-1 3.5q-2 4 -2 28q10 0 11.5 -4t-0.5 -8t3 -6q13 4 15 14q2 -10 16 -10 q4 0 11.5 3t11.5 3q9 0 14 -10q6 6 6 8l2 -6h2l8 6q8 -12 25 -12q49 -7 78 -23h6q4 -12 5 -27t0.5 -33t0.5 -28q-1 -107 2.5 -305t3.5 -283v-65l-8 -2v-21h-4l-6 4q-2 -2 -2 -4v-28q-2 -7 -2 -9q0 5 -4 5l-7 -35q-4 2 -5.5 -4t-2.5 -13.5t-4 -9.5q0 7 -6 10q-4 -2 -4 -14.5 t-4 -15.5l-4 -2v14h-6l-5 -2v-31l-8 6v-10q-6 6 -6 18h-2q-1 0 -2.5 -12t-3 -26t-2.5 -17q0 4 -6 4l-6 -10l-5 6h-2q-4 0 -4 -4q0 13 -4 19h-4zM96 27l-22 86q1 15 -2.5 40t-3.5 35q-5 10 -5 58v12h5v-18l6 -2q5 3 7.5 15.5t12.5 12.5v-16h2l2 2h2l6 -2h3q5 0 7 11t13 9 q2 0 6.5 -5t7.5 -5q9 0 9 10q6 -2 27.5 -5t31.5 -9h6v10q2 0 4 -4t4 -4t2.5 4t3.5 4q5 0 7.5 -11t7.5 -11q3 0 8 10q0 -4 5 -6.5t7 -7.5q5 -16 15 -78q14 -82 14 -101q0 -7 -6.5 -11t-7.5 -7q-2 -6 -9.5 -10t-9.5 -15v-2q-3 0 -5.5 4.5t-4.5 4.5h-2q0 -5 -3 -14t-7 -9 q-1 0 -1.5 2t-1 4.5t-1.5 3.5q-7 -4 -7 -10q-10 6 -21 -6t-18 -12l-2 2l-8 8h-2l-4 -6h-2q-1 0 -9.5 3t-10.5 3q-3 0 -7 -5t-8 -5q-5 0 -9 7.5t-9 8.5q-9 1 -12 4t-5 10t-6 13zM262 1210v138l4 10q0 -1 2 -31.5t6 -36.5v-538q-12 231 -12 458zM283 217v8l4 -6q0 -7 6 -49v-6 l14 -82v-2q-6 3 -6 10q-1 7 -6.5 37t-8.5 51t-3 39zM276 729q2 -1 2 -12.5t-2 -14.5v27zM274 745q3 -3 0 -6q-2 0 -2 3t2 3zM281 53v-2h2v2h-2zM256 258q0 -1 -1 -2t-1 -2z" />
<glyph unicode="&#x22;" horiz-adv-x="729" d="M178 1010q0 -6 4 -6l-20 -11q0 4 -6 4q-2 0 -14.5 -13t-20.5 -13h-2l28 37q0 6 -6 6l-6 -13v13l-6 4v2q0 1 21 39t26 47q2 4 7 14.5t9.5 19t4.5 9.5l2 2q8 25 12 35q1 2 8 59h2v27h-41l-4 -2h-4q-4 1 -19.5 4t-20 4t-16.5 4.5t-17 6.5t-13 8.5t-14 13t-11 16.5 q-20 33 -20 72q0 34 29 105t59 71q6 0 15.5 -6t15.5 -6v6l-2 2q10 0 14 4v-12l4 -2h43q2 0 2.5 -2.5t0.5 -4.5l-1 -2q9 0 21.5 -6t21.5 -6h2q1 -4 6 -7.5t13.5 -6.5t9.5 -4q2 -1 11.5 -11t10.5 -10q0 -1 1 -6.5t3.5 -9.5t6.5 -4h2l6 6v-84q0 -123 -12 -205q-3 -1 -4 -4.5 t-1.5 -6.5t-2.5 -5.5t-5 -1.5q-12 -40 -20 -58q-2 -7 -11.5 -18t-11.5 -14l-8 -12q-8 -13 -14.5 -20.5t-17 -19t-23.5 -19t-27 -9.5zM530 1016q0 -6 5 -6l-21 -11q0 5 -6 5q-2 0 -14.5 -13.5t-20.5 -13.5h-2l29 37q0 6 -6 6l-7 -12v12l-6 4v2q0 1 21 39t26 47q2 4 7 14.5 t9.5 19t4.5 9.5l2 2q8 25 12 35q1 2 8 59h2v27h-41l-4 -2h-4l-17.5 3.5t-17 3.5t-15 3.5t-15 5t-12.5 6.5t-12.5 8.5t-10 11.5t-10.5 15q-21 34 -21 72q0 34 29 105t59 71q6 0 15.5 -6t15.5 -6v6l-2 2q10 0 14 4v-12l4 -2h43q2 0 2.5 -2t0.5 -4l-1 -2q9 0 21.5 -6.5 t21.5 -6.5h2q1 -4 6 -7.5t13.5 -6.5t9.5 -4q2 -1 12 -11t11 -10q1 -1 1 -4.5t0.5 -7t3 -6t5.5 -2.5h2l6 6v-84q0 -123 -12 -205q-3 -1 -4 -4.5t-1 -6.5t-2 -5.5t-5 -1.5q-10 -33 -21 -58q-2 -7 -11 -18t-11 -14q-1 -1 -7 -10t-10.5 -15.5t-13.5 -16.5t-17 -17t-19.5 -13 t-23.5 -8zM125 1014q0 -10 -6 -13v3q0 10 6 10zM477 1020q0 -9 -6 -12v2q0 10 6 10zM506 1040v-8q6 0 6 8h-6zM154 1034v-8q6 0 6 8h-6zM164 1008v-4h6v4h-6zM516 1014v-4h6v4h-6zM156 1397q-2 0 -2 -3t2 -3q3 0 3 3t-3 3zM508 1403q-2 0 -2 -3t2 -3q3 0 3 3t-3 3zM471 1595 q1 0 1 -3t-1 -3q-3 0 -3 3t3 3zM119 1589q1 0 1 -3t-1 -3q-3 0 -3 3t3 3zM672 1233v-4h4v4h-4zM319 1227v-4h5v4h-5zM170 1016v-2h6v2h-6zM522 1022v-2h6v2h-6zM109 995l-5 -6l2 6h3zM141 1036v-2h4v2h-4zM578 1225v-4h2v4h-2zM225 1219v-5h2v5h-2zM461 1001l-4 -6l2 6h2z M494 1042v-2h4v2h-4zM485 1354q0 2 -2 2t-2 -2q0 -4 4 0zM133 1348q0 2 -2 2t-2 -2q0 -4 4 0zM268 1546q0 -4 -2 -6q0 4 2 6zM557 1116q0 2 -2 2t-2 -2h4zM205 1110q0 2 -2 2t-2 -2h4zM621 1552q0 -3 -3 -6q0 3 3 6zM154 1018q0 2 -2 2t-2 -2h4zM506 1024q0 2 -2 2t-2 -2h4z M180 1024h-2h2zM532 1030h-2h2z" />
<glyph unicode="$" horiz-adv-x="823" d="M367 -193l-2 -4h-5l-2 4v25l-4 -20q-2 6 -6 8q-4 35 -4 104q0 68 -2 117h-18q-9 6 -31 14.5t-33 16.5q-82 63 -140 141.5t-79 163.5q0 1 3.5 4.5t4.5 3.5h4q1 0 7.5 -7t7.5 -7q3 6 16 6q6 0 8 -2q0 6 6 6h2q3 0 9.5 -5.5t11.5 -6.5h6l16 12v-10l9 4q-3 -4 0.5 -5t9.5 -1 q0 3 4 9.5t2 12.5q17 0 33 8h2q7 0 12.5 -2.5t8 -5t7 -9t5.5 -7.5q3 -4 7.5 -4.5t10 0.5t12.5 0q0 -2 2 -2l29 -45q4 -5 6 -5v7q-5 19 -18 39h4q4 0 4 -5q28 -63 67 -118q2 -5 13.5 -11.5t11.5 -9.5v-2l-6 4v-4q4 -8 6 -10l6 -4v12l23 -22h2v12q5 0 7.5 -6t6.5 -6 q7 0 12.5 6.5t10.5 16t6 11.5q18 48 18 107q0 113 -57 203q-5 6 -11.5 10.5t-13.5 11.5q-7 4 -43 39.5t-41 42.5l-18 14q-13 9 -27.5 22.5t-32.5 32t-28 27.5q-70 70 -99.5 132.5t-29.5 150.5q0 42 10.5 94.5t32 108.5t60 104.5t87.5 71.5q0 33 1 116t1 134q2 5 3 5 t3.5 -1.5t4.5 -1.5v10q3 0 4.5 -6t3.5 -6t4 2t4 2q7 0 8 -4l2 8q4 -4 4 -8h2q0 14 2 18l2 -4v-14h2q3 0 10.5 2t10.5 2q4 0 8 -4t6 -4q2 2 2 4h2l6 -9h7l4 -6q0 -2 2 -2l4 4h2q4 0 10 -18q0 6 4 6t4 -10l9 -6l2 -2q2 -6 2 -33v-160h2q0 104 4 133l4 35v-168q7 0 23.5 2 t17.5 2q23 0 42 -7t30.5 -16t23 -27t16 -29t13.5 -33.5t12 -30.5q3 -7 10 -18.5t10 -21t3 -22.5v-4l-5 -2q0 -3 -2 -10.5t-2 -9.5q0 1 -15.5 -9t-42 -19t-50.5 -5v-14h-8q-4 12 -17.5 31.5t-15.5 23.5q-2 6 -11 44t-20.5 66.5t-25.5 28.5q-11 0 -22 -9t-11 -19q0 -5 4 -7 q-10 -6 -17 -28.5t-16 -24.5v-16l-29 -86v-37l11 -8l8 18h4q6 -2 6 -4v-57l2 -8l8 -88q2 -3 6.5 -18t12.5 -17v12q6 0 24 -53h4l5 6q3 -1 11.5 -13.5t19 -28t14.5 -20.5l12 -10q8 -6 63 -61q19 -23 84 -74t108.5 -100.5t43.5 -96.5q0 -2 -2 -4t-2 -4q0 -7 6 -22t6 -21 q3 -5 6.5 -23t3.5 -22v-26q0 -64 -22 -109q-1 -4 -4.5 -5t-5.5 -5q-56 -84 -104 -120.5t-150 -66.5v-122l-2 12q0 1 -1 16.5t-2 43t-2 50.5l-4 -2v-153q-2 -2 -2 -4v-17q-1 6 -4 4t-4 -2q0 -16 -16 -53l-4 -2v16h-4q0 -16 -7 -18q3 8 -2 8q-4 0 -5 -2t-1.5 -6.5t-1.5 -7.5 q-1 -1 -5.5 -1.5t-6.5 -6.5q-7 -11 -16 -9l-5 -10q-2 2 -3 7.5t-3 6.5v-12q-2 1 -7 11t-7 10l-3 -12q-2 -11 -7 -11q-4 0 -4 14zM336 258v-2q0 -3 3.5 -8.5t6.5 -5.5q1 -4 33 -47l12 -13h6l-51 68zM408 217q2 0 2 -4h4q2 0 2 -4t-2 -4q-6 0 -6 4q-3 0 -3 4t3 4zM408 885 q-3 0 -3 -4t3 -4t4 2t0 4t-4 2zM317 1020q-3 0 -3 -4t3 -4t4 2t0 4t-4 2zM403 905q3 0 3 -4t-3 -4t-3 4t3 4zM86 965q-2 0 -2 -4.5t2 -4.5q4 0 4 4.5t-4 4.5zM250 807q-2 0 -2 -3t2 -3q4 0 4 3t-4 3zM608 1247q-2 0 -2 -4t2 -4q3 0 3 4t-3 4zM272 297q-3 0 -3 -2t3 -2 q4 0 4 2t-4 2zM104 926q-2 0 -2 -4t2 -4q3 0 3 4t-3 4zM369 -104v-9h4q0 5 -4 9zM487 524q-3 0 -3 -2t3 -2t3 2t-3 2zM217 1307q-1 0 -1 -3.5t1 -3.5q3 0 3 3.5t-3 3.5zM414 674q-1 1 -6 0q0 -6 6 0zM487 1405v-4h5v4h-5zM715 428q-3 0 -3 -3t3 -1q1 0 1 2t-1 2zM311 305v-8 h2q0 8 -2 8zM328 1122q0 -8 -4 0l4 1v-1zM506 371q-4 0 -4 -1.5t4 -0.5v2zM498 -66v-10l-1 6q0 4 1 4zM397 -176v-8q4 4 0 8zM332 981l-4 -4h4v4zM395 20v-4h2v4h-2zM317 293l-1 -4h1q1 0 1 2t-1 2zM172 334q0 2 -2 2t-2 -2q0 -4 4 0zM293 1671v-6q-1 0 -1 3t1 3zM477 592 h-2h2zM395 229v-2v2zM395 203v-2v2zM367 -184v-2v2z" />
<glyph unicode="'" horiz-adv-x="376" d="M178 1010q0 -6 4 -6l-20 -11q0 4 -6 4q-2 0 -14.5 -13t-20.5 -13h-2l28 37q0 6 -6 6l-6 -13v13l-6 4v2q0 1 21 39t26 47q2 4 7 14.5t9.5 19t4.5 9.5l2 2q8 25 12 35q1 2 8 59h2v27h-41l-4 -2h-4q-4 1 -19.5 4t-20 4t-16.5 4.5t-17 6.5t-13 8.5t-14 13t-11 16.5 q-20 33 -20 72q0 34 29 105t59 71q6 0 15.5 -6t15.5 -6v6l-2 2q10 0 14 4v-12l4 -2h43q2 0 2.5 -2.5t0.5 -4.5l-1 -2q9 0 21.5 -6t21.5 -6h2q1 -4 6 -7.5t13.5 -6.5t9.5 -4q2 -1 11.5 -11t10.5 -10q0 -1 1 -6.5t3.5 -9.5t6.5 -4h2l6 6v-84q0 -123 -12 -205q-3 -1 -4 -4.5 t-1.5 -6.5t-2.5 -5.5t-5 -1.5q-12 -40 -20 -58q-2 -7 -11.5 -18t-11.5 -14l-8 -12q-8 -13 -14.5 -20.5t-17 -19t-23.5 -19t-27 -9.5zM125 1014q0 -10 -6 -13v3q0 10 6 10zM154 1034v-8q6 0 6 8h-6zM164 1008v-4h6v4h-6zM156 1397q-2 0 -2 -3t2 -3q3 0 3 3t-3 3zM119 1589 q1 0 1 -3t-1 -3q-3 0 -3 3t3 3zM319 1227v-4h5v4h-5zM170 1016v-2h6v2h-6zM109 995l-5 -6l2 6h3zM141 1036v-2h4v2h-4zM225 1219v-5h2v5h-2zM133 1348q0 2 -2 2t-2 -2q0 -4 4 0zM205 1110q0 2 -2 2t-2 -2h4zM268 1546q0 -4 -2 -6q0 4 2 6zM154 1018q0 2 -2 2t-2 -2h4z M180 1024h-2h2z" />
<glyph unicode="(" horiz-adv-x="718" d="M184 133q-51 58 -75 113l-27 63l-33 131q1 7 -0.5 13.5t-1.5 11.5q-6 54 -6 94v37q0 108 14 172q48 193 78 274q0 3 4 12t6 11q5 15 23 51l18 33q4 4 4 10l50 74q12 12 12 18q-8 0 -31.5 -33.5t-25.5 -35.5v2l40 67q9 40 93 99l6 4q4 3 10.5 8.5t13.5 13.5t9 10 q39 31 102 31q0 -2 -9.5 -5t-21 -7t-14.5 -6h6q4 0 18 3t21 3q4 0 16.5 -2.5t12.5 -3.5q20 0 28 -4q1 0 13.5 -3t13.5 -3q4 -1 20 -3.5t32 -5.5t33 -6.5t28.5 -8t13.5 -9.5l-6 -2v-4l2 -4v-3h-21q1 -3 6 -5t5 -5h-35l-6 -10q-25 5 -49.5 -1.5t-49.5 -26.5t-37.5 -32 t-37.5 -40l-9 -9q9 3 23 17l-23 -31q-2 -2 -16.5 -24t-13.5 -23l-41 -80h4q6 0 6 4l-6 -20l4 -4v-4q-9 -23 -25 -71t-20 -58q-2 -6 -6 -22.5t-7.5 -28.5t-3.5 -13v-4q-41 -193 -41 -287q0 -60 5 -94q7 -80 12 -90l6 -16q4 8 4 10q0 5 -4 14.5t-4 13.5q-9 108 -10 115v33 q0 50 5 93t11 44q0 -9 -3 -45t-3 -39v-49q0 -107 26 -213.5t84 -163.5q2 -1 23 -18t27 -21l14 -8l65 -12q15 -9 60.5 -19.5t66.5 -23.5l15 -13v-4q-14 1 -36 -14.5t-34 -17.5q-61 -7 -112 -7q-60 0 -127 12.5t-109 39.5q-1 1 -19 15.5t-35 28.5t-18 17zM170 1145v-4 q-12 -19 -22.5 -44t-23 -59.5t-15.5 -42.5l-7 -10l33 96q23 54 35 64zM477 1434h8q-6 -4 -20 -4h-12q8 4 24 4zM299 358q0 -15 6 -18v4q0 16 -6 18v-4zM416 1399q-10 0 -13 -8h5q5 0 8 8zM471 1239q3 0 3 -3t-3 -3t-3 3t3 3zM139 514q-3 0 -3 -3t3 -3t3 3t-3 3zM426 1425 q-2 -3 -5 -3t-5 3q1 2 10 0zM494 1425q2 0 2 -4t-2 -4q-3 0 -3 4t3 4zM434 1208q-2 0 -2 -4t2 -4q3 0 3 4t-3 4zM76 430q-3 0 -3 -3t3 -3q2 0 2 3t-2 3zM63 526q-3 0 -3 -3t3 -3q1 0 1 3t-1 3zM379 1378l-14 -6v-2q12 6 14 8zM438 1255q-3 0 -3 -2t3 -2q2 0 2 2t-2 2z M408 1421h2l-2 -4h-5zM330 967v-4h2v4h-2zM158 627l4 -4v4h-4zM381 139l4 -4v4h-4zM305 334q0 -6 4 0h-4zM315 907l-4 1v-1q0 -4 4 0zM440 1427q-3 -3 -6 0h6zM485 1407v-2v2z" />
<glyph unicode=")" horiz-adv-x="708" d="M119 76q-18 -15 -35 -15q-1 0 -4 1t-4 1q6 3 6 11v6q-3 -1 -11 -6.5t-12 -5.5h-2l6 12q1 3 20 29.5t19 27.5v2q-4 -2 -26 -22.5t-31 -20.5l-4 2q0 4 24.5 28.5t32.5 29.5l109 118q6 11 21.5 29t17.5 21l18 32v4l-18 -26q-1 -1 -23 -27t-26 -28q-8 -11 -40 -45.5 t-42 -43.5l-39 -34q-21 -21 -31 -21v4q0 3 14 17l25 22h-2q-2 0 -4.5 -2t-5.5 -2h-2q0 2 10 12q9 6 28 27t31 29q2 0 4 -2h4q0 1 4.5 5t4.5 5q-4 4 -4 6q6 4 6 6l10 8q-6 -6 -6 -12v-2q5 0 16.5 14t24 33t16.5 23q24 29 80 116q4 0 4 4q4 3 5.5 6t2.5 8.5t2 8.5 q129 210 129 475q0 101 -10 148q-10 38 -25 75t-38 72.5t-56 57.5t-71 22q-3 0 -7.5 -4t-7.5 -4h-2l-2 4h-2q-3 0 -10.5 -5.5t-9.5 -6.5q-3 0 -26 1t-28 1h-4l-6 -7h-2q-20 0 -29 13v4l3 8v4q-3 0 -6.5 -4t-6.5 -4q0 4 2 4l4 10v2q0 3 -4 5.5t-4 5.5q0 8 12 20l3 6 q33 38 98 41l-6 4h-15q-9 0 -28.5 -2t-28.5 -2q4 12 45 12h23q6 -2 33.5 -9.5t51.5 -14.5t31 -10q2 0 12 -1t11 -1q48 -14 115 -43q10 -3 12 -3q113 -81 147 -178q8 -24 8 -28l19 -56q4 0 8 4q-2 -12 0 -27t6.5 -34t5.5 -27q0 -1 1 -19t1 -24q0 -14 4.5 -42t4.5 -44 q0 -40 -4 -102l-15 -57q-5 -70 -22 -123q-1 -2 -4.5 -13.5t-6.5 -13.5l-4 4l-4 -12v-8h2q0 -5 -6.5 -14t-7.5 -11q-16 -41 -57 -121l-2 -2l-19 -33l-8 -6v-10q-21 -42 -35 -51q-1 0 -5 1t-5 1q0 -20 -28 -45.5t-34 -38.5q-60 -60 -86 -78q0 4 -4 4v4l39 39h-2q-3 0 -20 -16 t-38 -35.5t-28 -24.5q-5 -2 -17.5 -2.5t-17.5 -3.5q-48 -24 -51 -24h-2q-6 4 -6 6q-38 -23 -51 -23h-4q4 4 4 9v8zM582 475h6q0 -4 -4.5 -11t-8.5 -7h-2zM358 195q-3 0 -3 -4.5t3 -4.5t3 4.5t-3 4.5zM528 1276q-3 0 -3 -4t3 -4q2 0 2 4t-2 4zM281 385q-1 0 -1 -4t1 -4 q3 0 3 4t-3 4zM567 606q-4 0 -4 -4v-4q4 2 4 6v2zM664 1008q2 0 2 -3.5t-2 -3.5q-3 0 -3 3.5t3 3.5zM401 459q-3 0 -3 -3t3 -3q1 0 1 3t-1 3zM324 403q-2 0 -2 -3t2 -3q3 0 3 3t-3 3zM137 233q-3 0 -3 -3t3 -3q1 0 1 3t-1 3zM254 281q-3 0 -3 -3.5t3 -3.5q2 0 2 3.5t-2 3.5z M219 1413q-1 0 -1 -3t1 -3q3 0 3 3t-3 3zM274 373q-2 -2 -2 -8h2v8zM592 492v-5h-4zM549 911h-2h2zM131 227l-2 -4h2v4z" />
<glyph unicode="," horiz-adv-x="368" d="M113 -274h-7q-5 0 -12.5 -9.5t-13.5 -9.5h-2q2 8 13 21t11 20h-6q-3 0 -9.5 -7.5t-8.5 -12.5l-6 6q6 6 9 15.5t5 12.5q7 11 30 48.5t33 55t25 47.5t25 56l8 31v2h-29q-5 0 -11.5 4t-10.5 4t-10 -2t-9 -2l-10 2q-4 0 -10 6h-19q-20 1 -28 6q-29 11 -29 93q0 15 3 29.5 t5.5 21.5t11.5 24.5t11 22.5q0 19 6 25q0 2 4 2h2l8 -2v-5l-10 -10h4q6 0 12 7.5t8 7.5q5 0 9 -2.5t8 -2.5q-6 -4 -8 -4v-4q8 -8 16 -8q3 0 9 3t12 3q2 -8 2 -10q1 -2 9 -2t11 -2q14 -9 40 -22.5t38 -20.5q0 -1 6 -10t8 -11q13 -4 15 -6q32 -18 39.5 -34.5t7.5 -61.5 q0 -50 -15 -96q-4 -2 -5.5 -4t-2 -3.5t-1 -4.5t-1.5 -5q-3 -5 -7 -16t-7 -19.5t-4 -9.5q-2 -6 -13.5 -27.5t-15.5 -25.5q-6 3 -10.5 -1t-9 -13l-5.5 -11l-75 -73q-14 -5 -19 -8q0 5 10 13t11 13h-2q-2 0 -11 -9t-12 -13l-7 -10q-7 -9 -13 -11q-4 -1 -9 0.5t-6 -2.5 q1 5 8 12.5t7 8.5zM242 184q3 0 3 -3t-3 -3q-2 0 -2 3t2 3zM96 -238q-1 1 -6 0q0 -2 2 -2t4 2zM113 -254v-2h2v2h-2zM100 248h2v-4z" />
<glyph unicode="-" horiz-adv-x="1150" d="M41 594v2q4 4 4 25v4q0 18 -4 22v4q0 22 39 29.5t43 11.5l125 29q22 -3 63 3t51 7q236 17 420 17q1 0 9 -2.5t10 -2.5q3 0 26 -1t29 -1v-16q1 0 5.5 -0.5t7 0t6 1t5.5 3t3 6.5l4 -8q3 -4 28.5 -8t36.5 -4h2l9 6q10 -6 12 -6t17.5 -1t17.5 -1l4 -11l8 11q7 -11 34 -14.5 t34 -18.5q2 -4 10 -6t10 -6q-15 -18 -16 -21q-3 -4 -12.5 -3.5t-12.5 -4.5q-2 -2 -3 -5t-3.5 -4t-9.5 -1q-12 -1 -70 -6.5t-88 -10.5l-4 -4q-20 -10 -92 -11t-74 -1q-25 0 -25 -4l-4 -8q-43 -2 -59 -2q-104 -5 -252 -29q-9 -2 -61.5 -15.5t-81.5 -13.5q-129 0 -189 60 q-1 1 -6.5 3.5t-5.5 6.5zM815 727q13 0 21 -4h2q6 0 6 10q-23 0 -29 -6zM188 565q-3 0 -3 -4t3 -4q2 0 2 4t-2 4zM465 616v-4h6v4h-6zM934 733q-4 -8 -12 0h12zM1106 651q0 -1 -2 -1t-4 1q0 3 3 3t3 -3zM866 743q2 -1 2 -5.5t-2 -4.5q-1 -2 -1 1zM801 727l2 -4l4 4h-6z" />
<glyph unicode="." horiz-adv-x="335" d="M100 6q2 6 -4 6q-3 0 -8 -1t-8 -1q-19 0 -29 29.5t-10 52.5q0 22 14.5 63.5t34.5 41.5q2 0 6.5 -1t7.5 -1l2 6h3q3 0 4 -5.5t4 -5.5q4 0 10.5 3.5t9.5 3.5q12 0 19 -11q24 0 28 -4q8 0 29 -14q23 -9 27 -10q3 -1 6.5 -6.5t5.5 -6.5q3 -2 11.5 -4.5t13 -6t4.5 -9.5v-8 q-4 -9 -12 -26.5t-13.5 -31.5t-9.5 -28q-9 -2 -27 -16.5t-35 -14.5q-3 0 -8 2t-8 2t-9 -2t-9 -2q-6 0 -23.5 4t-26.5 2zM289 109q1 0 1 -3.5t-1 -3.5h-2q1 -2 0.5 -4t-2.5 -2q-1 0 -1 3t1 3h2q-2 0 -1 4q1 3 3 3zM291 115q3 0 3 -3t-3 -3q-1 0 -1 3t1 3zM283 92v-2 q0 -1 -1.5 -3t-3 -4.5t-2.5 -4.5v4zM160 78q0 3 -2 3t-2 -3h4z" />
<glyph unicode="/" horiz-adv-x="671" d="M131 -20q-5 -5 -10 -5q0 1 -2 6.5t-2 6.5q-4 0 -4 2v4q2 8 2 10l-6 4l-9 -14l-6 4q-14 -14 -16 -14q0 16 -10 22.5t-11 13.5q-1 4 0 11t0 12v12q-1 0 -3 -1t-3 -1l-6 -20h-2q-2 11 4.5 34t7.5 31l39 154v20l12 45q11 45 25.5 104.5t20.5 90.5l45 199q19 67 20 90l133 542 l2 -12q7 3 8.5 20t4.5 21l2 -10q6 6 6 16l2 11h4l2 -3h4l8 7h4l2 -4h4l7 4v-2l4 -2l8 10l6 -6h2v6h6q2 0 2 -2l2 -4q0 -1 -1 -3.5t-1 -3.5l19 -8l6 15h2l2 -4h4q2 6 4 8q0 -6 14.5 -16.5t16.5 -12.5l6 8q3 -5 18 -9.5t19 -8.5l4 16l2 -10q6 -2 8 -2l4 4h6l5 -25l6 2l8 -10h6 q26 -12 31 -33q2 -24 0.5 -37t-7 -39t-6.5 -36l-57 -227q0 -8 -2 -10t-4 -11q-3 -12 -7 -38t-7 -38l-2 4q0 2 1 8t1 9l-2 4q-7 -18 -14.5 -53t-8.5 -39l-143 -611q-2 -5 -5.5 -21t-7 -29.5t-6.5 -16.5v12l64 262q0 12 6.5 35.5t5.5 36.5v2q-3 -1 -10.5 -28t-7.5 -31 l-48 -175v-10l-45 -160q-2 -8 -32 -36.5t-39 -28.5l-2 16q-2 4 -4 4q-20 -40 -52 -36q-4 0 -8 3t-6 3h-2l-4 -8q0 -1 -5 -4t-7 -3l-2 15q-4 -17 -15 -17q-8 0 -8 9zM492 750q-7 0 -12 -18t-3 -25h4q12 36 11 43zM477 700q-12 -15 -13 -32q0 -7 7 2q1 1 4.5 12.5t3.5 13.5z M502 807q-4 -1 -6 -10.5t0 -14.5l2 -6q6 24 6 27zM442 543q-11 -4 -6 -25q8 12 6 21v4zM618 1311q-6 -6 -2 -19h2q2 0 2 5t-2 10v4zM387 496q-5 0 -1 -7l3 -2q5 0 1 7zM121 104q-3 0 -3 -3t3 -3t3 3t-3 3zM348 104q3 0 3 -3t-3 -3t-3 3t3 3zM446 815q-4 0 -1 -5q2 -3 4 -3 q2 1 -3 8zM348 1321q-4 0 -1 -5q1 -3 3 -3q1 0 1 2t-1 4t-2 2zM537 1268q-4 0 -1 -5q1 -3 3 -3q1 0 1 2t-1 4t-2 2zM317 217q-3 0 -2.5 -4t2.5 -4q3 0 2.5 4t-2.5 4zM244 791q0 -9 2 -9q5 0 1 7q-1 2 -3 2zM541 903q-1 0 -1 -2t1 -4t2 -2t1 2t-1 4t-2 2zM379 1382 q-5 0 -1 -4q1 -2 3 -2q1 2 -2 6zM344 1303q-2 0 -2 -3.5t2 -3.5q3 0 3 3.5t-3 3.5zM59 70q-1 0 -1 -3.5t1 -3.5q3 0 3 3.5t-3 3.5zM184 588q-3 0 -3 -3t3 -3q2 0 2 3t-2 3zM94 227v-8v-2q4 -4 4 2h-4v8zM535 858q4 -5 2 -8q-1 -1 -2 2q-2 6 0 6zM258 20q-2 -2 -4 -2l2 -4 q6 0 2 4l2 2h-2zM92 193q-2 0 -2 -4.5t2 -4.5t2 4.5t-2 4.5zM610 1260v-7q4 4 4 7h-4zM616 1282l-4 -6l2 -2l2 2v6zM72 111l-2 -2l-2 -3l4 -2v7zM444 561q-2 0 -2 -8v-2l2 6v4zM395 1407q3 0 4 -2t-2 -2zM543 909q-4 -1 0 -4v4zM260 35v-2h4v2h-4zM76 141v-2h4v2h-4z M158 506q-2 0 -2 -2t2 -2t2 2t-2 2zM94 207q1 0 2 -4z" />
<glyph unicode="0" horiz-adv-x="929" d="M94 233q-7 21 -11.5 44t-8.5 51.5t-6 42.5l-5 4q-12 28 -12 110q-1 4 -3 46t-3 47v4q1 0 2 2t2 2l8 -8l2 4v65h-6v-47q-7 -4 -10 -12v59q-3 109 12 223q1 1 7 25t6 27q1 5 5 26.5t7 40t2 23.5q8 35 14.5 59t19.5 63.5t25.5 67.5t33 60.5t43.5 52.5t54 33.5t66 13.5 q0 6 -5 15.5t-5 15.5q3 0 10.5 -2t11.5 -2h5t4 2t1 6q3 0 16 -2t15 -2h4q1 0 3 2t3 2l7 4q0 -2 6 -8q-1 3 2.5 4.5t8 2t8.5 3.5t5 8q13 2 15 2q26 0 49.5 -8t61 -28t44.5 -23q2 -15 19 -15q0 -2 2 -2q6 -8 8 -8l4 8h2q8 0 28 -19.5t44 -45.5t33 -33q13 8 32 -29t37 -82 t25 -49v4q0 7 -3 19t-3 16v6l12 -14l26 -147v20l11 -12v-154q4 -6 4 -18q0 -8 -2.5 -46t0.5 -46l-6 -11l2 -2h6q0 -18 -17 -63q-4 -11 -6 -13v-4q4 0 4 -10v-2q1 -13 -9.5 -40t-10.5 -40q0 -3 3 -6t3 -6q0 -9 -20 -59l6 -7v-2q0 -24 -32.5 -86.5t-61.5 -107.5v-6q8 5 26 28 l19 23v-2q0 -17 -41 -58l-4 -4q-2 -2 -14 -13t-23 -21t-13 -13q1 -7 -8 -10l-8 -2q-6 -4 -17.5 -14.5t-17.5 -14.5q-51 -41 -160 -75q-10 -2 -26.5 -11.5t-22.5 -11.5q-19 -4 -57 -9t-57 -9h-2q-67 0 -121.5 45.5t-87.5 111.5q-1 3 -5.5 16t-8 24t-5.5 11zM360 375 q22 -66 25 -84q11 -58 41 -84q0 1 1 3t1 3q0 7 -3 14.5t-9 18t-8 14.5q-23 62 -23 80v6q13 -54 33 -86q2 -9 13 -24.5t13 -20.5l5 -8h4q14 14 14 16q58 77 84 162q5 12 26.5 84t22.5 76q6 4 10 20v2q31 194 29 299v47q0 15 -10 45q-14 104 -36 164t-81 121q-21 21 -38 29 t-44 8h-14q-13 -10 -31 -41t-18 -43v-8l10 18l4 4v-4q-25 -72 -37 -131q-2 -8 -6.5 -27t-6.5 -29.5t-4 -26t-1 -29.5h4v-3q1 -4 1 -7.5v-7.5t-0.5 -6.5t-2.5 -2.5h-11v-2q0 -1 2.5 -6t2.5 -6v-60q3 -1 4.5 -2.5t2 -3t1.5 -2.5q0 -3 -1.5 -4t-4 -1.5t-4 -2.5t-1.5 -6t2.5 -8 t2.5 -7q0 -4 -2.5 -14.5t-2.5 -19.5v-19l11 4v-4q0 -4 -5.5 -11.5t-5.5 -12.5v-3l5 -6q4 -35 8 -104t8 -103q0 -3 4 -43.5t8.5 -76.5t7.5 -37zM106 1030q-18 0 -18 -41q0 -2 -1 -5t-1 -5q-29 -114 -27 -172q11 0 13 21.5t-2 29.5l30 154q4 4 4 10zM854 975q0 -26 3 -76 t3 -78l4 8q2 0 2 56v26q0 69 -6 90h-4q-2 -14 -2 -18v-8zM53 676l2 -21h4q2 17 2 97h-8q-2 -15 -2 -23zM821 1169q13 -19 13 -39h-5q-6 23 -8 31v8zM55 500v-4q0 -1 1 -7.5t1 -7.5h2q7 0 7 19h-11zM750 1233q0 -16 8 -16q0 16 -8 16zM805 1202v4q10 -13 10 -18v-4 q-10 13 -10 18zM57 561q0 -10 4 -10q5 0 5 4q0 7 -9 12v-6zM379 377v8q4 -8 4 -18v-11q-4 20 -4 21zM494 307q4 0 4 -5t-4 -5q-2 0 -2 5t2 5zM68 444v-12h4v12h-4zM874 1012q3 0 4 -2t0 -4t-4 -2t-3 4t3 4zM877 926q-3 0 -3 -4t3 -4t4 2t0 4t-4 2zM57 528v-8q3 0 4.5 1.5 t2.5 3.5t2 3h-9zM96 647q-3 0 -3 -5t3 -5q2 0 2 5t-2 5zM61 788v-10h5v10h-5zM371 436q1 -2 1 -7.5t-1 -8.5l-1 14zM561 477q3 0 3 -4t-3 -4t-3 4t3 4zM791 1237q3 0 3 -4t-3 -4t-3 4t3 4zM375 414q3 0 3 -4t-3 -4t-3 4t3 4zM848 1034q2 -6 4 -8v14zM360 1386q3 -6 9 -6v6 h-9zM877 682l-1 -8l1 -6q1 2 1 7t-1 7zM338 989q3 0 3 -3t-3 -3t-3 3t3 3zM590 1163q-3 0 -3 -3t3 -3t3 3t-3 3zM573 514q3 0 3 -3t-3 -3t-3 3t3 3zM856 1018l-1 -7l1 -3q3 2 3 6t-3 4zM844 940q-2 0 -2 -3t2 -3q4 0 4 3t-4 3zM358 508q8 -4 0 -8q-2 0 -2 4t2 4zM350 1055 q4 0 4 -2t-4 -2q-3 0 -3 2t3 2zM836 1079l-1 -9l1 -3q2 1 2 6t-2 6zM848 1071q-2 1 -3 -1q0 -4 3 -5q2 0 2 3t-2 3zM629 823q1 0 1 -3t-1 -3q-3 0 -3 3t3 3zM817 1055v-15q2 6 2 15h-2zM819 1040q-1 0 -1 -3t1 -3q3 0 3 3t-3 3zM57 541l4 -4l5 4h-9zM752 291v-4h4v4h-4z M436 201v-4h4v4h-4zM348 1174q-1 -1 0 -5q3 0 3 2.5t-3 2.5zM823 1026q0 3 -2 3t-2 -3q0 -2 2 -2t2 2zM862 604q-2 0 -2 -2t2 -2q3 0 3 2t-3 2zM365 453v-2q-3 0 -3 1.5t3 0.5zM375 399q4 -4 0 -4q-1 -1 -1 1.5t1 2.5zM817 1180q1 0 1 -2t-1 -4v6zM813 1081q-3 0 -3 -1t3 -1 v2zM590 586q3 -1 2 -4zM53 760v-2l4 2h-4zM424 184v-2h2v2h-2zM657 862v-4q1 0 1 2t-1 2zM551 420v-2h-4zM344 1032q0 2 2 2q-2 -2 -2 -4v2zM565 487v-2v2zM786 1239v-2v2zM870 633v-2v2zM797 1055v-2v2zM872 651v-2v2z" />
<glyph unicode="1" horiz-adv-x="774" d="M211 -66q-9 0 -19.5 15t-17.5 12v-2q-1 6 -8 18.5t-8 14.5q0 1 1 3t1 3l18 35v4l-18 -17l-8 11l-2 2q1 8 22.5 29.5t48.5 45t29 25.5l65 49h7q2 0 10.5 7.5t9.5 11.5l2 13q2 12 2 17v56v37h4q0 53 -1.5 216t-0.5 253q1 24 4.5 94t3.5 106v11q-8 -8 -15 -19.5t-14 -26 t-12 -22.5q-45 -63 -112 -117t-121 -51q-1 1 -4 5t-6.5 8t-5.5 5q-1 4 -13 19.5t-12 21.5v2h4q12 6 12 15q14 12 27.5 26.5t24.5 26.5t24 30.5t21 29t21.5 33t19.5 32t21 35t20 33.5q14 23 41 65t48.5 77t39.5 68q18 9 20 15q2 8 3.5 21.5t4 22t8.5 13.5l2 -8h15l4 8 q0 2 20 2q5 1 18 2t17 2q2 1 12 8t19 7q3 0 7.5 -2.5t4.5 -4.5l6 -4l6 9l13 -9l10 9h6q4 0 9.5 -4.5t9.5 -4.5h2q2 0 9.5 1t8.5 1q0 -6 4 -6h2l2 2q2 2 6 2q13 -3 13 -20l-2 -2v-4h4v-13q-4 -36 -4 -51q1 0 4 11.5t7 25.5t7 19v-2q0 -15 -6 -47t-6 -50v-8l8 4l-39 -936 l-6 -6v-41h61q1 -11 39.5 -21.5t38.5 -25.5q0 -3 -0.5 -3t-2 -0.5t-3.5 -2.5l-4 -6q-5 -10 -10.5 -16.5t-8.5 -8t-12 -5t-14 -5.5q-37 -18 -37 -21q-3 4 -10 3.5t-10 -7.5q-12 -3 -23.5 -7t-20 -8t-20.5 -11t-18.5 -10.5t-20 -13t-18 -13t-20 -15t-19.5 -14.5q-6 -6 -10 -6 q-28 -11 -74.5 -41.5t-88 -51t-77.5 -18.5zM356 915v-10l2 -4l7 90h-3q-1 0 -3.5 -22.5t-2.5 -36.5q-2 -13 0 -17zM358 827q-6 -20 -6 -53v-18q6 18 6 51v20zM352 864q0 -1 2 -10t2 -10q4 18 2 37q0 11 -2 12q-4 -8 -4 -29zM639 1276l2 -6q0 -11 -4 -19v11q0 10 2 14z M285 1147q-1 0 -1 -4t1 -4q5 -1 5 3t-5 5zM600 301q4 0 4 -5q0 -3 -2 -3q-1 0 -2 2t-1 4t1 2zM594 346q1 -1 1.5 -4t1 -5.5t1.5 -2.5v14zM315 1202l-4 -4l-2 -2l2 -2q4 2 4 4v4zM254 1108q-2 0 -2 -4t2 -4q3 0 3 4t-3 4zM365 1276q-3 0 -2.5 -4t2.5 -4q1 0 1 4t-1 4z M598 831l2 -10h2l-2 10h-2zM618 1280v-4q2 0 2 2zM594 324v-2h4v2h-4zM584 287h-2q0 -3 1 -3t1 3zM434 414q0 3 -1 3t-1 -3h2zM504 618l4 -2v2h-4z" />
<glyph unicode="2" horiz-adv-x="925" d="M166 25l6 6q-10 0 -25.5 19.5t-17.5 29.5q1 10 23 43q238 452 335 862q23 104 23 191v41q-2 19 -6.5 42.5t-18 50t-32.5 27.5q-46 1 -93 -47.5t-77 -103.5q-8 -17 -19 -31t-17.5 -27.5t-10.5 -40.5q-5 -10 -5 -28q0 2 -1.5 12t-3 17.5t-5.5 11.5q-2 -6 -2 -33 q1 -12 5.5 -36t4.5 -38q0 -25 -12 -30l-24 -15q-5 -2 -5 -4q-1 -1 -13.5 -8.5t-24 -14t-13.5 -6.5q-3 0 -6.5 3.5t-7.5 3.5q-2 0 -4.5 -1t-5.5 -1h-4q-3 10 -25 32l-4 6q-21 45 -30 75t-9 69v41q20 111 106.5 186t202.5 90q12 4 31 4h143q12 -1 37 -6t37 -6h6l6 6 q31 0 74 -35.5t43 -64.5q1 0 7 1t7 1q4 -2 4 -4q36 -83 39 -168q0 -21 -4 -69t-8 -48q-4 -21 -13.5 -79.5t-18 -98t-19.5 -74.5q-38 -113 -109 -284q-10 -42 -20 -56q-1 -5 -14 -43t-13 -43l-41 -90h90q6 -1 37.5 -1t36.5 -1q68 0 178 -31q0 -11 19 -16q-10 -5 -21.5 -21.5 t-19.5 -23.5q-1 -5 -9.5 -3t-15.5 1q-7 -2 -21.5 -13.5t-21.5 -13.5q-4 -1 -8.5 -0.5t-9.5 1.5l-6 1q-10 -1 -35.5 -10t-40.5 -8l-10 2h-7q-25 1 -52 -7.5t-61.5 -24.5t-47.5 -21q-37 -16 -90 -31q-1 -1 -8.5 -2.5t-18.5 -3t-14 -2.5q-21 -2 -74.5 -13.5t-83.5 -11.5 q-19 0 -23 2q-2 2 -9 3t-10.5 3.5t-0.5 8.5zM344 365q-3 0 -3 -4.5t3 -4.5t3 4.5t-3 4.5zM408 537q-3 0 -3 -4.5t3 -4.5t3 4.5t-3 4.5zM578 1180q-3 0 -3 -4.5t3 -4.5t3 4.5t-3 4.5zM733 1311q-3 0 -3 -3t3 -3t3 3t-3 3zM131 117q0 -6 -4 -4q-1 1 1.5 3.5t2.5 0.5zM737 1305 q-1 -1 0 -5q1 0 1 2t-1 3zM424 604v-2v2zM745 1262v-2v2z" />
<glyph unicode="3" horiz-adv-x="1058" d="M135 336q-2 16 2 37.5t17 21.5q6 0 12 -6t14 -6h2q2 1 9 3t8 3q0 -8 4 -12h4q4 2 6 4v-12l8 8v-21l4 4q1 1 2.5 4l3 6t2.5 3l15 16h4l-2 -16q2 0 12 -3t12 -3l17 12h4l4 -6v-2l2 2q2 0 5 2.5t3 3.5h6q7 -6 9 -6q-5 -19 4 -31l2 -2l2 2q2 0 2.5 3t-0.5 5q3 -2 17.5 -12 t23.5 -10l-2 -15q5 0 10 11.5t8 11.5v-2q0 -65 25 -96l18 -17l15 8l6 -6q3 -8 12 -15t18 -7q7 0 15.5 2.5t17 5.5t10.5 4h7q-3 -6 -17 -10.5t-18 -7.5v-5l6 -2q1 1 12 5.5t12 5.5q44 15 59 28t38 56q1 2 7 8t9.5 11.5t3.5 10.5v2q-6 -6 -10 -6q1 7 12.5 28t12.5 23 q20 56 20 121q-3 140 -156 217q-30 15 -43 15t-36 -10t-33 -11q-17 2 -19 0q-22 0 -30 -4q-4 4 -11 4h-2q-3 0 -7.5 -2t-8.5 -2q-9 0 -41 4l-4 4h-4q-13 0 -17 -4q-3 8 -4.5 10t-4.5 2t-7 3q-5 5 -17.5 30t-11.5 31l2 8l27 23l2 4v4q-2 6 -2 8l-25 -10l-4 2l-2 2l2 2 q15 21 42.5 31t54.5 10h55q12 11 38 33.5t38.5 34t33 32t31.5 35t25 37t20.5 43t11.5 47t5 55.5q0 88 -58 166l-4 4q-25 29 -41 31q-39 0 -127 -70q-4 -6 -20 -21t-19 -17l-14 -25q-1 -3 -19.5 -23.5t-21.5 -23.5l-2 6q-7 -8 -10 -34l-4 -25h-2q-4 1 -6 11l-3 11h-4 q1 -7 -4.5 -20.5t-11.5 -18.5h-16l-13 -10h-2q-2 0 -5 3.5t-5 4.5q-6 0 -17.5 -7t-17.5 -7q-1 0 -9 2t-9 2h-4q-3 1 -6 -0.5t-7 -1.5q-7 0 -12 1t-9 3t-6.5 4t-4.5 6.5t-3 7t-3 9.5t-3 10q-14 28 -14 43q-1 69 82.5 152.5t159.5 113.5q59 21 127 21q25 -5 30 -7 q104 -3 176 -26t130 -88q23 0 53.5 -54.5t40.5 -87.5q14 -65 14 -108q0 -35 -6.5 -58t-24.5 -57q-1 -3 -6.5 -6t-7.5 -6q-10 -16 -31.5 -47.5t-23.5 -34.5l-80 -78l-17 -8v-4l5 -2l92 -39q2 4 55 -23q105 -65 154.5 -138.5t50.5 -186.5q2 -94 -40.5 -173.5t-119.5 -121.5 q-8 -3 -44.5 -15.5t-53.5 -23.5q-107 -31 -279 -31q-46 0 -108 13t-97 34q-64 41 -101.5 102.5t-37.5 133.5zM1001 397q0 -18 -10 -54t-10 -56l2 -4q12 5 19.5 49.5t5.5 68.5v15.5v16.5t-0.5 15t-1.5 16t-3 14.5t-5 15.5t-7 14q0 -8 -2 -10q1 -14 6.5 -48t5.5 -53zM627 297 q-5 -15 -28.5 -41t-33.5 -25h-2q7 6 29 31t35 35zM932 205l4 -6h2l20 26v8q-28 -14 -26 -28zM924 188q-11 0 -11 -14q7 0 11 14zM973 270v-10q6 3 6 10h-6zM629 309q4 0 4 -5q0 -3 -2 -3q-4 0 -4 5q0 3 2 3zM702 1087q-3 0 -3 -4t3 -4t3 4t-3 4zM625 135q-3 0 -3 -4t3 -4 t3 4t-3 4zM336 260q-3 0 -3 -4t3 -4t3 4t-3 4zM260 1214q-3 0 -3 -4t3 -4t3 4t-3 4zM725 1171q-3 0 -3 -3t3 -3t3 3t-3 3zM762 1335q-5 0 -1 -4q1 -2 3 -2q5 0 1 4q-1 2 -3 2zM625 190q-5 0 -4 -4q0 -2 2 -2q5 0 4 4q0 2 -2 2zM553 227q0 -4 -6 -10h-4zM276 834 q-2 0 -2 -3.5t2 -3.5q4 0 4 3q-1 3 -4 4zM711 696q-2 0 -2.5 -3t2.5 -3q2 0 2.5 3t-2.5 3zM721 911q0 1 -3 1t-3 -1q3 -6 6 0zM268 809q2 3 -1 3t-3 -3q0 -1 2 -1t2 1zM899 164q-3 0 -3 -3t3 -1q4 0 0 4z" />
<glyph unicode="6" horiz-adv-x="782" d="M461 18q-4 0 -4 -8q-44 -8 -109 -8q-208 -3 -280 227q-2 8 -9 46t-14 55q-9 106 14 264l13 84l67 240q0 3 8.5 27.5t14.5 35.5q0 17 12 29q-2 0 -2 4l2 4q19 61 62 145q3 15 8 25l8 10l37 76l39 69q0 1 1 2.5t1 2.5q45 62 78 77l34 9q2 0 5.5 -4t3.5 -5q2 0 16.5 -3 t17.5 -3l9 -2q1 -1 0 -5l-2 -5h55q8 0 14.5 -22t20.5 -19q-5 -2 -17 -14l2 -4q2 -2 6 -2q-17 -17 -20 -31q-1 -3 0.5 -6t1.5 -4q0 -2 -15 -37.5t-18 -38.5q0 -2 -4 -2l-16 -62h4.5t5 -2t0.5 -6q-12 -22 -25 -49.5t-21.5 -47.5t-21.5 -55.5t-18 -49.5t-19 -55t-16 -48 q-9 -27 -26 -89.5t-19 -72.5l-4 -26h8q16 66 41 153l21 49l6 6q-2 -5 -41 -135l-10 -61l-7 -4l5 -4v-2q0 -4 -7 -4q5 -9 25 -13.5t44 -7t30 -4.5l18 -10l8 -2q64 -24 101 -42t76.5 -57t62.5 -94q13 -13 10 -26h-10v2q-2 13 -9.5 29t-15.5 16h-2q13 -26 9 -41q0 -1 5 -15 t5 -16q0 -4 2.5 -13.5t3.5 -9.5l2 -6l14 8q3 -21 3 -31t-3 -33t-4 -32l-2 -8q-28 -84 -31 -90q-9 -12 -24.5 -42t-18.5 -42q-4 -6 -12.5 -10.5t-21 -9t-15.5 -5.5q-78 -38 -149 -47q4 5 2 8zM330 481q-23 -142 30 -276q3 -10 12 -21.5t11 -15.5l4 -4q111 68 131 184l6 31 q-8 47 -55 95t-92 48q-42 0 -47 -41zM729 391h6q2 -10 0 -16v-6q-11 0 -6 22zM432 932l2 -6q-2 -8 -7 -20.5t-7 -20.5l2 6q0 4 5 21t5 20zM526 1298q-8 0 -8 -18q8 0 8 18zM453 977v-4q-1 -2 -7 -15.5t-6 -15.5q-2 4 0 6q2 11 13 29zM510 1176q0 1 2 3t2 3h4l4 -6 q-8 -5 -10 -5zM580 66q-1 0 -2 -2.5t-1 -4.5t1 -2q5 0 6 5q0 4 -4 4zM463 1014q3 0 3 -4t-3 -4t-3 4t3 4zM389 748q4 0 2 -4q-2 -3 -4 -3q-4 0 -2 4q2 3 4 3zM545 1298q-3 0 -6 -6h6v6zM457 997q3 0 3 -4t-3 -4v8zM526 264l-2 -4h4l2 4h-4zM539 1313l-2 -4h4l2 4h-4zM88 721 l-2 -4q6 2 8 4h-6zM342 1122q0 2 -3 2t-3 -2q3 -3 6 0zM522 588q2 2 -1 2t-3 -2t2 -2t2 2zM193 952q-1 1 -5 0q0 -2 2 -2t3 2z" />
<glyph unicode="7" horiz-adv-x="743" d="M197 -43q-3 0 -11 -4l-6 14l2 8q-2 0 -4 1q-3 1 -8 -3v52l-2 12v8q0 7 9 50t13 46l15 64q4 6 4 8l72 262q8 15 15.5 52.5t16.5 54.5l60 241l65 373q4 4 11 74v6q-4 4 -23 4q-37 0 -106 -23.5t-105 -23.5q-2 0 -13 1t-12 1l-6 4h-51q-3 4 -16 4q-16 0 -19 -4 q-3 1 -20 10.5t-19 10.5q-6 4 -9 13t-4 25t-1 17q-4 2 -4 10q0 9 11.5 14t10.5 13l5 -2v-2l2 2q190 59 319 59q49 0 76 -4q45 -7 123 -44.5t102 -72.5h-2l-6 2h-2l-2 -2l4 -8q0 -1 0.5 -9.5t1 -19.5t0.5 -16v-4q0 -7 -5 -60.5t-7 -62.5v-8h6q4 31 6 45q10 126 12 131 q6 -25 6 -62q0 -2 -1 -14t-1 -14q-2 -3 -8.5 -53t-9.5 -58v-4l4 -4q0 -3 -12 -27q-2 -5 -2 -39q0 -13 2 -14q-8 -3 -8 -22q0 -3 2 -7.5t2 -7.5v-2q-1 0 -2 1t-2 1h-2q-4 0 -6.5 -16.5t-2.5 -24.5q0 -4 2 -8.5t2 -9.5q-14 0 -14 -33q0 -4 3 -7.5t3 -6.5v-4q-4 4 -6 4v2 q-6 0 -6 -21q0 -3 3 -7t3 -7l-2 -2q-2 2 -4 2l-12 -43q0 -1 1 -5.5t1 -6.5q6 0 10 20v-6q0 -15 -8 -20.5t-8 -6.5q4 -6 4 -8v-2q0 -20 -11 -35v-4l2 -4q0 -3 -5.5 -19.5t-6.5 -17.5q2 0 2 -4v-2q-4 -4 -6 -4l4 -4v-6q0 -1 -2 -7.5t-2 -7.5l-123 -438q-1 2 -5 1t-5 -5 l-37 -135v8q0 8 3 23.5t3 23.5q-5 0 -9.5 -13t-8 -30.5t-6.5 -23.5q0 -1 -5.5 -3.5t-7.5 -2.5q-7 -4 -19 -16.5t-20.5 -23t-9.5 -10.5t-3 2t-3 2h-2q-6 0 -12 -12q0 8 -8 8t-19.5 -9t-17.5 -19q0 4 -6 4h-2q-4 -4 -11 -4q-6 2 -6 4h-2l-16 -8q-3 0 -6 3t-6.5 7.5t-4.5 5.5 h-2q0 -12 -8 -16l-18 -7v23h-2zM643 928l6 -6l2 2l21 131v22q-3 0 -6 -6l-15 -100q1 -8 -3.5 -22.5t-4.5 -20.5zM647 909h-4q-2 0 -3.5 -8.5t-1.5 -17.5l-1 -9h6q0 6 2 17.5t2 17.5zM631 831q-8 0 -8 -18q4 0 5.5 2t3.5 6l3 6zM627 844q4 -4 8 -4v8q-6 0 -8 -4zM666 930 q3 0 3 -3t-3 -3t-3 3t3 3zM662 918q3 0 3 -4.5t-3 -4.5q-2 0 -2 4.5t2 4.5zM309 483q-1 0 -1 -4t1 -4q3 0 3 4t-3 4zM252 221q-2 0 -2 -4t2 -4q3 0 3 4t-3 4zM670 1090q0 -7 4 -7v7h-4zM479 209v-4h4v4h-4zM524 1112q0 2 -2 2t-2 -2q0 -3 2 -3t2 3zM186 156q2 0 2 -4t-2 -5 l-1 7zM682 1028q2 -2 2 -5t-2 -3l-2 3q0 5 2 5zM645 827q8 0 0 -4v4zM473 162q3 -3 0 -6q-1 0 -1 3t1 3zM635 858v-2h4v2h-4zM694 1284q2 0 2 -2t-2 -2t-2 2t2 2zM678 1008q2 0 2 -2t-2 -2t-2 2t2 2zM655 883q1 -1 1 -5t-1 -4v9zM467 131q4 0 0 -4l-1 4h1zM672 971 q4 -4 0 -4q-2 0 -2 2t2 2zM639 795q1 0 1 -3.5t-1 -3.5v7zM469 147q1 0 1 -2t-1 -2v4zM653 858v-2v2z" />
<glyph unicode="8" horiz-adv-x="817" d="M41 414q0 126 63 276q3 6 12.5 18.5t12.5 18.5q46 88 94 129v8q0 12 -5.5 29.5t-15 40.5t-12.5 31q-30 127 -30 209q0 41 20 139q6 10 9.5 10t5.5 4q2 3 15 30t26.5 47.5t23.5 20.5q0 -2 2 -2q-22 -22 -22 -28l2 -2q29 37 71 37v-3q1 0 7.5 -2t7.5 -2l4 7q4 4 10 4l12 6 h4q4 -4 4 -6h5q8 4 51 4h4q93 0 188.5 -38t128.5 -112q31 -70 31 -229q0 -67 -10 -98l-19 -39q-12 -11 -12 -13l-39 -65l-6 -8l-10 -13h-12q-6 -4 -19 -24t-16 -23q-17 -18 -53 -44.5t-42 -31.5v-4q0 -15 32 -60.5t32 -53.5v-2q0 4 -8 4h-2l2 -6l96 -150q1 -1 6.5 -13 t5.5 -14v-8q-2 3 -12.5 21t-17.5 24h-4q-7 -2 -9 -2v-4l4 -4q5 0 9 4q1 -6 4.5 -14.5t3.5 -22.5q10 0 18 -11t15 -29t12 -25h2q0 2 4 6l6 -6h4l6 4v-10h-2v-9l2 -2q0 1 2 3t2 3q1 -4 16 -30t15 -39q0 -36 -36.5 -72.5t-76 -58t-75.5 -33.5q-107 -35 -215 -35 q-174 0 -258 127q-40 61 -57 112.5t-17 123.5zM283 418q2 -1 6 -24t8 -48.5t6 -30.5q8 -4 8 -6q3 -7 8 -23.5t8.5 -25t10 -21t14.5 -22.5q2 -7 21 -27t26 -20q26 0 55 13.5t42 33.5q1 0 3 3t3 3q13 5 26 19t13 28q0 9 -7 25.5t-8 19.5q-48 98 -139 232q-16 37 -55 94l-13 14 q-6 0 -8.5 -11.5t-3.5 -12.5q-28 -107 -31 -182q-1 -2 0 -5t2 -7t1 -5l8 -4v-2q0 -8 -4 -8zM442 885l2 -4h5q2 0 6 4q32 61 41.5 102t9.5 111v16q-1 6 -4 41t-4 39q0 1 -1 4.5t-1 5.5q-4 28 -7.5 43.5t-15.5 36t-31 29.5h-4q-45 -80 -45 -193q0 -103 49 -235zM532 233l-2 -4 q-4 -1 -23.5 -16t-21.5 -18q-1 0 -5.5 -4.5t-4.5 -6.5h2q12 0 31.5 17t28.5 32h-5zM311 682q-16 -27 -16 -37h4q2 0 6.5 7.5t5.5 13.5v16zM643 467q0 -7 8 -10l2 2q0 7 -10 12v-4zM199 1358v-2q0 -16 -11 -23q6 17 11 25zM715 358l2 2q4 0 4 -12v-8zM598 580l4 -2 q3 0 3 -4.5t-3 -4.5q-4 0 -4 4q-2 0 -2 3.5t2 3.5zM623 498q5 -9 8 -11v11h-8zM205 1276q-3 0 -3 -4t3 -4t3 4t-3 4zM616 934q-3 0 -3 -4t3 -4t3 4t-3 4zM647 989q-3 0 -3 -4t3 -4t3 4t-3 4zM293 637q-4 -2 -4 -8v-4q4 2 4 10v2zM229 344q-3 0 -3 -3t3 -3t3 3t-3 3zM735 350 q3 0 3 -3t-3 -3t-3 3t3 3zM700 387q5 -3 5 -8v-4l-5 8v4zM324 1042q-2 0 -2 -4t2 -4q3 0 3 4t-3 4zM731 1118q-1 0 -1 -4t1 -4q3 0 3 4t-3 4zM696 1296q-2 0 -2 -4t2 -4q3 0 3 4t-3 4zM750 279q-3 0 -3 -3.5t3 -3.5q2 0 2 3.5t-2 3.5zM565 627q-3 0 -3 -3t3 -3q1 0 1 3t-1 3 zM651 442q-3 0 -3 -3t3 -3q1 0 1 3t-1 3zM352 1434q-3 0 -3 -3.5t3 -3.5q2 0 2 3.5t-2 3.5zM653 453q0 -3 4 -7v7h-4zM229 1378l-4 -6l4 2l2 2zM461 182q-1 1 -3.5 -1.5t-0.5 -2.5q1 -2 2.5 -0.5t1.5 4.5zM633 483q0 -2 4 -6v6h-4zM215 1393q3 0 3 -2t-3 -2q-1 0 -1 2t1 2z M684 387q-3 0 -3 -2t3 -2q4 0 0 4zM707 371h2q2 0 2 -2v-4l-2 4zM557 631l4 -4v4h-4zM582 596q-2 0 -2 -2t2 -2q4 0 0 4zM520 375q-2 1 -2 -1.5t2 -2.5v4zM311 96v-2v2z" />
<glyph unicode="9" horiz-adv-x="864" d="M162 8q0 -2 -3 -5t-5 -3h-2q-4 0 -43 13t-46 18q-8 9 -5.5 11t1 5.5t-15.5 11.5q-2 2 -2 7q0 8 27 8q0 6 6 6h4q1 0 9 -2t9 -2h7t8 1t7 3.5t1 5.5h162q34 0 86 18q28 9 51 26.5t38.5 36t27.5 49t18.5 51t12 58t7 54t4.5 53.5q4 12 4 62q0 14 -1 86t-1 86q-24 0 -82 -13.5 t-90 -11.5q-12 0 -50.5 3.5t-49.5 6.5q-7 5 -24.5 12t-30.5 17q-72 53 -72 160q0 140 78 299l4 4v2q-8 3 -10 9t1.5 12.5t8.5 13t10.5 13.5t7.5 11q39 84 109 119q3 1 11.5 5.5t15 6.5t14.5 2h96q14 -5 41 -12t48.5 -15t37.5 -22q37 -37 45 -49q2 -6 2 -8q9 -28 17 -36 t36 -19q9 -7 11 -7h16q0 -5 21 -11t24 -19q6 3 6 10q8 -12 8 -21q3 -15 3 -69l4 -4h2l-2 -2l-4 -4q0 -9 4 -32t4 -28q4 -59 4 -178q0 -340 -23 -512q-3 -30 -26 -115q-5 -2 -8.5 -15t-6.5 -17q-61 -74 -164 -117q-18 -4 -34 -10q-2 0 -5.5 -1t-5.5 -1q-167 -35 -258 -35 q-5 0 -17.5 0.5t-22.5 1t-11 0.5q-51 0 -59 18zM383 864q0 -44 10 -61l2 4q-1 6 -1 23.5t1 23.5q0 12 4 12q0 -29 4 -37l3 -6q0 -2 2 -2l2 2q2 0 4 2q33 43 65 119l15 33v-4q0 -20 -25 -64q-47 -79 -55 -98q-4 0 -4 -8h4q8 8 14 6l66 141q4 11 10.5 31.5t12.5 37t13 30.5 q7 68 7 127q0 19 -31 38q-9 -2 -18 -11t-14 -17.5t-13 -23t-10 -17.5l-21 -37v-8l14 10v-2q-29 -70 -59 -209q-2 -12 -2 -35zM784 260l23 131q7 48 8 147t2 113l4 -14q0 -78 -4 -188q0 -2 -2 -24.5t-2 -23.5v-10q-8 -72 -18 -112q-9 -63 -37 -123l-4 -4v8q1 3 12 42.5 t18 57.5zM455 1329q8 -2 22 -2h8q-2 2 -18 2h-12zM479 1204v-4q1 1 8.5 9.5t8.5 11.5zM817 666q3 0 3 -4.5t-3 -4.5t-3 4.5t3 4.5zM403 899q1 0 1 -4t-1 -4q-3 0 -3 4t3 4zM414 954q2 0 2 -4t-2 -4q-3 0 -3 4t3 4zM406 1118q-2 0 -2 -4t2 -4q3 0 3 4t-3 4zM403 889v-4 q0 -6 -4 -6v2q2 6 4 8zM399 793l-4 -7h4q0 5 4 5zM430 1016q3 0 3 -3t-3 -3q-2 0 -2 3t2 3zM416 967q3 0 3 -3t-3 -3q-2 0 -2 3t2 3zM821 717q1 0 1 -3t-1 -3q-3 0 -3 3t3 3zM602 354q-3 0 -3 -3t3 -3q2 0 2 3t-2 3zM301 1059q0 1 -2 1t-2 -1q0 -3 2 -3t2 3zM821 778 q2 0 2 -2v-4q-2 -2 -2 -4v10zM760 573q-2 1 -2 -1.5t2 -2.5q8 4 0 4zM657 1225l2 -4h-2v4zM821 811l2 -4h-2v4zM602 96l-4 1v-1h4zM451 1333h-2h2z" />
<glyph unicode=":" horiz-adv-x="335" d="M100 965q2 6 -4 6q-3 0 -8 -1t-8 -1q-19 0 -29 29.5t-10 52.5q0 22 14.5 63t34.5 41q2 0 6.5 -1t7.5 -1l2 6h3q3 0 4 -5t4 -5q4 0 10.5 3t9.5 3q12 0 19 -10q24 0 28 -4q6 0 29 -15q23 -9 27 -10q3 -1 6.5 -6t5.5 -6q3 -2 11.5 -4.5t13 -6.5t4.5 -10v-8q-4 -9 -12 -26.5 t-13.5 -31.5t-9.5 -28q-9 -2 -27 -16.5t-35 -14.5q-3 0 -8 2.5t-8 2.5t-9 -2.5t-9 -2.5q-6 0 -23.5 4.5t-26.5 2.5zM100 6q2 6 -4 6q-3 0 -8 -1t-8 -1q-19 0 -29 29.5t-10 52.5q0 22 14.5 63.5t34.5 41.5q2 0 6.5 -1t7.5 -1l2 6h3q3 0 4 -5.5t4 -5.5q4 0 10.5 3.5t9.5 3.5 q12 0 19 -11q24 0 28 -4q8 0 29 -14q23 -9 27 -10q3 -1 6.5 -6.5t5.5 -6.5q3 -2 11.5 -4.5t13 -6t4.5 -9.5v-8q-4 -9 -12 -26.5t-13.5 -31.5t-9.5 -28q-9 -2 -27 -16.5t-35 -14.5q-3 0 -8 2t-8 2t-9 -2t-9 -2q-6 0 -23.5 4t-26.5 2zM289 1067q1 0 1 -3t-1 -3h-2 q1 -1 0.5 -3.5t-2.5 -2.5q-1 0 -1 3t1 3q0 6 4 6zM289 109q1 0 1 -3.5t-1 -3.5h-2q1 -2 0.5 -4t-2.5 -2q-1 0 -1 3t1 3q0 7 4 7zM291 115q3 0 3 -3t-3 -3q-1 0 -1 3t1 3zM291 1073q3 0 3 -3t-3 -3q-1 0 -1 3t1 3zM283 92v-2q0 -1 -1.5 -3t-3 -4.5t-2.5 -4.5v4zM283 1051v-2 q0 -1 -1.5 -3t-3 -5.5t-2.5 -4.5v4zM160 78q0 3 -2 3t-2 -3h4zM160 1036q0 3 -2 3t-2 -3h4z" />
<glyph unicode=";" horiz-adv-x="368" d="M113 -274h-7q-5 0 -12.5 -9.5t-13.5 -9.5h-2q2 8 13 21t11 20h-6q-3 0 -9.5 -7.5t-8.5 -12.5l-6 6q6 6 9 15.5t5 12.5q7 11 30 48.5t33 55t25 47.5t25 56l8 31v2h-29q-5 0 -11.5 4t-10.5 4t-10 -2t-9 -2l-10 2q-4 0 -10 6h-19q-20 1 -28 6q-29 11 -29 93q0 15 3 29.5 t5.5 21.5t11.5 24.5t11 22.5q0 19 6 25q0 2 4 2h2l8 -2v-5l-10 -10h4q6 0 12 7.5t8 7.5q5 0 9 -2.5t8 -2.5q-6 -4 -8 -4v-4q8 -8 16 -8q3 0 9 3t12 3q2 -8 2 -10q1 -2 9 -2t11 -2q14 -9 40 -22.5t38 -20.5q0 -1 6 -10t8 -11q13 -4 15 -6q32 -18 39.5 -34.5t7.5 -61.5 q0 -50 -15 -96q-4 -2 -5.5 -4t-2 -3.5t-1 -4.5t-1.5 -5q-3 -5 -7 -16t-7 -19.5t-4 -9.5q-2 -6 -13.5 -27.5t-15.5 -25.5q-6 3 -10.5 -1t-9 -13l-5.5 -11l-75 -73q-14 -5 -19 -8q0 5 10 13t11 13h-2q-2 0 -11 -9t-12 -13l-7 -10q-7 -9 -13 -11q-4 -1 -9 0.5t-6 -2.5 q1 5 8 12.5t7 8.5zM100 965q2 6 -4 6q-3 0 -8 -1t-8 -1q-19 0 -29 29.5t-10 52.5q0 22 14.5 63t34.5 41q2 0 6.5 -1t7.5 -1l2 6h3q3 0 4 -5t4 -5q4 0 10.5 3t9.5 3q12 0 19 -10q24 0 28 -4q6 0 29 -15q23 -9 27 -10q3 -1 6.5 -6t5.5 -6q3 -2 11.5 -4.5t13 -6.5t4.5 -10v-8 q-4 -9 -12 -26.5t-13.5 -31.5t-9.5 -28q-9 -2 -27 -16.5t-35 -14.5q-3 0 -8 2.5t-8 2.5t-9 -2.5t-9 -2.5q-6 0 -23.5 4.5t-26.5 2.5zM289 1067q1 0 1 -3t-1 -3h-2q1 -1 0.5 -3.5t-2.5 -2.5q-1 0 -1 3t1 3q0 6 4 6zM291 1073q3 0 3 -3t-3 -3q-1 0 -1 3t1 3zM242 184q3 0 3 -3 t-3 -3q-2 0 -2 3t2 3zM283 1051v-2q0 -1 -1.5 -3t-3 -5.5t-2.5 -4.5v4zM160 1036q0 3 -2 3t-2 -3h4zM96 -238q-1 1 -6 0q0 -2 2 -2t4 2zM113 -254v-2h2v2h-2zM100 248h2v-4z" />
<glyph unicode="?" horiz-adv-x="722" d="M276 485l-2 -2l-6 -4q-2 1 -3.5 4t-2.5 7.5t-2 5.5q-12 72 -12 92q-2 31 -2 43q0 3 1 20.5t1 20.5q0 2 1 8t1 8q0 39 6 57q0 15 20 105q1 5 14 37t11 45l12 31l60 94q11 9 19 27t9 20q4 7 17.5 31t19.5 36t12.5 33.5t6.5 40.5q0 17 -4 21q-26 22 -35 26h-2q-4 0 -20 -8 t-17 -8l-29 -23l-33 -18l-8 -8l-2 2h-4l-29 -33q-9 -9 -22 -35l-8 -4q-6 -6 -11 -19.5t-8 -17.5q-2 -3 -3 -2.5t-5 -1.5t-10 -15.5t-14 -13.5q-2 0 -4.5 4t-4.5 5q-2 -1 -4.5 -8.5t-3.5 -8.5h-2v13l-6 2q-2 -2 -3 -7.5t-1.5 -10.5t-3.5 -5h-2q0 2 -6 2h-2q-5 -4 -5 -6 q-2 0 -11 -1t-11 -1h-4l-15 2l-6 -2h-4l-6 2h-2q-2 0 -5 -3t-5 -3q-3 0 -11 4.5t-12 5.5l-12 37v39q2 -1 4.5 0.5t4 4.5t3 5.5t3 5.5t1.5 4q22 49 82 117l6 6l13 13l-2 4q-60 -52 -113 -154v2q0 21 15.5 52t17.5 38q3 5 18 21.5t19 19.5q2 3 10 10.5t17.5 16t11.5 10.5 q11 11 38 29q56 39 93 39l-9 -7q-82 -30 -161 -106q-4 -2 -7 -8h3q16 14 22 20q15 15 33 27q-2 -6 6 -6q7 0 13.5 7t9.5 9t17 8t19 13l-2 2q-10 0 -28 -14.5t-27 -14.5h-4q11 19 80 45l37 12l8 6h18q4 1 27.5 3.5t26.5 3.5l6 4h2l102 -21q11 -3 22 -7.5t23 -10t19 -8.5 q48 -15 91.5 -48t51.5 -77v-27q0 -43 -16.5 -87t-37 -74t-50.5 -72.5t-46 -71.5q-56 -101 -63 -248q0 169 86 297q9 14 38.5 54.5t44 63.5t28.5 60.5t14 71.5q0 23 -4 37l-4 12h-4v-61q-1 -51 -27 -99.5t-65.5 -101.5t-55.5 -86q-28 -58 -39 -100q0 -4 -7 -41t-7 -41 q0 -1 -2 -5.5t-2 -5.5q-10 -97 -8 -141q-19 -15 -25 -45v-6h-2q-4 2 -6 2l-2 -2v-17h-2l-6 5q0 -2 -5 -7.5t-6 -5.5l-2 -2l-2 2l-6 4q-4 0 -4 -2l-2 -8h-6q0 -2 -5.5 -10t-8.5 -8q-4 -1 -8 0t-8 -0.5t-7 -5.5q0 6 -8 14q-2 -1 -3 -5.5t-3 -6.5q-11 0 -19 16q-3 -2 -5 -11 t-5 -9q-11 0 -14.5 18t-8.5 18zM311 53l-2 -2l-6 -6q-2 8 -7.5 27t-8.5 32t-4 27q-7 80 -7 156v6h5q0 -23 6 -23q2 0 11.5 5t14.5 6q20 0 25 16h4q0 -14 6 -14h2l2 6q11 2 13 4h2q2 0 8 -3t8 -3l10 -4h29q4 -2 12 -2h4l6 2q3 -2 5 -2q0 -1 2 -7t2 -8l26 -4l2 -4q1 0 2 -16.5 t2 -40.5t2 -33q0 -3 1 -20.5t1 -20.5q-6 0 -9 -3.5t-5 -10t-4 -9.5q-3 -6 -10 -13t-8 -17q-6 6 -9 6q-4 -1 -8 -9t-6 -10q-4 7 -6 9h-2l-12 -17l-4 4h-3l-8 -14l-4 2h-2q-6 0 -6 -8q-6 6 -10 6l-4 -4q-2 4 -4 4t-5 -2t-6 -2t-4 5t-4 7q-2 -3 -7 -7t-7 -11q-20 20 -21 20z M369 1036q-20 -20 -35 -57h2q3 0 18 25t15 28v4zM496 229v17l4 -6q2 -55 4 -78v-12q-8 25 -8 79zM236 1354l4 -2q6 0 6 8q-8 0 -10 -6zM252 1360l4 -2q2 2 2 6q-4 0 -6 -4zM377 1047q-3 0 -3 -3.5t3 -3.5q1 0 1 3.5t-1 3.5zM469 590q1 0 1 -3t-1 -3t-1 3t1 3zM639 1253 l-2 -2h4zM299 295h2v-2h-2v2zM319 948h-2h2z" />
<glyph unicode="@" horiz-adv-x="1224" d="M1010 233l-25 -53l-5 -2q-4 -2 -5 -6q-7 -11 -21.5 -29t-19.5 -26l-2 -8q-10 -14 -43 -31q-103 -56 -195 -74q-2 -2 -14 -2q-99 -18 -166 -18q-98 0 -180 26q-8 3 -13.5 9t-13.5 10t-26.5 13.5t-32 17.5t-25.5 18q-68 58 -116.5 164.5t-59.5 208.5v77q-4 4 -4 7v4 q2 4 4 4v2q0 3 -6 51q0 6 3 19.5t3 19.5q2 17 7.5 59.5t9 65.5t9.5 58t14 64.5t19 57.5q9 29 35 84q0 2 11 20t12 21q0 1 1 4t1 4t-1 3t-1 3q5 0 11 8t11 19.5t7 13.5q20 36 83 107h-6q1 5 6 4t7 0l10 16q23 23 51 39l8 2q1 1 0 4l-2 4q-25 -16 -33 -22q-38 -22 -94 -82 q-7 -8 -14 -19t-13 -18.5t-14 -15.5l-2 4q0 8 9 20t22.5 25.5l15.5 15.5q67 80 162 128t193 48h36q4 0 36 -4t36 -4h8q62 -21 82 -24q43 -14 104.5 -45t78.5 -54q5 2 8 0t5.5 -7t4.5 -7q104 -104 137 -225q0 -2 4 -6q9 -14 16.5 -54.5t12.5 -52.5q0 -4 2 -4q6 2 6 4v-10 q0 -6 3 -21l3 -16l2 -2q4 2 4 8q3 -6 3 -31q0 -30 -3 -30q0 -13 -7 -44t-7 -44q8 0 12.5 24t8.5 27v-8q0 -13 -2 -15q-74 -244 -193 -295q-12 -5 -27.5 -8.5t-38 -6t-26.5 -3.5h-2q-1 0 -9 1t-10 1l-2 10h-4q-2 -8 -2 -10h-14q-61 0 -109 68q-1 1 -2 4t-2 5.5t-2 2.5 q-12 12 -14 16q-4 -4 -6 -4q-3 -3 -18 -19t-22 -22t-20.5 -15.5t-25.5 -13.5q-19 -9 -62 -18q-3 -2 -18 -2t-19 -4h-16q-73 0 -106 29q-39 31 -61.5 86.5t-22.5 111.5q0 55 8 99q0 6 4 10h4v10q21 58 33 82q1 3 11 21t11 26l62 82v2l-6 2h-3q0 -2 -2 -4q-49 -67 -53 -76h-4 v2q0 2 8.5 17.5t12.5 21.5q37 68 77 86q1 1 10 6.5t17 10t10 4.5q9 0 43 -11t39 -10q2 -6 7 -8.5t13 -3.5t11 -2l8 -10q8 -4 27 -8.5t28 -8.5q12 -8 26 -28t24 -27q8 -7 25 -11.5t22 -7.5q6 -8 6 -10q6 -2 14 -2q3 -1 5 -5.5t5 -4.5q6 0 9 8v-65q0 -7 12 -19q1 -5 3 -26 t4.5 -39t9.5 -48t18 -59q2 -4 5 -17.5t6.5 -23.5t6.5 -10v2l12 12q50 68 72 127q3 14 9.5 40t10 47.5t3.5 41.5q0 92 -44.5 184.5t-113.5 161.5q-28 29 -88 50.5t-101 21.5q-29 0 -79 -20q-1 0 -3.5 -1t-3.5 -1q-26 -13 -32 -13q-48 -24 -52 -28q-14 -7 -36 -29l-60 -62 q-2 -2 -20.5 -25t-22.5 -30q-67 -97 -67 -131q0 -2 3 -3.5t3 -2.5l-2 -2q-17 -54 -19 -74l-4 -4q-4 -21 -6 -29q-6 -48 -6 -53q0 -3 2 -6t2 -6q0 -13 -5.5 -41t-6.5 -37q-2 -37 -2 -111q0 -88 6 -131q1 -8 8 -28.5t8 -24.5l4 -14q24 -94 49 -139q3 0 10 -12t15 -26.5 t10 -17.5l14.5 -14.5l16 -16t15 -14t18 -15t17.5 -12t20 -10.5q4 -1 18 -4t21 -6q1 0 8.5 -1t9.5 -1l18 2q63 13 66 14q10 7 37.5 16t32.5 11q64 31 133 111q6 4 10.5 9.5t9.5 13t8 11.5q0 2 2.5 5.5t3.5 3.5q8 8 24.5 34.5t27.5 36.5v-6h2l14 14h2q0 -8 -7.5 -19t-8.5 -13 v-2l4 -2q7 5 17 20t18 21v-15q5 0 17 6.5t17 6.5q6 0 8.5 -6.5t8.5 -6.5q5 0 15 5t11 5q6 0 9.5 -8t4.5 -17.5t1 -10.5t4 -7.5t4 -7.5t-1 -4t-1 -4q10 9 12.5 6.5t-2.5 -16.5v-2q3 -7 -22 -58zM487 653q0 -65 33 -96q10 10 21 4q11 11 29 36t30 36l6 2l-2 10q2 0 5 -1 q4 1 5 3l25 45l2 4v-4q0 -14 -17.5 -40t-17.5 -40q10 0 31.5 47.5t21.5 61.5v2q-23 105 -26 192q-6 12 -27 33q-7 -5 -20 -8l-23 -25q-6 -6 -20.5 -27t-14.5 -24l4 -8q0 -5 -12.5 -29t-11.5 -32l-14 -47v-5l4 -4l-4 -6q0 -1 1 -7t1 -7q-11 0 -11 -17h7q0 -8 -2.5 -24 t-2.5 -25zM279 936q-6 -4 -16.5 -41t-10.5 -47v-2l4 4l23 80v6zM168 1122l2 -2l-20 -33v7q0 7 6 17.5t12 10.5zM88 926l-2 -29l-4 -4v29l4 2zM309 991h2l-8 -20h-6q0 4 4 12t8 8zM102 965q0 -21 -8 -25v2q0 23 8 23zM881 319q-13 -13 -13 -18v-4q13 9 13 20v2zM80 887l2 -4 q0 -15 -6 -15q0 17 4 19zM238 1171l-2 -4l-9 -12v-2l15 14zM143 1065v-4q0 -6 -6 -12v2q0 8 6 14zM61 805v-6q0 -9 -4 -15v7q0 8 4 14zM879 340q-4 0 -9 -10h2q4 0 9 10h-2zM121 1018q1 0 1 -3t-1 -3h-2q1 -2 0.5 -4t-2.5 -2q-1 0 -1 3t1 3q0 6 4 6zM170 1106h2 q-1 -1 -3.5 -5.5t-4.5 -6.5v2q0 10 6 10zM504 565q0 -10 6 -10q0 10 -4 10h-2zM334 184q-3 0 -3 -3t3 -3t3 3t-3 3zM184 1128h2q0 -8 -6 -8q0 8 4 8zM512 829q-8 -5 -3 -7q4 1 5 7h-2zM950 328q0 -1 -1 -4t-1 -5q2 0 6 7zM264 1219l-10 -11l-2 2q2 1 5.5 5t4.5 4h2zM43 670 q3 0 3 -4t-3 -4q-1 0 -1 4t1 4zM258 776q3 0 3 -4t-3 -4q-2 0 -2 4t2 4zM145 1083h2l-6 -10v4q0 6 4 6zM68 846q3 0 3 -3t-3 -3q-2 0 -2 3t2 3zM106 979q2 0 2 -3t-2 -3q-3 0 -3 3t3 3zM317 1006q1 0 1 -3.5t-1 -3.5q-3 0 -3 3.5t3 3.5zM127 1030q1 0 1 -3t-1 -3q-3 0 -3 3 t3 3zM147 1055q1 0 1 -3t-1 -3q-3 0 -3 3t3 3zM176 1116q2 0 2 -3t-2 -3q-3 0 -3 3t3 3zM61 485q-3 0 -3 -3t3 -3q1 0 1 3t-1 3zM195 1141l2 -2l-9 -4v4h5zM88 666q-2 -2 -2 -7q3 0 6 3zM43 655q1 -1 1 -5.5t-1 -4.5l-1 7zM172 1135h6l-6 -7v7zM109 993h4l-4 -8v8zM248 821 l-1 -8h1q2 0 2 3.5t-2 4.5zM424 915q-4 0 -4 -4h4v4zM322 1016q2 0 2 -3t-2 -3t-2 3t2 3zM541 573q1 0 1 -3t-1 -3t-1 3t1 3zM131 1042h4v-2h-4v2zM72 860q2 0 2 -2t-2 -2t-2 2t2 2zM236 1194q2 0 2 -2t-2 -2t-2 2t2 2zM1182 772q2 0 2 -2t-2 -2t-2 2t2 2zM547 1030 q0 2 -2 2t-2 -2q4 -4 4 0zM291 948h2l-2 -6v6zM518 842v-6q0 1 1 3t1 3h-2zM362 1300v-2h3v2h-3zM991 213l-2 -4h2v4zM150 403v-4h2zM248 831v-2h2zM981 311v-2v2zM514 1022h-2h2zM1151 874v-2h2zM492 1040q-1 -1 -3 0h3z" />
<glyph unicode="A" d="M68 35q-2 1 -2 6t2 6l-2 1q-4 3 -7 -5q-7 0 -12 14q-3 9 -4.5 19t-0.5 24t1.5 20.5t3.5 24.5t4 21q0 33 17 203q8 25 14 108q9 72 33 204.5t32 182.5q3 15 14 48t13 51l2 4q0 1 -1 3.5t-1.5 4.5t0.5 4q5 26 21.5 101t23.5 116q1 2 4 27.5t4 27.5q8 52 29 135q12 38 21 45 t42 7h5l34 -4q7 -4 9 -4l4 4q4 -2 6 -2l6 -2q1 0 3 -2.5t3 -2.5q3 0 17 7t18 8h2q10 -2 24 -13t37 -14q7 0 26.5 3t29.5 1q11 -1 20 -4.5t14.5 -7t11.5 -12.5l9 -13.5t9 -18t9 -18.5q2 -6 15 -35.5t14 -33.5q10 -10 10 -12l4 -2q16 6 17 6h2q-2 -4 -2 -22t4 -19h2q1 1 3 1.5 t3.5 1t1.5 1.5q7 -33 30 -95.5t30 -91.5q37 -141 79 -360q0 -2 6.5 -26t4.5 -35h-4q-3 0 -7.5 25.5t-9.5 57t-10 41.5l-35 160q-10 -5 -10 -10q-1 -4 3 -32t7 -36l19 -75q4 -7 4 -9l61 -335q1 -11 19 -113t12 -148l-6 -14l-2 -14q0 -32 -2 -39q-1 -10 -16 -28t-23 -23h-7.5 t-5 0.5t-3 -1.5t-2.5 -6t-3 -14q-6 0 -9 5.5t-5 6.5q0 -12 -12 -24q-9 -2 -11 -2q-14 0 -14 12q-4 -4 -10 -4h-4q-37 34 -54 133l-2 15q-5 22 -16 100t-16 100l-7 6l-20 142q2 8 -8 8q-17 1 -132.5 -36.5t-121.5 -45.5q-8 -81 -23 -125q-3 -10 -13.5 -33t-12.5 -37 q-2 -4 -8 -29l-7 -26q-1 -6 -6.5 -19.5t-14 -26t-13.5 -11.5h-3q-6 2 -8 4q4 -5 0.5 -8.5t-4.5 -8.5l-4 -16q-3 -8 -20 -16.5t-19 -10.5q-74 -54 -131 -47h-16l-4 10q-3 9 -2 11zM424 735l-21 -155q0 -9 11 -9q4 0 11 4.5t11 4.5l2 -5q4 -2 6 -2h2l80 13q48 -8 76 -8 q3 1 9 0.5t9.5 0.5t4.5 5v2l-39 192q-4 21 -29 129q-23 122 -63 240l-5 20q-1 -4 -7 -35t-11.5 -57.5t-9.5 -34.5l-2 -8q0 -10 6 -10l-8 -82l6 -6l-8 -39q-2 -23 -13 -65.5t-14 -63.5q-1 -3 0 -8.5t0 -9.5q0 -13 -4 -13zM840 606q7 -3 28 -107t19 -116v-6l-6 6 q-25 127 -37 180q0 7 -2.5 22t-1.5 21zM760 946q-6 -17 6 -20q0 18 -6 20zM274 156l-4 -15q11 3 11 15h-7zM690 1214q-1 0 -2 -2.5t-1 -5t1 -2.5q5 0 5.5 4t-3.5 6zM754 985q-4 0 -5 -4t3 -4t4 5q0 3 -2 3zM274 133q-2 0 -3 -2.5t-1 -5t2 -2.5t3 2.5t1 5t-2 2.5zM84 432 q-2 -5 4 -8l2 8h-6zM883 360v2q1 0 3 -3t3 -3v-4q-6 0 -6 8zM276 203l-2 -8q7 0 7 6zM705 1169q-3 0 -3 -4t3 -4q1 0 1 4t-1 4zM641 1315l2 2l4 -10h-2q0 1 -2 3t-2 3v2zM371 1102v-8l6 2zM201 1069q-3 -3 2 -8l2 8h-4zM717 1098v-6l6 -2zM131 31l-2 -4h4l2 4h-4zM156 246 l-1 -4h1q3 0 3 2t-3 2zM381 858q-1 0 -1 -2t1 -2q3 0 3 2t-3 2zM240 178q-2 0 -2 -2t2 -2q8 0 0 4zM641 1329q3 0 3 -2t-3 -2v4zM242 678q-2 -2 -2 -6q2 0 2 6zM457 995q-2 0 -2 -1l2 -1q3 0 3 1t-3 1zM850 311q0 4 -1 -1q0 -3 1 -3q2 0 2 2t-2 2zM657 1288v-10q-3 3 0 10z M743 1001v-4l5 4h-5zM735 1032v-4h4zM692 1188v-4h4zM76 242l-3 -4h1q6 0 2 4zM477 1409v-2q3 0 3 1t-3 1z" />
<glyph unicode="B" horiz-adv-x="921" d="M205 -86l-6 -4q-1 1 -4 11.5t-5 12.5l-2 5q-3 0 -12 -7t-8 -10q-2 11 -15 44t-14 57q0 1 1 29t1 32l-16 240q-1 12 -4 38.5t-3.5 40t1.5 37.5l-21 328q1 5 0 17.5t-5 59.5t-7 113q-7 49 -6 58l-39 366v9q0 10 14 10h4q0 -1 4.5 -6t4.5 -6h2q5 0 23 8t22 12h4q3 -1 2.5 -8 t3.5 -8l6 2q67 53 118 70.5t132 11.5l6 6l4 -4q0 4 10 4q9 0 13 -6q93 5 178 -27.5t143 -99.5q39 -48 35 -158q-3 -70 -22 -137q-7 -10 -16 -35t-13 -33q-61 -138 -133 -196v-3q10 -4 16 -6q269 -48 264 -270q0 -1 -1 -7t-1 -7q-10 -5 -6 -27q-6 -38 -29 -127l-6 -8 q-88 -134 -170.5 -199.5t-228.5 -116.5q-6 0 -14 -8q-3 0 -25.5 -5t-24.5 -5l-8 -4q-1 0 -6 -2t-6 -2l-14 6q-2 -1 -21 -32t-39 -36q-14 0 -18 -4q-6 -3 -6 -14q-6 6 -6 14q-5 -2 -7 -16t-6 -14t-6 2.5t-4.5 7.5t-3.5 6h-4zM371 932l14 -98l2 -3q3 0 8 5.5t10 12.5l5 7 q77 89 116 217q12 39 27 164v4q1 64 -51.5 106t-120.5 44q-24 2 -72.5 -19.5t-48.5 -46.5q0 -15 4 -27l6 2q6 -6 11 -26l4 -2v16q11 -6 6 -22q6 4 8 4h2q2 -8 13 -41.5t14 -50.5q1 -8 3 -41t7 -50q0 -5 3 -8t9 0q0 -37 4 -49q0 -2 4 -16t4 -15q0 -46 9 -67zM350 195l2 -9 q0 -3 1 -20.5t1 -20.5h2q9 0 46 25t40 33l2 6q2 1 6 1t5 -1q4 3 14 13.5t12 13.5l4 10h9q8 4 17.5 22.5t20.5 18.5l-2 4v4q0 1 3.5 3.5l7 5t4.5 3.5q3 4 6.5 11t7.5 13t10 11q55 98 58 186v7q0 71 -15 92q-18 25 -50 40t-64 17q-27 0 -57.5 -8.5t-41.5 -26.5v-49q2 -4 2 -53 q0 -83 -4 -119l-4 -10v-66q-1 -5 -6.5 -11t-5.5 -9v-158h-2l-6 23l-2 -13l-13 107q0 8 -8 12q0 -15 1 -43t1 -41v-10q0 -1 -1 -7t-1 -7zM385 137l-10 -5t-11 -6t-6.5 -8t-3.5 -14q3 0 20 12t19 15q2 2 9 9.5t10.5 10.5t9.5 7.5t12 5.5l76 72q10 10 12 14h-6 q-43 -46 -115 -100q-3 -2 -6 -8t-6 -7zM563 307q-20 -20 -20 -28v-3q20 20 20 29v2zM774 1290v8q6 -8 6 -18v-6q-6 8 -6 16zM846 608v-14h6q0 14 -6 14zM784 1268q2 -14 2 -33q0 -2 -1 -5.5t-1 -4.5v43zM342 1061q-2 0 -2 -5t2 -5q4 0 4 5t-4 5zM770 1321q3 0 3 -4t-3 -4 q-3 1 -3 4.5t3 3.5zM354 326l-1 -10q0 -7 1 -7q2 3 2 9t-2 8zM352 362q-3 0 -3 -4t3 -4q3 -2 3 2t-3 6zM758 1341q3 0 3 -4t-3 -4t-3 4t3 4zM813 578q-1 0 -1 -5.5t1 -5.5q3 0 3 5.5t-3 5.5zM391 330q3 0 4 -2t0 -4t-4 -2q-1 0 -1 4t1 4zM535 840q-3 0 -3 -3t3 -3t3 3t-3 3z M856 410q3 0 3 -3.5t-3 -3.5t-3 3.5t3 3.5zM874 510q3 6 5 8l-2 -16l-3 4v4zM512 125q-3 0 -3 -4t3 -4l2 3q0 5 -2 5zM532 272q-2 0 -2 -3t2 -3q4 0 4 3t-4 3zM209 393q-5 0 -5 -3t5 -3q1 0 1 3t-1 3zM201 -76q-1 0 -1 -4t1 -4q3 0 3 4t-3 4zM592 936q-2 0 -2 -3t2 -3 q3 0 3 3t-3 3zM877 489q3 0 3 -3t-3 -3q-1 0 -1 3t1 3zM389 494q-3 0 -3 -3.5t3 -3.5q1 0 1 3.5t-1 3.5zM860 526v-8l4 2zM385 475q-3 0 -3 -2.5t3 -1.5q1 0 1 2t-1 2zM285 1317q2 -3 -2 -4q-2 1 2 4zM774 1309q0 -4 -2 -4t-0.5 2.5t2.5 1.5zM739 1315q-1 0 -1 -2t1 -2 q4 0 0 4zM874 528v-2v2z" />
<glyph unicode="C" horiz-adv-x="772" d="M57 483q-6 29 -9 75.5t-7 57.5q3 17 7.5 70t4.5 68l-2 6q2 5 0 12h4v2v14q0 7 2 9l-2 2v4q2 2 2 4l6 35q-2 5 5 12l4 31l6 2h-8l-2 4q3 3 6 8t5.5 12t4 13t3.5 17t3.5 18.5t3.5 22.5t4 24v4l-2 10q0 1 4 4t4 4l2 4q-1 5 -3.5 10t-2.5 9q1 6 7.5 8.5t7.5 3.5q0 1 -1.5 5 t-0.5 9v6l6 -6q0 6 -1 10t-1 5v4q0 1 3 11t3 11l2 6q23 56 55.5 102t75 83.5t99.5 55.5t120 11q15 0 21 -6q10 -2 36 -2q33 -5 71.5 -18.5t72.5 -41t31 -59.5l-2 -4q4 -35 -21 -43q-4 -3 -10 -8.5t-10 -9.5t-5 -4q-2 0 -4.5 1t-3.5 1t-10.5 -6.5t-24 -12.5t-28.5 -4v10 q3 33 -24 71.5t-60 41.5q-4 1 -12 -3t-16.5 -10t-10.5 -7v-5q0 -9 -19.5 -38t-19.5 -37q0 -4 2 -4h-2q-2 -5 -10.5 -25.5t-11.5 -28.5t-8 -24t-7 -29.5t-2 -26.5v-12q-2 -1 -7.5 -15.5t-8.5 -15.5l2 -6q0 -2 -2 -10t-2 -10q0 -63 -15 -98l-4 -60q0 -3 -3.5 -22.5t-4.5 -22.5 v-2q0 -45 2 -55h6q0 -2 -1 -15.5t-1 -23t3.5 -20.5t10.5 -15v-106q4 -16 11 -50q5 -26 8.5 -40t9 -38.5t10.5 -38t12 -34t14 -31.5t16.5 -25t20 -20.5t23.5 -12t28 -5t32 5.5l18 6q6 7 24 15.5t29 8.5q7 -2 19 -14q0 5 11 10t18 4v-10q12 -2 27.5 0t24.5 5l9 3h4 q0 -38 -6 -53q-53 -98 -227 -98l-68 -6l-14 2q-4 0 -8 -2l-68 10l-4 2l-14 2q-88 27 -150.5 94.5t-91.5 159.5q-1 9 -10.5 40.5t-8.5 53.5q-4 0 -4 4zM354 788v-26l-2 -27q-2 0 -2 27q0 26 4 26zM360 696q2 0 2 -6q0 -4 -2 -4q-4 0 -4 6q0 4 4 4zM629 285q2 0 2 -4 q0 -5 -2 -5q-4 4 -4 7q0 2 4 2zM342 707v-9h4v9h-4zM614 270q-2 -2 -2 -6h4q0 1 1 3t1 3h-4zM72 922q2 0 2 -4q-1 0 -2 -1.5t-2 -1.5q-2 1 -2 3q0 4 4 4zM350 590q0 2 -2 2l-2 -2q0 -4 2 -4q2 2 2 4zM199 1061v-4h2v4h-2zM96 1038l4 -4h-2q-2 0 -2 4zM137 918q-2 2 -4 2v-2 h4zM154 786q0 2 -4 2q-3 2 -3 0zM676 1233v-2h4z" />
<glyph unicode="D" horiz-adv-x="933" d="M176 -41q-77 146 -65 424l-48 768q-6 44 -22 219q0 12 14 12q3 0 4.5 -2t3.5 -2l7 8l4 -8q11 3 42.5 11.5t45 12t40.5 9.5t45 8.5t41.5 5t45.5 2.5q6 0 20 -2t27 -2q11 0 29 1t20 1q5 -5 64 -12q124 -32 208 -86.5t136 -152.5q1 -7 18.5 -62.5t17.5 -81.5h-6 q0 -18 7 -49.5t8 -46.5q-3 10 -13 10v-98q-7 -24 -10.5 -70.5t-9.5 -68.5q-25 -93 -62.5 -185t-94 -190t-137.5 -175.5t-175 -115.5q-6 -2 -12 -12.5t-15 -10.5q-8 8 -8 9q-10 -29 -25 -42t-35.5 -22t-33.5 -22q-14 0 -14 4q-2 0 -4 -4t-7 -4q-18 0 -31.5 10.5t-19.5 11.5z M385 649l21 -364q16 9 28 27.5t25.5 49.5t15.5 35q24 31 44 68t28.5 55.5t26.5 68.5t22 60q0 1 1 4t1 4q51 155 51 248q0 191 -108 342q-30 36 -97 61t-114 25q-33 0 -33 -12q0 -7 12 -55q4 4 6 4q5 0 7.5 -15.5t13.5 -15.5q11 -26 22 -170q27 -313 27 -420zM410 260 q1 -1 2 -3q1 -3 2 -3q79 92 129 207q-4 0 -11 -12.5t-15 -28.5t-15 -23q-16 -21 -54 -76.5t-38 -60.5zM879 1016v4q1 -8 7 -28.5t5 -28.5q-12 24 -12 53zM803 1198q0 -8 3 -12.5t9 -3.5q0 14 -12 18v-2zM850 1073q0 -5 5 -8.5t11 -3.5q0 12 -16 12zM887 899q0 -14 -4 -14 q0 13 4 14zM780 1239q0 -4 4 -8l4 4q-2 4 -8 4zM883 850q2 0 2 -4t-2 -4q-4 0 -4 4t4 4zM324 1001q-2 0 -2 -4t2 -4t2 4t-2 4zM68 1200q-5 0 -5 -4q3 -2 5 -2l2 2zM774 1253q-4 0 -4 -4q2 -2 4 -2l2 2zM748 1065l-7 -4h7v4zM322 872l-5 -2q0 -2 5 -2v4zM864 1049q0 2 -4 2 q0 -4 2 -4t2 2zM203 39q-2 0 -2 -4h2q2 0 2 2zM823 721q-2 2 -4 2l-2 -2h6z" />
<glyph unicode="E" horiz-adv-x="733" d="M57 98q-16 150 -16 289q0 30 2 63.5t5.5 74t4.5 63.5q2 32 4.5 97t6 117t8.5 97v377q0 2 1 21t1 24q0 3 2 21t4.5 30.5t6.5 27.5t12 23.5t18 8.5v-17q4 4 20 8t29.5 8t13.5 7l4 -6h2q176 41 258 41q3 0 24 -2.5t24 -2.5h8q36 -4 73 -4q25 -2 72 -25t47 -42h-20l10 -13 q-12 -5 -31 -15t-35 -15.5t-36 -5.5q-14 0 -40 6t-40 6q-79 0 -156 -23q0 -2 -2 -16.5t-2 -17.5q0 -13 7.5 -48.5t8.5 -40.5v-16q4 -24 4 -76q1 -3 3.5 -19t3.5 -18q0 -1 1 -5t1 -5v-2q0 -1 -1 -11t-1 -11v-2q0 -1 1 -11.5t1 -11.5q0 -3 2 -21.5t2 -21.5l4 10v-55l10 -8v-12 q0 -14 -2 -43.5t-2 -45.5q10 0 29.5 4.5t31.5 4.5q8 0 24 -3.5t24 -3.5q15 0 44 3.5t42 3.5h20l49 -27l4 -4q0 -27 -55 -51h-2l-211 -70q-1 -7 -14 -182v-62q0 -112 4 -178q1 -13 2 -17.5t5 -6.5t13 -2q19 0 57 5t58 5h4q6 -1 35 -3t33 -3q5 -3 19.5 -6.5t25 -9t10.5 -15.5 v-2q-4 -6 -4 -8q-35 -26 -58 -39q-56 -19 -65 -25q-18 -11 -49.5 -34t-46.5 -33q-20 -12 -76 -33l-10 -6q-3 -2 -19 -13t-31 -20.5t-20 -11.5h-23q-4 -1 -24 -12t-33 -11q-23 0 -42 11t-33.5 33.5t-21.5 38t-18 42.5zM324 1317v-35q8 27 8 53q-10 0 -17 -10zM391 608v-12 q0 -11 -4 -57v16q0 42 4 53zM387 471q0 -4 -2 -16t-2 -17v43q0 -1 2 -5t2 -5zM326 1208q-2 0 -2 -5t2 -5h2q0 -4 4 -4q3 0 3 5t-3 5h-2q0 4 -4 4zM387 365q1 -3 1 -14.5t-1 -14.5l-1 21zM391 631q1 0 1 -5t-1 -5q-3 0 -3 5t3 5zM315 1300q-3 0 -3 -4t3 -4t3 4t-3 4zM387 950 q3 0 3 -4t-3 -4t-3 4t3 4zM373 971q-3 0 -3 -4t3 -4t3 4t-3 4zM387 322q3 0 3 -3.5t-3 -3.5t-3 3.5t3 3.5zM96 78q-3 0 -3 -4t3 -4q2 0 2 4t-2 4zM391 258q1 0 1 -3t-1 -3q-3 0 -3 3t3 3zM311 1309l4 -6v10zM383 504q1 0 1 -2t-1 -2q-3 0 -3 2t3 2zM383 414v-2q-3 0 -3 2 t3 0zM164 272v-4h2v4h-2zM330 1204q-2 0 -2 -6q2 0 2 6z" />
<glyph unicode="F" horiz-adv-x="686" d="M225 -49h-2q-8 0 -8 -2q0 18 -2 18q-4 0 -4 -8h-2q-8 0 -16.5 11.5t-17 33t-15 42t-14.5 52t-12 48t-10.5 45t-6.5 30.5l-13 47l-24 135l2 9q-20 153 -23 270q-1 30 -0.5 110.5t-1.5 110.5q0 2 -2 8.5t-2 8.5q5 58 5 174t5 174q-13 19 -20 41q17 22 33 24q0 6 1.5 16.5 t7 22t13.5 10.5q3 0 4 -1.5t1 -3t-0.5 -4t-0.5 -3.5q8 0 27 14h4l4 -4l2 -2l2 2q15 6 48.5 22t52.5 23q19 4 40.5 6.5t46.5 4t38 2.5q5 0 46.5 3t45.5 3h22q14 -1 26 -4.5t25 -9.5t23 -9q-9 -5 -12 -13.5t-11 -14.5q-51 -28 -98 -25q0 -2 -12.5 -6t-28 -8.5t-18.5 -5.5 q-51 -31 -62 -35v-4q0 -11 2 -45l2 -33q0 -17 2 -19q0 2 7 9h2v-5.5t1.5 -8.5t4.5 -6t8 3q5 -227 4 -272q7 0 47 10q12 1 40.5 5t51 6t41.5 1q0 -5 -6.5 -7t-7.5 -3h14q11 -1 33 3t35 3q27 0 33 -6q4 -5 6 -10.5t2.5 -8.5t3 -5t8.5 -2q-1 -13 -45.5 -37.5t-62.5 -30.5 q-72 -39 -175 -78v-22l-4 18h-4l-8 -6q0 -2 -1 -11t-1 -10q0 -24 4 -34q10 -228 17 -279q3 -13 43 -219q6 -12 2 -25v-4q0 -7 -4 -8l-3 -57q-4 -7 -4 -9v-36q-7 5 -12 21t-6 18l-2 -5l-2 -2v-2q0 -1 2 -15.5t2 -16.5q0 -7 -2 -7q0 -18 -6 -18h-2q-1 0 -4 5t-5 5q-4 0 -6 -8 t-3 -17.5t-3 -11.5q0 -1 -4 -3.5t-6 -2.5q0 -1 -2 -9t-2 -9q-5 -16 -35 -24.5t-33 -22.5l-8 8q-2 -10 -14 -10q-5 0 -11 4t-10 4zM362 707l3 -11l-3 -57v68zM197 6q-11 0 -11 -8h11v8zM367 621q1 -3 0.5 -11.5t-2.5 -11.5l1 21q1 1 1 2zM369 588q2 -2 2.5 -7.5t-0.5 -7.5v-4 h-4zM375 213q-3 0 -3 -4t3 -4t3 4t-3 4zM295 1282q-3 0 -3 -3t3 -3t3 3t-3 3zM397 219q-3 1 -3 -3t3 -5q1 0 1 4t-1 4zM371 559q1 -1 1 -6t-1 -6l-1 8zM530 958h5l-3 -4h-4zM180 49v-4h4v4h-4zM268 -37l-2 -3q0 -5 2 -5q2 1 2 4.5t-2 3.5zM455 922q-4 2 -4 0q4 -8 4 0z M379 117q-1 0 -1 -2t1 -2t1 2t-1 2zM272 1047q-2 0 -2 -2.5t2 -2.5t2 2.5t-2 2.5zM176 358q2 2 -1 2t-3 -2q4 -4 4 0zM78 1006q2 2 -1 2t-3 -2q0 -4 4 0zM375 123q-1 1 -1 -1.5t1 -2.5q4 4 0 4zM367 145v-4q4 4 0 4zM367 633q4 0 0 -4q-1 0 -1 2t1 2zM362 717l1 -5l-1 1v4z " />
<glyph unicode="G" horiz-adv-x="935" d="M41 596q0 249 125 545l37 86q6 10 31.5 62.5t47 91t57 73.5t69.5 35q16 0 47.5 -10t46.5 -11h33q43 0 43 -28q0 -12 -13.5 -21.5t-13.5 -17.5q0 -1 2 -4t2 -4q-9 -16 -33 -29t-35 -39q0 -2 8 5q5 3 7 3q3 -12 -8 -39.5t-26.5 -59.5t-18.5 -44q-5 -16 -7.5 -47t-7.5 -47 q-6 -19 -20 -57.5t-19.5 -55.5t-16 -53.5t-20 -81.5t-22.5 -109v-10q0 -23 -4 -55t-8 -39q3 -27 4 -73t5.5 -84.5t16.5 -84.5q5 -10 16 -52t27 -79.5t37 -52.5l4 2q0 3 -14 31q-66 128 -66 227q9 -51 41.5 -150.5t50.5 -99.5q11 0 29.5 35t38.5 87t34 91.5t23 69.5l2 4v-4 q0 -9 -5.5 -28.5t-16.5 -49.5t-21.5 -57t-26 -66.5t-24.5 -62.5l-4 -15q4 -3 11 9.5t15.5 33.5t16.5 43.5t16 43.5t13 30l74 260l-3 6l-6 -6q-1 10 6.5 15.5t8.5 11.5q0 2 -1 14t-1 14h-2q0 -19 -9 -28v28q0 2 -2.5 5.5t-5.5 3.5q-12 -5 -14 -5q-45 -2 -68.5 4.5t-23.5 26.5 q0 8 2 12q-5 0 -10 4.5t-5 10.5q0 14 23.5 35.5t44 37t16.5 17.5q-4 -4 -20 -4q55 31 131 31q98 0 213 -41q0 -19 -11 -28.5t-24.5 -11.5t-26 -9.5t-14.5 -20.5q-6 12 -10 12q0 1 -4 -3q-5 -5 -6 -5q7 -12 10.5 -58t3.5 -48q10 0 10 63v21q0 -11 8 -19q0 -20 -6 -62.5 t-6 -70.5q2 -2 4 -2q5 3 11 22q0 -27 -7.5 -63.5t-23.5 -96.5t-19 -73q-10 -10 -10 -33q0 -1 1 -4.5t1 -5.5q0 -25 -23.5 -98.5t-31.5 -85.5h8q0 -8 -11 -20.5t-11 -20.5h8q-21 -23 -85 -52.5t-67 -31.5l-129 -27q-13 0 -37.5 -1t-34 -0.5t-28 3.5t-31.5 9.5t-32 19 t-42 31.5q-94 80 -141 228t-47 302zM541 838l-54 -43v2q2 1 11.5 12.5t21 20t21.5 8.5zM819 584q-3 0 -5 -2.5t-3 -6.5t-1 -7.5t0.5 -8.5t0.5 -6q8 0 8 16v15zM582 537q0 -21 -11 -21q0 4 2 7t5 7t4 7zM100 870q-10 0 -10 -14q10 0 10 14zM346 502v8q4 -14 4 -33q-4 8 -4 25 zM92 840q-8 0 -8 -13q4 -1 6 2.5t2 5.5v5zM53 666v-13h4v13h-4zM838 635q0 -1 1 -3t1 -3l-2 -6q-2 0 -2 6t2 6zM78 442q-2 -2 -2 -8l8 4zM332 1014v-6h4v6h-4zM238 553v-6h4v6h-4zM582 547h6q0 -2 -4 -2q-2 0 -2 2zM121 602h-4l2 -4q0 2 2 4z" />
<glyph unicode="H" horiz-adv-x="860" d="M807 918q-1 0 -1 -4.5t1 -4.5l-23 -446q-2 -12 -4 -14l-4 -9v-2q0 -29 6 -90t6 -92v-29q-2 -2 -4 -2l-10 -32v-13q-1 -4 -4.5 -4.5t-6.5 0.5l-3 2l-2 -6l2 -8q2 0 2 -2q0 -1 -4 -2t-8 -4t-5 -6q0 -17 -2 -19q-6 -12 -29 -24.5t-28 -20.5q0 -6 -4 -6q-6 4 -8 6 q-1 -2 -15 -16h-6q-1 0 -8 3t-8 3l-2 2l-2 -2q-4 -4 -4 -6q-63 54 -90 158t-27 212q0 47 5 141.5t5 141.5q-11 0 -81 -28t-72 -31v-25q0 -14 1 -39l-1 -26q0 1 -2 8l-7 2q0 -3 -1 -21.5t-1 -21.5q0 -117 37 -252l-4 -4l-4 4q-7 22 -15.5 70t-15 80t-12.5 32q19 -164 47 -254 v-6q0 -10 -6 -10l-2 2q-4 12 -8 14q2 -23 -2 -63v-2q-13 -3 -13 -21h-2q-1 0 -5 2t-5 2q-2 0 -2.5 -20.5t-19.5 -20.5q0 -10 -0.5 -14t-1.5 -4.5t-2.5 0.5t-3.5 2t-5 -1t-6 -7q0 -1 -3 -8t-5.5 -12.5t-5.5 -6.5q-8 2 -8 0q-45 -27 -45 -39l-13 16q2 -7 -0.5 -14.5t-9.5 -7.5 q-16 0 -22 12q-7 -2 -7 -18l-2 2q-25 25 -41 72q-56 158 -67 231q-14 86 -21.5 241.5t-13.5 211.5v473q0 137 2 163q7 15 29 15l6 -2q5 0 10 5t10 5q2 0 5 -2t6 -2q4 0 14 4t14 4h2l9 -4l6 5q7 6 16.5 11t17.5 5t25 -5.5t25 -5.5q3 0 6.5 3t7.5 3l4 -2l8 -22h2q5 0 11 12 q15 -7 20 -39q0 2 2 6.5t2 5.5h2q12 0 12 -38h9q0 -21 2 -67t2 -71v-6l4 -35h4q1 10 3 15.5t6.5 12t6.5 11.5q2 -9 2.5 -24.5t1.5 -20.5q0 -32 11 -387h8q27 0 76.5 15t72.5 16q4 1 10 129t12 276t9 177q10 50 10 79q0 2 0.5 9.5t3 12t7.5 5.5q8 -4 10 -4l18 -2q5 0 16.5 3 t16.5 3q4 0 13 -2t14 -2q2 0 15.5 4.5t16.5 3.5l7 -8h4l6 4l4 -4q3 0 16 -3t15 -3q4 -4 4 -8q4 -12 4 -45q2 1 4.5 7t3.5 7l4 -2q-6 -81 6 -115h4l6 4v31l5 -4q12 -96 14 -109q0 -8 6 -14v-55q0 -7 4 -17t4 -16q0 -18 -2 -51t-2 -49q0 -24 4 -31l-10 -96v-7zM373 467l2 4 q2 -9 3.5 -24t0.5 -15l-4 -2q0 2 -1 18.5t-1 18.5zM745 315q-1 0 -1 -3t1 -3q0 -10 3 -9q5 2 2 13h-2zM342 596l-1 -42l1 -7q2 5 2 24t-2 25zM342 1247q2 0 2 -5t-2 -5q-3 0 -3 5t3 5zM307 1372q-3 0 -3 -4t3 -4t3 4t-3 4zM231 1090q-3 0 -3 -3.5t3 -3.5t3 3.5t-3 3.5z M164 227q-3 0 -3 -3t3 -3t3 3t-3 3zM342 1227l2 -27l-2 -4v31zM342 614q-3 0 -3 -4t3 -4q2 0 2 4t-2 4zM334 1155l4 -4v8zM338 924l-2 -3l2 -3q2 0 2 3t-2 3zM780 1323q-2 0 -2 -3t2 -3q3 3 0 6zM360 612q-2 0 -2 -3t2 -3q3 3 0 6zM66 664q-2 0 -2 -2.5t2 -2.5t2 2.5t-2 2.5 zM807 909l2 6q0 -6 -2 -6zM748 313l-3 -4q2 0 3 1.5t0 2.5zM373 225q-1 0 -1 -2t1 -2v4zM750 807v-2v2z" />
<glyph unicode="I" horiz-adv-x="358" d="M125 -47q-24 34 -40 68.5t-25 91t-13 106t-4.5 152t1.5 187t5 253.5t4 311v4q4 7 4 9v34q0 91 11 230l6 12q2 4 4 4h55q0 4 8 4l9 -4q28 0 34 6h25q33 0 42.5 -6.5t27.5 -36.5q1 -2 2 -5t2.5 -4.5t5.5 -2.5v-35q9 -3 11 -14.5t9 -13.5l6 -50l-18 -297q0 -22 4 -22l4 8v-6 q0 -37 -6 -109.5t-6 -109.5q0 -10 4 -12l-4 -9l4 -6q0 -4 -2 -8.5t-2 -9.5q3 4 5.5 -51t2.5 -93q0 -33 4 -98t4 -96q0 -2 -2 -7t-2 -10q0 -10 10 -10q0 -9 -5 -27t-5 -26q0 -16 5 -45t5 -43q0 -17 -6 -35l-12 27h-14q18 -83 18 -109v-8q-4 2 -4 8v4q0 4 -14 4v-4q0 -1 4 -12 t4 -12v-2q0 -21 -10 -21h-5v-37q0 -6 -33 -23t-34 -30l-2 4h-4q-2 -1 -8 -5.5t-11 -4.5q-3 0 -7 3t-7 3h-8q-17 10 -37 37zM315 1323q2 0 2 -6q0 -4 -2 -4q-4 0 -4 4q0 6 4 6zM315 127q0 -1 1 -3t1 -3l-2 -4q-4 0 -4 4q0 6 4 6zM285 182q0 -5 6 -8l2 4q0 4 -8 4z" />
<glyph unicode="J" horiz-adv-x="829" d="M209 -6q-3 8 -16 9.5t-17 4.5q-51 27 -93 91t-42 118q0 21 2 25q5 -11 10 -11q3 0 9 2.5t10 2.5q10 -9 12 -9l8 4q6 0 16 -4t15 -4q10 0 10 4v4q2 0 5.5 -4t8.5 -10.5t9 -9.5v35q31 -8 41 -19.5t18 -29t27 -31.5q3 -3 23.5 -13t23.5 -10q14 0 29 11.5t31 37t22.5 38 t21.5 40.5q1 0 5.5 12.5t9 27.5t6.5 18q13 27 22.5 58.5t14.5 72.5t7.5 67.5t5 79t3.5 72.5q0 354 -113 583q-3 5 -20 29t-27.5 40.5t-20.5 40t-10 40.5q-1 2 2 5t6 5l3 2l22 -10q2 0 10 5t11 5l8 -6q4 0 8.5 1t7.5 1t8.5 -1t8.5 -1l8 2q10 -4 29 -4q3 0 9.5 2t10.5 2 q11 0 33 -5.5t26 -10.5q0 2 2.5 5.5t2.5 4.5q51 2 131 -119q3 -6 15.5 -16t16.5 -17q45 -76 76 -217h2q0 5 -2 15t-2 14h6l21 -78l4 -4q10 -11 19 -101.5t9 -158.5q0 -170 -33 -300.5t-120 -252.5q-55 -79 -171 -133.5t-204 -54.5q-37 4 -51 8zM580 416q-5 0 -5 -6 q0 -4 5 -4q2 0 2 4q0 6 -2 6zM643 1257q-4 0 -4 -4t4 -4q2 0 2 4t-2 4zM643 432q-4 0 -4 -4t4 -4q2 0 2 4t-2 4zM463 190q-4 0 -4 -4t4 -4q2 0 2 4t-2 4zM670 1057q-2 0 -2 -4t2 -4q4 0 4 4t-4 4zM735 1032q-4 0 -4 -4t4 -4q2 0 2 4t-2 4zM715 1141q0 -1 1 -2t1 -2h-2 q-4 0 -4 2q2 2 4 2zM532 1153l7 -4v4h-7zM530 1374q-2 0 -2 -4h2q2 0 2 2z" />
<glyph unicode="K" horiz-adv-x="862" d="M623 125l-123 199l-39 73l-4 6l-86 160l-4 -6v-143q-2 -2 -2 -4l-3 -2l3 -2l4 -7v-86q-1 2 -3 10.5t-4 14.5q2 -37 -18 -148q-2 -2 -2 -4q-6 -6 -6 -20q-4 7 -8 35l-13 -78h-2q-1 0 -3 5t-4.5 10.5t-4.5 6.5l-4 -2l-4 -41l-8 11l-6 -39l-9 6q2 -7 -1.5 -10t-11 -4.5 t-9.5 -2.5t-7 -5.5t-7.5 -6.5t-7.5 -4t-11 -2q-2 0 -3 1.5t-1.5 2.5t-2.5 2.5t-5 1.5q-6 0 -15.5 -13t-15.5 -13q-14 0 -28.5 15t-16.5 28q-8 -4 -8 -13q-8 4 -14 18t-8.5 27t-5 31t-3.5 21l-10 34q-43 407 -33 932q3 132 10 219q0 47 19 47q14 -4 12 -20l6 4v-4q2 1 7 10.5 t10 9.5q4 0 8.5 -2t7.5 -2q2 0 4.5 3.5t5.5 3.5l2 -3q2 -2 2 -4q13 0 34.5 5.5t29.5 5.5q7 0 18.5 -4t16.5 -5q16 0 18 -2q1 0 4.5 -4t5.5 -4h4l2 8l2 2q9 0 16.5 -12.5t12.5 -13.5v16l6 -16h2q1 0 11 10q9 -7 8.5 -29t7.5 -32l2 20q12 -16 8 -49l10 12v-90q4 -7 5 -15.5 t0 -22t-1 -15.5q0 -38 2 -146t1 -167h2l12 16v70l4 -54l6 2q111 186 170 353q0 13 14 41q1 3 6.5 20t11.5 32t13.5 32t16.5 27.5t18 10.5q5 0 33 -6.5t28 -9.5h19q7 0 22.5 6t22.5 6q12 -2 23.5 -21t21.5 -20q-19 -45 -33 -106v-4q0 -1 -2 -4t-2 -4v-9q7 3 11.5 22.5 t11.5 22.5v-8q0 -2 -3.5 -11.5t-3.5 -10.5q-11 -43 -36 -105q-3 -9 -29 -60t-29 -58q0 -7 -6 -13q-8 -11 -35.5 -59.5t-36.5 -67.5q-10 -9 -19.5 -31t-16.5 -30q-3 -4 -9.5 -6.5t-9.5 -5.5l-29 -52v-2q0 -14 15.5 -39t25.5 -32v8q0 7 -10.5 22t-9.5 25v2q6 -6 6 -8 q126 -176 207 -367l5 -10t7.5 -16.5t3.5 -12.5v-2q-11 9 -25 38.5t-26 35.5q-1 -7 8 -25t22.5 -41t16.5 -28q0 -1 -1 -2t-1 -2l-4 -2q0 -19 23.5 -49t23.5 -50q-4 0 -8 4t-8 10.5t-6 8.5v-6q-1 -8 2.5 -17.5t9.5 -20.5t8 -16q2 -10 2 -53v-35q-2 -7 -8.5 -14.5t-13.5 -7.5 q-9 6 -9 8q-2 -2 -2 -4l2 -6v-6q-17 -17 -22 -37q-3 1 -6.5 7.5t-3.5 8.5l-19 -26q-2 5 -5 6.5t-10 0.5t-9 -1v-6h-2q-2 0 -10 7.5t-11 14.5q-2 4 -4 6q-6 17 -31 58.5t-32 58.5zM698 434q0 -7 10.5 -25t18.5 -24v2q0 11 -10 26.5t-19 22.5v-2zM379 1038q4 -7 5 -16t0 -22.5 t-1 -14.5l-2 -22l-2 -5v80zM809 1290v-2l-12 -24v6q0 15 12 20zM639 537l10 -17l2 2q0 15 -10 15h-2zM758 307v-4q0 -4 8 -12v4q0 7 -8 12zM627 571q0 -7 6 -16v2q0 10 -6 16v-2zM711 4q-3 0 -4 -2t0 -4t4 -2q1 0 1 4t-1 4zM584 651v-10l6 -2q0 9 -6 12zM770 291q-3 0 -3 -4 t3 -4t4 2t0 4t-4 2zM229 168q-3 0 -3 -5t3 -5q5 0 5 5t-5 5zM600 623q-3 0 -3 -4.5t3 -4.5t3 4.5t-3 4.5zM322 209q-3 0 -3 -3t3 -3q4 -1 4 2.5t-4 3.5zM676 481q-2 1 -3 -2q-1 -6 3 -8q2 0 2 5t-2 5zM592 635q-2 0 -2.5 -4t2.5 -4t3.5 4t-3.5 4zM682 461l8 -4v4 q-1 0 -3.5 2t-4.5 2v-4zM389 471q3 0 3 -4t-3 -4q-1 0 -1 4t1 4zM811 1307q3 0 3 -4.5t-3 -4.5q-1 0 -1 4.5t1 4.5zM272 207v-4h7v4h-7zM362 358q-3 3 -3 -2q1 -3 3 -4q2 2 2 4t-2 2zM387 518l2 -22h-2v22zM608 606v-8h4zM188 57q-3 0 -3 -2t3 -2q2 0 2 2t-2 2zM764 18 q-3 0 -3 -3t3 -1v4zM578 657l4 -4v4h-4zM195 39q1 0 1 -2t-1 -2l-1 4h1zM381 934q0 -2 -2 -2t-2 2t2 2t2 -2zM154 580h-2h2zM381 944v-2v2z" />
<glyph unicode="L" horiz-adv-x="724" d="M242 31q-22 0 -46.5 8.5t-27.5 26.5q-23 7 -43.5 48.5t-26.5 73.5q-9 97 -13.5 277.5t-6.5 222.5q0 9 -5 94t-5 95q0 1 1 20t1.5 33t-0.5 22q0 6 -1 64.5t-1 64.5l-21 287q-8 18 -4 47l2 17l6 8q7 -1 28.5 -0.5t29.5 2.5l8 8h4q0 -1 2 -6t2 -6q2 5 7.5 6.5t15.5 0.5 l10 -1q4 1 19 10.5t22 9.5l2 -2v-6q1 -3 19.5 -7.5t21.5 -2.5q2 0 10 8h2q10 0 20 -5.5t9 -14.5q7 10 24 10q27 -3 38.5 -14t12.5 -37l19 -207q-1 -10 4 -56q-1 -62 4 -226t0 -216l6 -8q4 -80 4 -113q0 -46 2 -71q1 -7 4 -71.5t7 -104.5t8 -56l4 4l12 4q0 -20 6 -20 q26 -1 109.5 31.5t107.5 35.5l9 3q2 2 6 2.5t6 -0.5h6l2 -2q-1 -10 -13.5 -24t-31.5 -30t-21 -18q-14 -10 -81 -66.5t-74 -62.5q-43 -30 -144 -76q-8 -1 -34.5 -7.5t-42.5 -6.5zM414 500q2 -6 1.5 -27t-3.5 -27l1 49zM412 547l2 -21l-4 -2zM399 967q3 0 3 -4.5t-3 -4.5 q-5 0 -3 8q1 2 3 1zM399 987q3 0 3 -4t-3 -4q-4 0 -3 6q1 3 3 2zM399 954q3 0 3 -4t-3 -4q-4 2 -3 7q1 2 3 1zM406 682q3 0 4 -2t0 -4t-4 -2q-2 0 -2 4t2 4zM397 1069q3 -1 4 -3t0 -3.5t-4 -1.5q-1 0 -1 4t1 4zM424 254q0 -1 -1 -4q1 -5 3 -6v6l-2 10v-6zM90 965l-1 -7l1 -2 q3 2 3 5t-3 4zM410 618q3 -3 0 -6q-3 0 -3 3t3 3zM158 322q-1 -1 0 -9l1 2q1 5 -1 7zM289 109v-3h4v3h-4z" />
<glyph unicode="M" horiz-adv-x="1148" d="M137 10q-6 0 -6 -12h-2q-2 3 -9.5 8t-8.5 8v-12h-5q0 3 -3.5 15t-6.5 12q-4 0 -10 -6q0 1 -2 9t-2 9q-31 381 -31 737q0 272 -2 326q0 3 -4 28t-4 27q0 5 2 38t2 36q0 14 7 39t16 26q9 2 12.5 -0.5t5 -8t4.5 -7.5l12 27l4 4q2 -8 17 -8q11 0 36.5 14t37.5 14h2 q1 0 10.5 -2t11.5 -2q8 6 10 6h2q40 0 43 -6q1 -1 2.5 -4t2.5 -5.5t2 -2.5h10q2 0 6 -3.5t4 -4.5q20 -13 29 -27q6 3 16.5 -14t13.5 -17h3q0 1 -1.5 4.5t-1.5 4.5l-24 34v9q14 -11 25.5 -29t24 -41.5t18.5 -32.5q9 -17 38 -66t43 -77q13 -21 32.5 -64t25.5 -55l4 8 q8 20 20.5 54.5t23.5 63t23 54.5q5 8 14.5 26.5t17 31.5t9.5 14l2 6v-6q-41 -92 -57 -121q-4 -10 -18 -40t-21.5 -52.5t-7.5 -42.5v-6l10 14q2 7 15 43.5t16 40.5q3 10 26 59t25 56q18 22 49 74.5t54 78.5q12 14 6 43v2q12 16 32 21t47 6t39 4l5 4q8 4 14 4q4 0 12 -4 l16.5 -5.5t9.5 -2t5.5 -3t5 -7.5t6.5 -17q0 -1 1 -2t1 -2h4l2 4v27q11 -4 31.5 -75t26.5 -74v12q17 -5 24 -72v-4q0 -4 5.5 -35t5.5 -35l10 -71l6 -21q21 -196 18 -444l9 10q-4 -131 4 -221q0 -4 4 -39t4 -39v-22q0 -89 -12 -101l-2 1q-3 0 -5 0.5t-5 0.5t-4.5 -1.5 t-2.5 -4.5q-4 -4 -4 -25q-5 4 -11 -2.5t-10.5 -16.5t-5.5 -11q-2 -4 -11 -13t-13 -10q-4 2 -29 -10.5t-26 -19.5q-66 3 -91 43t-32 112q-1 14 -4 46.5t-6 58.5t-3 28v334l4 4l-4 2q-6 132 -10 185v30q-1 4 -5.5 47.5t-6.5 55.5q0 4 -1 22.5t-2.5 34t-3.5 34t-5 30.5t-7 14 l-12 -23q-7 -18 -26 -59.5t-33 -76.5t-21 -62q-2 -6 -13 -58t-13 -57q-3 -12 -10.5 -35.5t-11 -41.5t-3.5 -36h-2q0 -11 4 -33t4 -34q0 -6 -0.5 -10t-2.5 -7t-3 -4t-6 -5t-6 -5q-4 -3 -8.5 -12.5t-8.5 -12.5l-8 -2h-14q-2 -1 -6 -10.5t-15 -9.5q-5 0 -10 2.5t-11 7t-9 6.5 q-23 14 -53.5 51.5t-30.5 59.5l-123 260q0 4 -2 4v-67q0 -93 6 -282t6 -282v-73q1 -8 -3 -13t-11 -10.5t-11 -11.5l-2 -17q-5 -15 -22.5 -29.5t-20.5 -39.5l-8 8h-4q0 -2 -1 -8.5t-1 -7.5q-9 0 -14 -5q-4 -12 -6 -14q-2 -3 -10.5 -6t-8.5 -10q-15 6 -24 -4.5t-17 -10.5h-2 l-8 5q-2 0 -3 -6t-3 -7q-8 0 -12 -4q-3 -8 -5 -10h-4zM66 506q0 -48 10 -133l4 4l-8 155l-4 -2q-2 0 -2 -24zM66 641q0 -84 6 -98v151l-4 8q-2 -8 -2 -61zM76 346v-8q0 -4 2 -32t2 -32l2 7v4q0 53 -2 61h-4zM350 778q2 -11 2 -48.5t-2 -47.5l-1 80zM354 575q2 -11 2 -44.5 t-2 -43.5l-1 75zM709 1278v-4l-19 -31l-6 -6q19 37 25 41zM358 457q2 -5 2 -21t-2 -22l-1 37zM831 145v2l5 5q1 -1 2 -10t2 -11v-2h-4q-3 10 -5 16zM1022 1159v-14h6v14h-6zM1012 1268q4 -16 4 -27h-4v27zM1083 543q-3 0 -3 -5.5t3 -5.5q5 0 5 5.5t-5 5.5zM561 543 q-5 0 -5 -5.5t5 -5.5q3 0 3 5.5t-3 5.5zM831 172q3 -3 3 -8.5t-3 -7.5l-1 13zM1047 672l-1 -22l1 -5q1 3 1 13t-1 14zM1026 1077q0 -8 4 -8v14q-4 -2 -4 -6zM82 532v-16q4 0 4 2q0 10 -4 14zM66 844q-2 1 -2 -3q-3 -12 2 -14v17zM1059 236q-5 0 -5 -4.5t5 -4.5q1 0 1 4.5 t-1 4.5zM399 1057q-3 0 -3 -3t3 -3q5 0 5 3t-5 3zM369 1247q-3 0 -3 -3t3 -3q5 0 5 3t-5 3zM1008 84q-3 0 -3 -4t3 -4t3 4t-3 4zM1030 1124q-4 0 -4 -10h4v10zM381 1227q-1 0 -1 -5t1 -5q3 0 3 5t-3 5zM535 924v-13h4v7q-4 4 -4 6zM1016 1210l-1 -13l1 -1q2 2 2 7t-2 7z M350 659q2 -1 2 -7t-2 -7l-1 13zM217 166q-3 0 -3 -3t3 -3t3 3t-3 3zM729 1309q3 0 3 -3t-3 -3t-3 3t3 3zM827 209q3 0 3 -3t-3 -3t-3 3t3 3zM358 475q3 0 3 -3t-3 -3t-3 3t3 3zM63 752q0 -6 5 -9v5q0 6 -2 6q-3 0 -3 -2zM350 635h4l-4 -14v14zM1047 526q-3 0 -3 -4t3 -4 q1 0 1 4t-1 4zM1047 500q-3 0 -3 -4t3 -4q1 0 1 4t-1 4zM1034 1100q-4 4 -4 6v-10h4v4zM1028 1038q-3 0 -3 -4t3 -4q4 4 0 8zM350 799q3 0 3 -4t-3 -4q-2 0 -2 4t2 4zM674 1229q3 0 3 -4t-3 -4q-2 0 -2 4t2 4zM1030 737q-2 0 -2 -4t2 -4q3 0 3 4t-3 4zM350 821q3 0 3 -4 t-3 -4q-2 0 -2 4t2 4zM350 676q3 0 3 -4t-3 -4q-2 0 -2 4t2 4zM68 725q-5 0 -5 -8h5v8zM111 532q-3 0 -3 -3t3 -3q1 0 1 3t-1 3zM1047 403q-3 0 -3 -3t3 -3q1 0 1 3t-1 3zM1104 342q2 0 2 -3t-2 -3q-3 0 -3 3t3 3zM201 250q-1 0 -1 -3t1 -3q3 0 3 3t-3 3zM408 1176 q-2 0 -2 -3.5t2 -3.5q3 0 3 3.5t-3 3.5zM350 610q4 -2 4 -6h-4v6zM823 223q1 -1 1 -7t-1 -7v14zM1047 573q-1 0 -1 -5t1 -5q1 1 1 5t-1 5zM156 76v-4h4v4h-4zM1028 1139q-3 0 -3 -2.5t3 -1.5q2 0 2 2t-2 2zM1018 1184q-2 0 -2 -2t2 -2q3 0 3 2t-3 2zM928 301q0 -4 4 -4v4 l-4 2v-2zM1053 115l6 -4v4h-6zM276 336l7 -4v4h-7zM66 887q-3 0 -3 -2.5t3 -1.5v4zM721 1294q0 -3 -2 -4q-3 0 -1.5 3t3.5 1zM1106 301q2 -1 2 -6t-2 -6v12zM66 795v-11l2 7zM1047 543q-1 0 -1 -3t1 -3q3 3 0 6zM905 430l-4 -2h4l4 2h-4zM260 98v-4h2v4h-2zM350 836 q2 0 2 -2.5t-2 -2.5t-2 2.5t2 2.5zM1047 428q-1 0 -1 -2t1 -2t1 2t-1 2zM205 836q0 2 -2 2t-2 -2t2 -2t2 2zM76 358q-2 0 -2 -2t2 -2q4 0 0 4zM416 846v-2v2zM827 193q1 0 1 -1.5t-1 -1.5q-2 0 0 3zM66 770v-2h2z" />
<glyph unicode="N" horiz-adv-x="997" d="M123 20l-4 3q-6 -6 -6 -9q4 -4 4 -8q-3 1 -5.5 3t-3.5 4t-2.5 6t-3.5 6h-2q-6 -7 -4 -9l-16 15l-17 51l-4 6l-4 21l8 2q0 35 -4 51q-10 215 -10 401q0 21 2 25q2 8 2 48.5t1.5 75.5t4.5 36q-4 19 1 54.5t3 49.5v469q-5 33 13 33q5 0 8 -9.5t8 -9.5t9.5 9.5t9.5 9.5l4 -2 l8 -4q1 0 8 1t8 1h2q4 0 14.5 -2t14.5 -2q5 0 13.5 4t13.5 4q27 0 45 -11q1 0 5 -3t5 -3l2 -2q3 0 7 3t7 3h2l17 -16l4 -49q4 -1 6.5 0t4 4t2 5t1 7.5t0.5 7.5h2q10 -35 33 -45h18q8 -8 9 -8l6 4q2 2 16 2h2q8 0 14.5 -8.5t10.5 -11.5q1 1 1.5 4.5t1.5 5.5t3 2q9 0 49 -20 q0 -9 19.5 -54t25.5 -45q4 0 8 4l-8 -16q2 -2 6 -2h8l13 -29q11 -21 28 -65.5t29 -65.5q0 -1 11 -18t12 -21l61 -131q7 -14 10 -14h4l9 68q0 2 1 6.5t1 5.5l22 184l1 4q2 5 1 6q2 15 4.5 45.5t6 54.5t8.5 44q2 4 6.5 30t12 43t20.5 9l-9 18l4 8v21q2 0 8 -2t9 -2 q-2 19 3.5 49.5t6.5 42.5q4 -8 22 -14.5t25 -4.5q5 -11 30.5 -18.5t39.5 -7.5q18 -29 22 -82q2 -6 2 -27q0 -12 -5.5 -49.5t-8.5 -46.5v-8q0 -3 3.5 -7t4.5 -8v-6l-14 -141q-17 -37 -8 -113h4l10 80l8 19v-6l-33 -453l11 -90q-5 0 -4.5 -12t0.5 -13q-1 -12 -3 -47t-2 -47.5 t1 -48.5q2 -10 14.5 -32.5t13.5 -37.5q2 -12 -1 -25t-15 -10q-6 5 -6 7q-9 -7 -13 -19t-8 -16h-8q-9 -3 -21 -11t-23 -12.5t-26 -1.5q-3 -5 -25.5 -9.5t-33.5 -4.5q-16 1 -37.5 27.5t-26.5 29.5l-90 158q-5 19 -41 76l-2 4l-123 276l-2 15l-84 186l-2 6q0 2 -4 2v-2 l-10 -119q3 -21 3.5 -26.5t-2 -22.5t-3.5 -28q-6 -116 -2 -439q-6 -24 -6 -53q-8 4 -8 -2l-21 -78q-20 4 -25.5 -5t-7.5 -32q-2 3 -6 15t-8 14q-4 -2 -5.5 -8t-1.5 -13.5t-1 -9.5q-8 -14 -32.5 -26t-41.5 -11h-10q-1 0 -5 2t-5 2q-2 -2 -2 -4q0 -1 -2 -4.5t-2.5 -4.5 t-2.5 -3.5t-5 -3t-7 -0.5h-2q-1 2 -3.5 5.5t-4.5 6.5t-2 4v6zM45 184q3 -4 4.5 -15.5t-0.5 -14.5l-3 8zM492 1190l2 2q2 -1 4 -4l2 -4v-4q-6 6 -8 6v4zM49 141q2 -3 2.5 -14t-0.5 -16zM950 1159q7 -2 4 -6q-1 -1 -4 0q-3 0 -3 3t3 3zM915 678q-3 0 -3 -4t3 -4t3 4t-3 4z M43 264q2 -2 2 -16q-3 2 -2 16zM946 993q5 -9 2 -12l-2 5q-2 7 0 7zM856 1274l-2 -2q-4 -4 -6 -4v-4l10 8zM889 129l2 -4h8l-6 4h-4zM768 1217v-9h2v9h-2zM922 858v-4h4v4h-4zM98 47l-6 -4h8zM770 1196q0 3 -3 3t-1 -3q0 -4 4 0zM831 1335q0 3 -2.5 3t-1.5 -3q0 -4 4 0z M924 836q0 2 -2 2t-2 -2q4 -8 4 0zM940 590q2 0 2 -3t-2 -3l-2 3zM899 1300l4 -4v4h-4z" />
<glyph unicode="O" horiz-adv-x="956" d="M897 901v-6q0 -6 4 -6q2 0 6 12q4 -18 8 -29q-4 -62 -10 -94q-3 -13 -13.5 -84.5t-26 -141t-40.5 -126.5q-3 -7 -29.5 -66.5t-31.5 -72.5v-15l-55 -79q-45 -67 -147 -100.5t-200 -33.5q-49 0 -96.5 28.5t-83.5 73.5t-62.5 93t-41.5 94q-37 112 -37 252q0 135 45 338 q12 10 12 37q20 71 44 136.5t57 136.5t74.5 114t82.5 43q17 0 52.5 -4t74.5 -4q3 -8 36 -15.5t34 -15.5l-6 -2q0 -12 26 -12h15q77 -33 98 -45q54 -26 115 -95.5t59 -101.5l-8 4q-1 -4 1.5 -6t4.5 -2h4q12 -16 18 -43.5t12 -74.5t11 -75q-6 -2 -6 -12zM618 547v-6l3 2 l-17 -29q0 -1 1 -2t1 -2q-4 0 -4 16l25 64q8 5 8 14q0 12 8 18t8 9q0 19 9.5 38t9.5 33q16 72 16 117q0 3 -4 7.5t-4 7.5q0 2 4 12t4 12q0 52 -1 83t-5.5 74t-15 71t-27.5 60t-45 57t-66 46q-47 31 -67 31q-6 0 -52.5 -85t-46.5 -99q12 0 17 16v-8h4q1 0 3.5 5.5t2.5 8.5 l-4 6q5 9 12 9q0 -11 -7 -30.5t-7 -21.5q-43 -99 -43 -161q0 -15 6 -30.5t6 -17.5q-3 -1 -13 -73.5t-13 -112.5q0 -4 -1 -30t-1.5 -49t1 -45t5.5 -25l-1 -8q-1 -8 -1 -13q0 -13 3.5 -31.5t6.5 -31t9.5 -35.5t8.5 -29q5 -24 34.5 -85.5t45.5 -61.5q6 2 6 4v-8h4q6 6 24.5 19 t30 25.5t13.5 26.5q3 15 15 40.5t16 25.5l4 -2q-15 -30 -15 -51q12 9 43.5 74.5t34.5 86.5l-28 -47l24 66q2 0 3.5 -2t2.5 -2q4 0 13.5 30.5t11.5 44.5l-14 -26h-5zM874 903q3 -6 11 -6q0 47 -8.5 124t-24.5 77l-4 -2q26 -84 26 -193zM895 805l2 -4q8 -6 12 60v11l-4 5 q-2 0 -4.5 -11t-4 -28t-1.5 -33zM547 373q7 17 35 63q-27 -63 -35 -63zM651 616q-5 0 -7.5 -7.5t-2.5 -14.5v-8q10 4 10 30zM362 1083h-4l-6 -12q-7 -12 -6 -14q16 0 16 26zM596 506q1 -3 -1 -9.5t-5 -15t-4 -12.5q-2 4 -2 6q0 6 5.5 17.5t6.5 13.5zM860 1157q8 -16 8 -27 q-1 0 -2.5 4l-3 8t-2.5 5v10zM662 698q0 -12 -7 -14q0 9 7 14zM348 1047q-10 0 -10 -9q10 0 10 9zM367 1069q-5 0 -5 -4t5 -4q2 2 2 4zM874 1114q3 0 3 -4t-3 -4q-2 0 -2 4t2 4zM903 913h4v-12zM883 702v-4h4v4h-4zM815 1231l2 -2l-2 -2q-4 0 -4 2q2 2 4 2zM879 1104 q0 -1 1 -2t1 -2q0 -9 -2 -1v6v-1zM301 899l-2 2l-2 -2l2 -2q2 0 2 2zM526 309l-6 -2l2 -2zM66 424v2l-3 -2v-4q3 0 3 4zM870 1124q2 -2 2 -4l-2 -2v6zM834 913l-3 2l-2 -2h5zM369 1083v-2l4 2h-4zM895 782v-4h2zM623 547l-2 -4q2 2 2 4z" />
<glyph unicode="P" horiz-adv-x="811" d="M141 106q0 1 1 9.5t1 9.5q5 -68 15 -96v28l-27 271v14l-27 287v6q-8 77 -21.5 230t-21.5 227q-2 20 -7 56t-8 66t-3 56q0 1 -0.5 15t0 22t2.5 19t8 16.5t15 5.5q4 0 8 -4.5t8 -4.5h2q17 17 37 17q5 0 12 -3t12 -3q8 0 109 63q17 9 78 14h69q13 1 38.5 6t41.5 5 q44 0 103 -16t96 -40q37 -26 80 -114q4 -10 4.5 -30t3.5 -28q-8 -151 -39 -221q-2 -7 -17.5 -36t-17.5 -33l-30 -50q-2 -4 -5.5 -7t-5 -4.5t-3 -4.5t-1.5 -8l-114 -117q-11 -8 -33.5 -24.5t-36 -26t-33.5 -21.5t-39 -20q-4 -4 -4 -23v-2q0 -22 4.5 -74t3.5 -81q4 -4 4 -13 q0 -57 -3.5 -163.5t-4.5 -139.5q0 -2 -2 -15.5t-2 -14.5q-1 -2 -0.5 -6.5t-0.5 -7.5t-5 -3h-2l-4 6l-14 113q-5 -5 -5 -10q0 -27 6.5 -79t6.5 -79l-8 -8q-7 5 -7 20h-6q-4 -7 -4 -34h-6q0 -2 -1.5 -9.5t-2 -10.5t-3 -9t-5 -8.5t-7 -6t-10.5 -4.5q-3 -1 -15.5 -10.5 t-25.5 -7.5q-2 0 -4 2.5t-2 3.5v-6q0 -1 1 -6t1 -6q-8 6 -14 -4.5t-10 -10.5q-2 0 -4 2t-4 2q-9 0 -13 -4h2q-7 2 -10.5 4t-4.5 4t-5 6t-10 9q-11 2 -11 4q-4 10 -6 10q-2 3 -7 11t-7.5 12.5t-5.5 11t-4.5 12.5t-1.5 13q-1 3 -5 28.5t-4 30.5l-1 8q-1 8 -1 12zM365 872 q-2 -16 5 -40t7 -37h2q23 18 31 26q4 0 4 4q4 0 4 6l43 58l26 43l5 6q15 68 16 82q2 10 11.5 34.5t12.5 32.5q13 71 13 99q0 6 -1.5 15t-3.5 18.5t-3 13.5q-8 39 -18.5 55t-41.5 29q-39 16 -78 16q-84 0 -143 -69v-7q4 -12 4 -36q6 -4 11.5 -16.5t11.5 -18.5v28q5 0 5.5 -6 t-1.5 -8l10 2q5 -26 14 -70t16 -80.5t11 -70.5q1 -7 2 -33t6 -37v27l14 -49l-4 -4l2 -2q0 -4 7 -11zM352 342l-1 -31l1 -6q3 3 3 18.5t-3 18.5zM344 885q0 -19 4 -29v33l-4 4v-8zM352 295l6 -29v31zM164 1376l2 -2q-2 -6 -4 -8h-4l4 8zM285 1165q-3 0 -3 -5t3 -5q1 0 1 5 t-1 5zM272 1229q3 0 3 -4t-3 -4t-3 4t3 4zM250 1360q-3 0 -3 -4t3 -4t3 4t-3 4zM348 377q-3 0 -3 -4t3 -4t3 4t-3 4zM162 18q-3 0 -3 -4t3 -4t3 4t-3 4zM250 -29q-3 0 -3 -3t3 -3t3 3t-3 3zM471 805q-3 0 -3 -3t3 -3t3 3t-3 3zM266 1206q-3 0 -3 -2t3 -2q2 0 2 2t-2 2z M348 84l-1 -4h1q8 0 0 4zM344 399l4 -6v6h-4zM223 1401l-8 -4l4 4h4zM215 -55l4 -4v4h-4zM147 1362v-2q-3 0 -3 1t3 1zM713 1073l-1 -4h1q4 0 0 4zM180 1386v-4h-2zM387 86v-2v2z" />
<glyph unicode="Q" horiz-adv-x="989" d="M387 1440l-2 -2q2 1 16.5 8.5t22.5 11.5l47 17q24 -3 91 -9t102 -12q3 -1 13 -3.5t19.5 -4.5t14.5 -2q14 6 20 6q12 0 47 -20q76 -34 115 -130q4 -12 9.5 -35.5t12.5 -39.5l17 -148q0 -4 -2 -46t-2 -46v-10q0 -11 4 -19q6 11 8 39.5t2 54.5t-1 63.5t-1 49.5h4 q4 -27 4 -37v-47q0 -18 -2 -56t-2 -58q4 -7 4 -9v-4q-7 -40 -18 -160t-29 -184q-36 -120 -65 -229q-2 -5 -10 -24t-15.5 -35.5t-7.5 -18.5v-2q8 -13 8 -20v-3q0 -3 -2 -9t-2 -9q0 -8 5.5 -18t6.5 -15q-2 -6 -4 -6v-2q0 -7 24.5 -41t24.5 -51q0 -14 -11 -25t-13 -18 q0 -1 3 -5.5t3 -6.5h-17q0 -9 -6.5 -23.5t-7.5 -19.5q-5 5 -10 6.5t-12.5 1.5t-14.5 2q-14 6 -46 48t-42 42h-4q-63 -74 -164 -107q-12 -4 -52.5 -18.5t-68 -20.5t-57.5 -6q-60 0 -109 25t-81 69t-55 96.5t-35 114.5t-17.5 115.5t-5.5 106.5v26q1 8 6 73.5t7.5 92t9 75 t14.5 83.5q6 43 39.5 148.5t36.5 115.5l55 121q11 5 47 67t66 87l24 16q6 4 18 14t19 15q-2 2 -2 4l2 2zM334 483q0 -40 13.5 -112.5t43 -140.5t64.5 -68q21 0 60.5 52t39.5 75v4.5t-1 0.5t-3 2.5t-4 6.5l-37 62q-11 17 -36.5 57t-38.5 61.5t-29 55.5t-25 65v4q0 8 14 8 q3 0 15 -4l43 13q2 0 6.5 -2t7.5 -2t7 2t7 2l8 -4q2 1 12 7.5t13 6.5q10 -4 12 -4h4q9 0 9 4q10 -7 18 -10t11 -3.5t8.5 -7t15.5 -22.5q2 -4 4 -4q2 6 2 22v11q7 -10 21 -37t24 -41h2q2 0 4 -2t4 -2l11 26q0 23 4 27q48 222 51 244v6q0 34 9 111t9 116q0 48 -13.5 134 t-33.5 104q-53 44 -72.5 55.5t-48.5 11.5q-30 0 -77 -71l-9 -13l-26 -41v-6h8q0 -8 -19 -49t-32 -59l-17 -41q-53 -216 -68 -321q-4 -27 -7 -54h8v-10q0 -21 -4 -29v-156l4 -37zM451 1229q-8 -5 -16.5 -16t-8.5 -19h4q12 23 21 35zM395 1135l-8 -19h2q8 0 8 19h-2zM799 283 q-4 0 -4 -4q0 -2 3.5 -5.5t4.5 -3.5q2 0 2 4q0 5 -2 5h-2q0 4 -2 4zM676 680v-4q0 -8 -4 -12v4q0 8 4 12zM180 195q-4 0 -4 -5q0 -4 4 -4t4 4q0 5 -4 5zM334 752v-13h-4v4zM686 748q2 0 2 -5q0 -4 -2 -4q-4 0 -4 4q0 5 4 5zM326 295q-4 0 -4 -4t4 -4q2 0 2 4t-2 4zM731 1290 q-4 0 -4 -4t4 -4q2 0 2 4t-2 4zM848 106q-4 0 -4 -4t4 -4q2 0 2 4t-2 4zM238 270q-5 0 -5 -4t5 -4q2 0 2 4t-2 4zM924 926q-2 0 -2 -6q0 -5 2 -5q2 3 2 5q0 1 -1 3t-1 3zM911 860q-2 0 -2 -4t2 -4t2 4t-2 4zM322 705q-3 0 -3 -5q0 -4 3 -4q2 2 2 4q0 1 -1 2.5t-1 2.5z M326 475v-4h4v4h-4zM682 719q2 -2 2 -6l-2 -4v10zM788 51q-4 0 -4 -4h7q0 1 -1.5 2t-1.5 2zM338 772l2 -2l-2 -2h-2q0 4 2 4zM760 733q-2 0 -2 -4h2q2 0 2 2zM414 1169l-4 -6l4 2v4zM827 215l4 -4h-4v4z" />
<glyph unicode="R" horiz-adv-x="831" d="M88 266q-2 10 -2 31l-12 313q4 62 -2 179t-6 131q-2 24 -2 69.5t-1 61.5q0 12 -1.5 30.5t-0.5 32.5l-18 215v29q0 43 4 51h6q3 0 7 -5t3 -9q21 14 25 14h2q8 -8 16 -8q1 0 4 3t3 5h6l2 -4q18 -1 55 17.5t41 19.5q14 7 31.5 13t29.5 9.5t33.5 8.5t32.5 8l6 2h29 q15 0 40.5 -4.5t35.5 -5.5q13 -1 42 -3.5t41 -4.5t34 -6t40 -10.5t39 -16.5q6 -3 21 -11t21.5 -11.5t16.5 -11t16 -15.5t11 -19q4 4 8 4q7 0 16.5 -21t18 -46t11.5 -29v-45q-3 -15 -3 -43q-1 -2 -3.5 -16t-5.5 -32.5t-5 -25.5q-1 -4 -2.5 -7.5t-1.5 -4.5t2 -6l-55 -129 q-11 -19 -17 -25q-28 -50 -45 -70q-8 0 -8 -2l-22 -30h-4q-14 -5 -39.5 -35t-28.5 -33q-5 -5 -25.5 -17t-34.5 -24.5t-14 -24.5q2 -2 4 0l6 5l11 -13q10 -14 30.5 -36.5t28.5 -32.5q73 -104 146 -246q57 -94 55 -150q0 -22 -15.5 -32.5t-37.5 -10.5l-2 -20h-9v-14h-4 q-1 0 -7 2t-7 2l-8 -2h-8q-25 37 -86 121.5t-93 130.5q-22 32 -34 61l-5 2q-3 5 -29 42.5t-42 57.5q-2 4 -4 4h-2q0 -24 1.5 -95t0.5 -111l1 -16q0 -16 -0.5 -25t-3 -21t-8.5 -18v-64l-4 -4q-1 -17 -9.5 -39t-10.5 -33q-6 9 -8 31.5t-7 30.5l-2 -62q0 -1 -7 -12.5t-7 -13.5 l-10 8q-2 -19 -23.5 -41t-40.5 -22q-6 2 -8 4q0 -8 -24 -16.5t-33 -8.5q-3 0 -7.5 3t-17.5 3q0 -2 1.5 -5t-1.5 -4l-2 -1q-3 8 -16 28t-15 31q-22 47 -18 156v10zM340 1155l8 -31q0 -1 2 -43.5t4.5 -98t3.5 -83.5q0 -1 -0.5 -8.5t-0.5 -15.5v-15.5t1 -9.5v-31q16 12 32 30 t34.5 42t26.5 33q3 16 12 32.5t23 35.5t20 30q2 5 16.5 31.5t16.5 31.5q0 2 3 17.5t3 17.5q4 6 6 8q0 3 9 39t9 43q2 19 2 25q0 49 -2 76q-4 27 -58 50t-85 25q-59 0 -147 -43q-15 -7 -15 -14q0 -5 4 -11.5t8 -6.5q8 0 13 10q0 -7 6.5 -33.5t9.5 -34.5q2 -5 5.5 -32.5 t7 -52.5t4.5 -25v61l4 -6q4 -12 4 -35zM768 1300q-3 -9 2 -14l2 4q0 11 -4 15v-5zM735 1061q-2 0 -3 -2.5t-0.5 -5t1.5 -2.5q6 0 6 6q-1 4 -4 4zM317 240v-19h5q0 1 -1.5 7.5t-1.5 7.5q0 4 -2 4zM760 1321q0 -10 4 -10v4q0 6 -2 10zM317 256q-3 0 -3 -5t3 -5q1 0 1 5t-1 5z M276 1325q2 0 2 -4t-2 -4q-3 0 -3 4t3 4zM709 166q1 0 1 -4t-1 -4q-3 0 -3 4t3 4zM487 702q-3 0 -3 -4t3 -4q1 0 1 4t-1 4zM315 305q-2 1 -3 -2q-1 -6 3 -6q1 0 1 3.5t-1 4.5zM311 354l-1 -3q0 -5 1 -5q3 0 3 4t-3 4zM291 324q-1 0 -1 -3.5t1 -3.5q4 0 4 3q-1 3 -4 4z M299 156q-1 0 -1 -4.5t1 -4.5q3 0 3 4.5t-3 4.5zM338 1186q2 0 2 -3t-2 -3q-3 0 -3 3t3 3zM627 485l-1 -4h1q3 0 3 2t-3 2zM442 928q1 -3 0 -4q-1 2 -2 2q-3 0 -1.5 2t3.5 0zM104 272v-6h5zM328 362q-2 0 -2 -3t2 -3q3 3 0 6zM344 209v-2h4v2h-4zM281 842q0 3 -2 4v-2 q0 -4 2 -2zM541 860q0 2 -2 2t-2 -2t2 -2t2 2zM352 330q-2 2 -2 -1t2 -3q4 0 0 4zM362 367q-3 0 -3 -1t3 -1v2z" />
<glyph unicode="S" horiz-adv-x="755" d="M41 369q0 1 3.5 4.5t4.5 3.5h2q1 0 7.5 -7.5t7.5 -7.5q4 7 14 7q6 0 8 -2q0 6 4 6h2q3 0 9 -7t10 -8h6l14 15v-11l8 5q-3 -5 1.5 -7t9.5 -2q0 3 3 11.5t1 15.5q14 0 30 8h2q5 0 9 -1.5t7.5 -5t5 -6t4 -7.5t3.5 -6q3 -4 7 -5t11 0t11 0q0 -4 2 -4l26 -49q3 -4 5 -4v6 q-7 28 -17 43h4q4 0 4 -4q23 -65 62 -133q2 -5 12 -11.5t10 -10.5v-2l-6 4v-4q4 -9 6 -11l4 -4v12q17 -16 21 -24h2v14q5 0 7.5 -7t6.5 -7t7.5 3t6.5 8t4.5 9.5l3.5 10.5t3 8q18 53 18 119q0 122 -53 223l-6 9t-7 7t-10 10q-15 12 -75 91q-15 15 -17 16q-12 10 -25 25 t-31 36.5t-24 28.5q-64 78 -91 147t-27 166q0 45 8.5 100t28.5 116.5t48.5 112t73.5 83.5t99 33q8 0 23 -4t24 -4h4q2 0 21.5 3t21.5 3q21 0 38.5 -8t28 -18t20.5 -30t14.5 -32.5t12.5 -37.5t11 -34q2 -6 7 -16.5t7 -16t4 -15t2 -20.5v-4l-4 -4q-2 -8 -2 -15.5t0.5 -10 t-1.5 -5t-5 -4t-12 -4.5h-2q-6 -2 -28 -16t-30 -14q-18 0 -22 12v-16h-6q-3 10 -8 20.5t-12.5 22t-10.5 18.5q-2 5 -10 48t-18.5 74.5t-22.5 31.5q-11 0 -21 -10t-10 -21q0 -6 4 -8q-9 -6 -15.5 -31t-15.5 -27v-18l-24 -96v-41q8 -4 8 -11l8 21q0 2 2 2l2 -2q4 -2 4 -4v-64 l2 -8l9 -98q3 -4 6 -20.5t10 -18.5v14q3 0 23 -59h4l4 6q2 -1 10 -14.5t17.5 -30.5t13.5 -23l10 -12q5 -4 29 -32.5t28 -34.5q17 -23 57 -63.5t72.5 -73t59 -77.5t26.5 -85q0 -2 -2 -5t-2 -6q0 -8 5.5 -24t5.5 -23q10 -25 10 -49v-31q0 -66 -21 -121q-1 -4 -4.5 -5t-5.5 -5 q-51 -95 -96.5 -135.5t-145.5 -73.5q-8 -3 -40.5 -8.5t-43.5 -9.5h-61q-8 6 -27.5 15t-29.5 18q-160 153 -199 340zM309 236v-3q0 -8 8 -16q4 -15 31 -51l10 -14h7l-48 75zM375 190q2 0 2 -4h2q1 0 1 -4t-1 -4q-4 0 -4 4q-3 0 -3 4t3 4zM375 932q-3 0 -3 -4t3 -4t3 4t-3 4z M371 954q3 0 3 -4t-3 -4t-3 4t3 4zM293 1081q-3 0 -3 -4t3 -4t3 4t-3 4zM375 18q-3 0 -3 -4t3 -4t3 4t-3 4zM82 1020q-2 0 -2 -4t2 -4q3 0 4 2t0 4t-4 2zM446 532q-3 0 -3 -3t3 -3t3 3t-3 3zM252 281q-3 0 -3 -3.5t3 -3.5t3 3.5t-3 3.5zM98 977q-2 0 -2 -4t2 -4q3 0 3 4 t-3 4zM557 1333q-1 0 -1 -4t1 -4q3 0 3 4t-3 4zM201 1401q-1 0 -1 -4t1 -4q3 0 3 4t-3 4zM231 846q-1 0 -1 -3t1 -3q3 0 3 3t-3 3zM446 1509v-4h5v4h-5zM653 424q-3 0 -3 -3t3 -1q1 0 1 2t-1 2zM463 362q-3 0 -3 -3t3 -1q4 0 0 4zM287 289v-8h2q0 8 -2 8zM160 319q0 3 -2 3 t-2 -3q0 -4 4 0zM379 698l-4 1v-1q0 -8 4 0zM301 1196q0 -8 -4 0l4 1v-1zM305 1038l-4 -4h4v4zM293 274l-1 -4h1q1 0 1 2t-1 2zM362 176l-1 -4h1q4 0 0 4zM438 606h-2h2zM362 205v-2v2z" />
<glyph unicode="T" horiz-adv-x="696" d="M406 -43q-7 -4 -9 -4q0 1 -7 18t-7 19q-5 -5 -16 -33q-73 128 -86 385q-8 133 -4 422t-7 422h-6q-64 -36 -131 -53q-9 0 -27 -9l-8 -4h-2q-12 0 -20.5 4.5t-11.5 7.5t-11 16.5t-10 16.5q0 1 -1 6.5t-1 6.5q0 10 6 14q4 5 33 29.5t33 29.5q25 13 71 47q88 48 127 54 q4 4 37 4q24 2 88 18h2q2 0 21.5 4t21.5 4q1 0 24.5 1.5t29.5 5.5h45q6 6 20 6q10 0 32.5 -7t22.5 -12q0 -14 -35.5 -32.5t-35.5 -20.5q-4 -18 -4 -57v-9l6 9q3 -31 7.5 -138t4.5 -139q1 -29 -0.5 -171.5t-1.5 -143.5v-359l-6 19h-4q0 -5 4 -15.5t4 -15.5q-4 -8 -4 -10v-4 l31 -148v-6q-11 18 -19.5 56t-15.5 53q-2 -4 -2 -15v-4l22 -106q4 -8 4 -13q0 -4 -2 -5t-6.5 0t-5.5 1v-16h-10v-16q0 2 -2 4t-4 2l-2 2l-3 -2q-1 -13 -15.5 -28.5t-14.5 -31.5h-4q-4 0 -6 4l-21 39v-4q0 -6 2 -19t2 -20q0 -4 -13 -24t-18 -21q-8 -3 -12 -1t-6 0t-4 -13 q-6 29 -14 29v-11q-6 0 -14 -8t-13 -8q-4 0 -4 4v-14q-8 8 -12 8h-2zM559 1268q0 -21 4 -33q8 31 8 70v12q-12 -4 -12 -49zM580 266q0 -12 4 -18v8q0 14 -4 18v-8zM428 313q-3 0 -3 -5t3 -5t3 5t-3 5zM575 309q-3 0 -3 -5t3 -5t3 5t-3 5zM57 1163q-3 0 -3 -4t3 -4t3 4t-3 4z M401 731q-3 0 -3 -3t3 -3t3 3t-3 3zM575 289q-3 0 -3 -3t3 -3t3 3t-3 3zM483 100q-1 0 -1 -4t1 -4q3 0 3 4t-3 4zM496 922q-2 0 -2 -4.5t2 -4.5q3 0 3 4.5t-3 4.5zM586 1276q3 0 3 -4t-3 -4q-2 0 -2 4t2 4zM383 653v-4h4v4h-4zM295 266q-1 2 -1 -1t1 -3q8 4 0 4zM397 152v-2 h4v2h-4zM295 543l4 -4v4h-4z" />
<glyph unicode="U" horiz-adv-x="868" d="M41 745v60l41 381q1 4 6.5 38.5t16 57.5t28.5 23q1 0 3.5 -2.5t2.5 -4.5l15 11q1 -1 2 -2.5t2 -2.5t2 -1h2q3 0 3.5 6t4.5 6t7 -3.5t1 -8.5q3 7 10 10t17.5 4.5t15.5 3.5q16 11 21 18h2q4 0 11.5 -7t10.5 -7q1 0 8.5 4t8.5 4h4l6 -8h2l20 14q4 -4 4 -16q0 -6 -2 -17.5 t-2 -17.5v-10q1 4 12 22.5t7 32.5l10 -8q0 6 10 6q0 -10 -4 -28.5t-4 -28.5q-2 -23 6 -23h2q1 1 2.5 2t2.5 2t1 2l-2 -10v-41l-24 -217q2 -16 -3.5 -45t-6.5 -37q-9 -110 -9 -153v-56q0 -8 2.5 -36t6 -59.5t4.5 -39.5l22 -63q2 24 -12 94q-8 60 -8 137v37l4 -14 q8 -126 20 -224q4 -44 8 -65l60 -166q18 -26 43 -55q0 -1 1.5 -5t3 -6t5.5 -2l2 2q4 11 15 28.5t18 35.5q82 209 82 457q0 130 -10 192q-2 28 -13 70t-14 57v14q0 28 -10 68q-8 19 -8 43q4 0 10.5 2t9.5 2h4l6 -6q8 3 8 18h5q4 0 13 -7l9 -7v2q0 1 -2 7.5t-2 7.5v4l12 -11 l8 2q0 1 -3 4.5t-3 4.5q3 3 28 12.5t30 9.5q10 0 12 -6h27q1 -2 4 -9.5t5.5 -13t6.5 -8.5v31q2 4 4 4h2q12 0 13.5 -24.5t11.5 -24.5v4q-1 3 -4.5 22.5t-3.5 22.5q0 1 -1.5 4t-1.5 4q8 0 19.5 -23.5t13.5 -35.5l15 -98l-2 -11v-4h2l20 -123q1 -6 1.5 -52.5t8.5 -70.5l4 -94 l-4 -8q0 -1 2 -6t2 -6v-4q0 -2 -2 -4t-2 -4v-3l4 -4l-10 -100v-8q0 -4 1 -8.5t1 -8.5q0 -6 -5 -13t-5 -13v-4q4 2 8 10v-6q0 -7 -1.5 -8.5t-6.5 -1.5h-4q0 -3 2 -7t2 -8q0 -19 -10.5 -50.5t-12.5 -41.5q-16 -65 -38 -106v-5q25 19 49 80q2 5 4 7q0 -42 -88 -152 q-6 -7 -45 -47t-45 -47q-1 0 -5.5 -2t-5.5 -2l-6 4q8 -14 -26 -35l-66 -35q-4 -1 -25 -14.5t-24 -16.5q-17 -10 -51.5 -17t-48.5 -13h-31q-67 0 -122.5 50t-82.5 118q-4 4 -4 6q-6 7 -10.5 18t-7.5 25.5t-5 19.5q-37 105 -49 217.5t-12 261.5zM51 733l-1 -45l1 -8 q1 4 1 25.5t-1 27.5zM51 606l4 -2v2q0 17 -4 29v-29zM786 985l5 -20h2l-2 24zM334 844q3 -2 3 -10t-3 -9l-1 13zM729 1167v-2q0 -1 1 -3t1 -3q6 9 6 12q-8 0 -8 -4zM334 795q3 0 3 -5.5t-3 -5.5t-3 5.5t3 5.5zM813 825q-3 0 -3 -5t3 -5t3 5t-3 5zM129 233q-3 0 -3 -5t3 -5 t3 5t-3 5zM801 856q-3 0 -3 -5t3 -5t3 5t-3 5zM395 141q-3 0 -3 -5t3 -5t3 5t-3 5zM705 1200q-3 0 -3 -5t3 -5t3 5t-3 5zM762 1130v-12h4v12h-4zM756 1165q0 -8 4 -12v4q0 10 -4 12v-4zM786 1022v-10h5q0 10 -5 10zM682 954q-3 0 -3 -4t3 -4t3 4t-3 4zM782 1038q-3 0 -3 -4 t3 -4t3 4t-3 4zM571 1096q-3 0 -3 -4.5t3 -4.5t3 4.5t-3 4.5zM55 584q-3 0 -3 -4.5t3 -4.5t3 4.5t-3 4.5zM637 672q-3 0 -3 -4t3 -4t3 4t-3 4zM801 901q-3 0 -3 -4t3 -4t3 4t-3 4zM82 754q-3 0 -3 -3t3 -3t3 3t-3 3zM102 801q-3 0 -3 -3t3 -3t3 3t-3 3zM580 866q2 0 2 -4 t-2 -4q-3 0 -3 4t3 4zM770 1096q-2 0 -2 -4.5t2 -4.5q3 1 3 5t-3 4zM313 1274q-5 0 -5 -3t5 -3q1 0 1 3t-1 3zM51 668l-1 -12l1 -1q1 1 1 6t-1 7zM446 236q0 2 -6 14l6 -17v3zM109 969q-1 0 -1 -3t1 -3q3 0 3 3t-3 3zM760 1145q-3 0 -3 -3t3 -3q2 0 2 3t-2 3zM240 1274 q-3 0 -3 -3t3 -3q2 0 2 3t-2 3zM580 815q2 0 2 -3t-2 -3q-3 0 -3 3t3 3zM580 836q2 -2 2 -6t-2 -5l-1 8zM338 883q6 -3 0 -6q-2 0 -2 3t2 3zM782 1047q-4 0 -3 -4q1 -2 3 -1q2 0 2 2.5t-2 2.5zM580 782q2 0 2 -3t-2 -5l-1 6zM797 942q0 3 -2 3t-2 -3q0 -2 2 -2t2 2zM801 887 l-1 -4h1q8 0 0 4zM623 1206q0 2 -3.5 2t-3.5 -2q4 -4 7 0zM580 659q2 0 2 -2t-2 -2l-1 4h1zM125 240q-1 0 -1 -2t1 -2q4 0 0 4zM778 1069q-2 0 -2 -2t2 -2q4 0 0 4z" />
<glyph unicode="V" horiz-adv-x="874" d="M324 -4q-60 43 -68 98l-211 1184l-2 16q-2 15 -2 21q0 20 6 41q12 -8 16 -8q5 0 24.5 6t29.5 6q5 0 11.5 -2t10.5 -2t16 13t21 13q7 0 17.5 -9t17.5 -9q3 0 5 1t5 1q7 0 7.5 -18.5t7.5 -18.5q8 0 8 25q1 -5 2.5 -15.5t2.5 -16.5l2.5 -15t3.5 -14.5t4 -11.5t5 -9.5t6 -5.5 l17 -60q2 -1 5.5 0.5t4.5 1.5q0 6 -3 18t-3 17q0 11 6 12q10 -39 14 -53l8 -8l54 -225q6 -8 8 -8v16l20 -43l-4 -6l9 -4q0 -4 -2.5 -8.5t-2.5 -8.5q0 -7 2.5 -8.5t10.5 -1.5q0 -5 -3 -11t-3 -9q-6 0 5 -5q3 -2 5 -2q2 -2 1 -2.5t-4 -3.5t-3 -6q0 -4 6 -16t6 -17 q0 -2 -1 -4.5t-1 -5.5l7 -14q7 -14 7 -19l29 -127l2 -34h8q4 0 19 88q11 11 29 92.5t20 85.5q26 143 62.5 286.5t66.5 221.5l6 18l8 -6l4 8l8 -6q2 -1 8 1.5t7 2.5q5 0 7.5 -4t8.5 -4q5 0 10.5 2t10.5 2q4 0 8.5 -2t9.5 -2q6 0 17 7t26 5l4 -4l10 -35l6 -4q1 -35 -21 -115.5 t-26 -109.5q-4 -25 -17 -78.5t-17 -83.5q-2 -12 -14.5 -43.5t-12.5 -44.5l-49 -194q-5 -4 -7 -11t-2.5 -17t-0.5 -13q-13 -53 -41.5 -155.5t-40.5 -150.5q-4 -15 -17 -70t-18 -73.5t-17 -54t-24 -55.5t-27 -35q-13 -4 -24 -26t-33 -26q-19 -2 -37 -24h-4q-4 0 -12.5 -2 t-12.5 -2t-14 3t-14 3h-4zM805 1202q2 0 2 -4t-2 -4q-4 0 -4 4t4 4zM659 920q-4 0 -4 -5q0 -4 4 -4q3 0 3 4q0 5 -3 5zM291 1190v-4h6v4h-6zM389 905v-6h4v6h-4zM557 795v-4h4v4h-4zM92 1104l-2 2l-2 -2l2 -2zM231 317l-4 -4h4v4zM612 1081v-4h4zM768 1022q0 -1 1 -2t1 -2 l-2 -2v6zM256 229l-2 2l-2 -2h4zM117 1341v-4h2zM297 1176v-5h2z" />
<glyph unicode="W" horiz-adv-x="1234" d="M199 113q-9 -4 -11 -4h-2q-17 19 -30 43.5t-21.5 60.5t-12.5 55t-9.5 65t-6.5 52q0 1 -2 7t-2 7q-2 13 -4 42.5t-5.5 52.5t-10.5 41l-27 309q2 31 -1 90.5t-3 75.5q0 26 -5 174.5t-3 226.5q8 0 11 -3t3.5 -6t3.5 -6t11 -3q1 0 5.5 10.5t16.5 11.5q0 -1 2 -4t2 -4 q5 0 16 6.5t15 5.5q6 -8 8 -8l6 4h7q5 0 8 -8l24 16q2 2 4 2q7 0 23 -9t22 -11q15 0 17 -2l10 -6h4l6 4v-23q13 13 17 13l4 -2q0 -5 6.5 -27.5t7.5 -22.5h4q0 7 4 11v-19q4 -4 6 -4l5 8h2l2 -2q23 -120 14 -233q3 -3 5 -56.5t3 -114.5t2 -69q8 -115 6 -174q15 0 15 23 q0 34 -5.5 101t-5.5 101l1 8q1 8 1 13q0 -2 2.5 -5.5t2.5 -4.5l12 -199h2q16 39 45 96q4 0 4 -2v-4q-9 -13 -20 -36.5t-11 -35.5v-2l7 6l67 144q5 5 6 8t1.5 7t2.5 9l37 70q0 4 8 12q0 -1 1 -4t1 -4q-1 -15 -19.5 -45t-21.5 -39q-5 -7 -22 -46t-18 -40v-4h2q5 0 10 16 q43 91 80 150q1 3 4.5 10.5t5.5 12t6.5 10t9.5 8.5l6 -2q0 22 17 22q3 0 8 -3t8 -3q4 0 17 4t18 4q3 -1 10 -5.5t11 -4.5q6 0 19 6t19 6q4 0 10 -3.5t13 -9t10 -7.5t13.5 -5t15.5 -9l14 -47l27 -154q1 -3 2.5 -9t3.5 -9t6 -3q1 17 -3.5 43.5t-4.5 38.5q0 7 2 9q5 -15 15 -62 t18.5 -83t11.5 -36h2l10 27l68 326q19 87 24 92q7 76 29 192q0 2 1 5.5t1 5.5l4 16q4 0 4 8l9 33h6v-14q7 4 10 12h27l6 -6q14 0 30 16h5q12 -12 18 -12h6q2 0 10.5 8.5t14.5 7.5q3 0 8.5 -2.5t5.5 -3.5l12 -20q3 -6 13 -14t10 -15q-8 -39 -17 -131q-1 -3 0 -19.5t0 -19.5 l3 -2q4 8 4 10q1 3 3 22.5t3 24.5l2 -12q-1 -29 -21 -156q-29 -169 -37 -203q-3 -2 -4 -6.5t-1 -8t0.5 -8t0.5 -5.5q-2 -14 -7.5 -40t-6.5 -26l-4 -2q0 -4 -1 -23t-1 -20q-1 -4 -5.5 -10.5t-4.5 -7.5q-12 -83 -19 -88q-9 -57 -20 -78q-34 -154 -37 -174l2 35l-4 6l-2 -6 q-5 -17 -18 -79t-17 -85q-2 -8 -8 -19.5t-8 -19.5q-3 -5 -8.5 -18t-12.5 -21q-11 -13 -32.5 -25.5t-49.5 -25.5t-35 -17l-5 -5t-4.5 -5.5t-5 -4t-7.5 -1.5h-4l-6 10l-9 4q-15 3 -23 13t-15.5 30.5t-10.5 26.5q-7 21 -16 84q-1 3 -5 34.5t-8 61.5t-6 35q-5 30 -24.5 126.5 t-26.5 125.5q0 1 -4.5 27t-10.5 43.5t-13 21.5q-4 -16 -32 -76.5t-28 -79.5q0 -6 4 -8q-2 -3 -3.5 -3t-3 1t-4 -1.5t-5.5 -10.5l-100 -244q-60 -118 -87 -133q-11 -6 -20.5 -9.5t-13 -5t-9.5 -7t-16 -17.5l-4 -6q-6 6 -8 6q-5 0 -17 -9t-18 -9l-2 2q-1 0 -4 3t-4 3 q-3 0 -3.5 -2.5t0.5 -6t-1 -5.5t-15 -2q-1 -1 -1.5 -2.5t-2.5 -5t-4.5 -5t-3.5 -0.5zM1169 1176q-3 -1 -5 -5.5t-3 -10.5t-1 -11t0.5 -11.5t0.5 -7.5q13 0 13 39q0 5 -5 7zM504 412q-15 -54 -25 -58v2q0 9 9.5 31t15.5 25zM391 709q0 -2 3.5 -5.5t4.5 -3.5t6 10.5t10 22.5 t5 17v2q-7 -4 -11 -19t-10 -18q0 -1 -4 -2t-4 -2v-2zM440 795q-10 -7 -10 -17v-2q10 3 10 15v4zM1192 1278q1 -2 0.5 -7t-2.5 -7q-2 -1 -2 3q0 9 4 11zM578 600q3 0 3 -4t-3 -4t-4 2t0 4t4 2zM426 256q3 0 3 -4t-3 -4t-4 2t0 4t4 2zM705 885q-4 -1 -3 -8q6 0 6 5q0 3 -3 3z M997 1360q-4 -8 4 -8l3 2q0 6 -7 6zM360 1024q5 -4 5 -6t-2.5 -5.5t-2.5 -4.5v16zM469 905q3 0 3 -4t-3 -4t-3 4t3 4zM383 674v-6h6v6h-6zM436 303q-3 0 -3 -4t3 -4t3 4t-3 4zM1030 473q-4 0 -6 -3q2 -2 4 -3q3 2 2 6zM473 915q3 0 3 -3t-3 -3t-3 3t3 3zM1006 319q5 0 1 -7 l-3 -3q1 10 2 10zM248 1118q-3 0 -3 -4t3 -4q2 0 2 4t-2 4zM307 1327q-6 0 -6 -6h6v6zM449 862v-4q0 -6 -5 -8v6q5 4 5 6zM1012 340q4 -4 0 -8q-3 0 -3 4t3 4zM221 477q-1 0 -1 -3t1 -3q5 0 5 3t-5 3zM461 889q3 0 3 -4t-3 -4q-1 0 -1 4t1 4zM360 971q5 -5 5 -8h-5v8z M805 897q1 -1 1 -6t-1 -6l-1 11zM547 1026q3 -6 -4 -6q-1 2 4 6zM379 700v-4h4v4h-4zM973 1180v-4h4v4h-4zM391 688l-1 -3q0 -5 1 -5q1 2 1 5t-1 3zM428 764l-4 1v-1q0 -3 2 -3t2 3zM782 1010q3 0 3 -2t-3 -2v4zM557 547v-2q-3 0 -3 1t3 1zM1024 1206h-2q0 -3 1 -3t1 3z M397 735l-1 -4h1q1 0 1 2t-1 2zM1014 362q2 0 2 -2t-2 -2t-2 2t2 2zM549 522l-4 -8v4q4 2 4 4zM1006 1372v-2h4z" />
<glyph unicode="X" horiz-adv-x="843" d="M82 68q1 18 12.5 73.5t9.5 83.5q27 133 27 137q11 32 10 35l54 217q4 0 4 13q5 11 23.5 73t19.5 72q2 8 7 20.5t8 23t3 20.5q1 5 -0.5 9.5t-5 10.5t-4.5 10l-41 80q-2 1 -4 7.5t-2 7.5q-3 5 -18 34.5t-19 40.5q-12 24 -54 100.5t-61 120.5q-10 20 -10 31q0 6 16 6 q6 -8 6 -10l21 8q0 6 4 6q0 2 2 2t3.5 -4t4.5 -4q4 -1 6 2.5t5 3.5q5 0 18 -4.5t18 -5.5q5 0 12.5 6t12.5 6h6l8 -4l6 2q4 -1 18.5 -6.5t20.5 -5.5l2 -2l5 8l2 2q6 0 17 -9t11 -15l6 10l2 -2q6 0 10 -1.5t7 -4.5t6 -4q8 4 10 4l17 -21q0 4 4 4q0 2 2 2q0 -2 2 -2 q9 -10 15.5 -21t16 -30t11.5 -24q4 2 7.5 7.5t5.5 10.5l1 4q9 26 21 59.5t33.5 87t43 88t37.5 33.5l49 -2q3 -6 5 -8h4l10 6l2 2l2 -2q-4 0 -4 -6q0 -4 8 -4q4 0 10 3t13 3l4 -4h2q4 0 11.5 2t10.5 2h4q-4 0 -4 -8q0 -2 3.5 -5t4.5 -3l7 6l2 2q0 -24 10 -24q0 -10 -11 -26 t-12 -26v-6l9 6q-3 -11 -11 -37t-12.5 -46.5t-5.5 -39.5v-20q6 5 8.5 18t7.5 19q0 -1 1 -7.5t1 -7.5v-2q0 -18 -10.5 -53t-11.5 -53q0 -2 2 -6t2 -6q-2 -22 -8 -46.5t-15.5 -54.5t-13.5 -45l-16 -65q-1 -4 -14 -36t-13 -48q0 -18 14 -41l-8 2q-2 -3 0 -9l2.5 -7.5t4 -8 t5.5 -10.5q6 -13 15.5 -41t15.5 -41q19 -42 62 -127v-2q-6 0 -12 7t-12 17t-9 13v-4q0 -1 2 -5t2 -5q13 -22 36 -72t38 -76l22 -35v-6q-5 4 -14 17t-17 18v-4q0 -19 37.5 -76t32.5 -84l31 -72q-2 0 -5 -2.5t-3 -3.5q-1 -1 -5 0l-4 2q0 -4 13 -43l-2 -2q-4 0 -7.5 5t-7.5 13 t-6 11v-4q0 -6 2 -14t2 -17l-4 -2l-10 -8l-2 -2l-2 2l-10 8v-2q0 -6 4 -10l12 -23q-4 -4 -5 -15.5t-5 -12.5q-18 18 -23 18l-6 -2v-14q-4 2 -6 2q-8 6 -16.5 20.5t-12.5 18.5l-47 84q-4 2 -4 4q-16 25 -55 92q-3 4 -20 35t-25 39l-62 90q-2 9 -10.5 26t-15.5 21 q-4 -4 -5 -7.5t-0.5 -8t-0.5 -7.5l-5 -8q-6 -14 -12 -45t-12 -45q-28 -137 -43 -190q-3 -15 -9 -26t-17 -25t-17 -25q-3 -5 -5.5 -9.5t-3.5 -6t-1.5 -3.5t-2 -3l-3 -2t-5.5 -3l-10 -6l2 41h-4q0 -2 -3 -15.5t-6 -25.5t-5 -16q-5 -20 -11 -23l-4 8h-2q-4 0 -6.5 -4t-3.5 -8.5 t-2 -5.5q-12 0 -14 2q-4 -3 -10 -11t-11 -12q-2 -4 -15.5 -4t-17.5 -2q-16 -8 -36 -8l-4 -4l-37 2q-3 8 -17 30t-14 40zM686 449q-2 -5 10 -17l2 2l-2 2q-6 11 -6 13q-2 2 -4 2v-2zM735 387q8 0 8 -10v-2q-8 4 -8 12zM766 276q-4 2 -4 -4q0 -3 2 -4q4 0 4 5q0 3 -2 3z M623 608q0 -8 4 -8v4q0 6 -4 8v-4zM612 627q0 -9 2 -9q2 3 2 5q0 6 -4 8v-4zM180 276q-3 0 -3 -4t3 -4t3 4t-3 4zM623 1128q-3 0 -3 -4t3 -4t3 4t-3 4zM725 229q-3 0 -3 -3t3 -3t3 3t-3 3zM270 989q-3 0 -3 -3t3 -3t3 3t-3 3zM629 1139q-5 0 -4 -7l2 -2q1 0 2 2.5t1 4.5 t-1 2zM627 1217q-3 0 -3 -4.5t3 -4.5q1 0 1 4.5t-1 4.5zM352 295q-2 0 -2 -4t2 -4q3 0 3 4t-3 4zM700 432q-3 0 -3 -3t3 -3q2 0 2 3t-2 3zM797 180q4 -4 4 -8h-4v8zM389 522q-3 0 -3 -3t3 -3q1 0 1 3t-1 3zM672 1389l-6 -3q0 2 2.5 3t3.5 0zM592 662q0 -5 2 -5v5l-2 4v-4z M655 1284q1 -4 0 -4q-1 -2 -1 1t1 3zM629 1249v-4h2v4h-2zM121 10v-4l4 4h-4zM618 1110q-2 0 -2 -2t2 -2t2 2t-2 2z" />
<glyph unicode="Y" horiz-adv-x="1011" d="M317 184q3 77 11 166q0 1 2 4t2 4v4l-4 5q0 4 4 8l2 51l4 8q0 1 -1 9.5t-1 9.5v2q0 5 1 15t1 15q0 7 -2 11q1 28 -4.5 54t-18 61.5t-16.5 50.5q-25 90 -91 246t-83 204q-15 39 -28 80t-30 101.5t-24 82.5v10q0 10 2 12.5t12 2.5q3 0 5.5 -1t6 -2.5t5.5 -2.5l18 8h4l8 -4 l9 4h4q8 0 12 -4q4 0 26.5 5t26.5 5h4q6 0 18.5 -6t18.5 -6q6 2 8 2q4 0 9.5 -4.5t7.5 -8.5q0 1 8 9h2q15 0 20 -4t8.5 -11.5t10.5 -11.5q0 1 1.5 4t2 4.5t2.5 3t4 0.5h2q28 -32 31 -63l8 6l2 -4v-2q0 -2 -2 -4.5t-2 -5.5q-1 0 8 -14t18.5 -30.5t10.5 -21.5l20 -41l70 -162 l2 -4h4q5 0 16.5 18t22 39t12.5 23l43 70q1 0 7 6t6 8l2 2l2 -4l6 -2l2 2l55 78l43 51l8 8l3 -2h2l-60 -78q-13 -7 -69 -96t-56 -100v-6l4 2l43 69q16 25 31 35l92 129l4 6q53 69 133 142h7l4 -4q9 -7 41 -7q0 -4 8 -8q4 4 6 4q23 14 51 11q25 0 25 -50q0 -6 -5 -13 t-12 -14.5t-10 -11.5l-12 -34q-6 -6 -28.5 -39.5t-26.5 -38.5q-5 -4 -5 -6q-79 -113 -122 -187q-7 -12 -24 -50.5t-30 -57.5l-86 -221q-14 -28 -14 -45q-1 -4 1 -26.5t1 -27.5l2 25h4q4 -31 6 -45q4 -16 4 -35l-30 -397l-4 12v72l-5 4q-5 -11 -8.5 -53t-7.5 -76.5t-12 -34.5 l-8 4l-9 -25q-8 1 -18 -12t-10 -22q-17 -3 -56.5 -24.5t-62.5 -20.5q-8 0 -12.5 4t-8.5 12t-8 12q-11 11 -18.5 25.5t-11 26t-5.5 31.5t-2.5 29t0 33t0.5 31zM586 444q-1 0 -2 -2.5t-1 -5t1 -2.5q6 0 6 6q-1 4 -4 4zM721 1352l-12 -13v4l8 9h4zM743 1384q3 0 3 -4t-3 -4 t-3 4t3 4zM584 1186l-13 -23q3 2 13 21v2zM756 1393q0 -4 -4 -4h-4l4 4h4zM604 1223q0 -3 -1 -3t-1 3h2zM537 1110v-4l4 4h-4zM543 168v-8l2 6zM326 131q-2 0 -2 -2t2 -2t2 2t-2 2zM522 178l-1 -4h1q4 0 0 4z" />
<glyph unicode="Z" horiz-adv-x="761" d="M129 152q1 13 7 31.5t7 25.5q0 1 2 14t2 15q3 10 13 48t10 40q7 25 23.5 74t30 86.5t14.5 39.5l90 299l10 62l18 59q2 9 0 12t4 11l72 338q0 6 -8 14h-14q-50 2 -145.5 -26t-143.5 -27q-35 0 -43 8q-5 3 -21 32t-16 33l2 5q15 14 35 21.5t56.5 14t41.5 7.5l103 30 q32 0 40 6q54 9 170 5q7 0 47.5 -2.5t47.5 -2.5q4 -3 39 -12t66.5 -20t31.5 -19l-2 -37q0 -1 -8 -41t-20 -94t-19 -84q-1 -5 -7 -17.5t-8 -17.5q0 -33 -10 -49l-12 -73l-60 -232v-12l5 -6q0 -10 -9 -38.5t-10 -33.5q-5 -32 -25.5 -92.5t-23.5 -69.5q-1 -2 -14 -22 q-16 -75 -17 -80q-1 -1 -7 -18.5t-7 -18.5q-1 -4 1 -22l1 -17q11 -1 30.5 2.5t26.5 3.5l9 -2q1 0 8 -4t8 -4q52 -8 127 -8q-2 -6 3 -9t12 -3t13 -2t5 -7q0 -6 -2 -7.5t-7 0t-6 1.5q0 -4 2 -11t2 -11q-1 -14 -74.5 -48t-93.5 -32h-14q-5 10 -10 10q-17 0 -57.5 -16t-49.5 -23 q-8 -8 -10 -12q-14 -21 -83.5 -42.5t-100.5 -21.5q-2 0 -11 1t-10 1q-6 8 -24.5 27t-26 34t-6.5 36zM119 182q3 0 3 -4t-3 -4t-4 2t0 4t4 2zM571 711q-3 0 -3 -4.5t3 -4.5t3 4.5t-3 4.5zM391 1374v-4q1 0 1 2t-1 2z" />
<glyph unicode="_" horiz-adv-x="1542" d="M111 -25q-4 5 -18.5 13.5t-16.5 9.5l-27 22q-8 16 -8 23l12 47q6 1 14.5 0t14.5 0q262 -8 403 -10q59 -2 181 -2q96 0 125 -6h315q42 -4 119 -4t106 -2q2 0 8 -3q-12 2 -14 -4q-13 0 -70.5 -1.5t-83.5 -0.5q-1 0 -3.5 -2.5t-2.5 -3.5q8 0 25.5 -1t26.5 -1q12 -4 18 -4 q18 -1 52 1t50 1q0 -8 -10 -8q12 -2 55 -3t64 -9q0 -4 2 -4q10 -5 12 -5v-4q-17 0 -20 -6l61 -4q-8 -4 -10 -4l-12 -2l4 -8l14 -2l-31 -4l-10 -7q-9 -5 -30 -8t-31 -8l-52 -2q-3 0 -25.5 -1.5t-40 -4t-20.5 -6.5l27 -2q-5 -4 -26 -4.5t-40 0.5t-32 0q-16 -2 -46 -1.5 t-46 -0.5q-7 -1 -24 -7t-30 -6q-254 0 -381 2q-23 1 -82.5 3.5t-84 2.5t-84.5 -2l-211 13q-26 2 -76 24q-1 1 -3 2q-3 1 -3 2zM70 106l370 -10q9 -1 93 -1t94 -1h14l-2 -4q-63 0 -187.5 2t-185.5 2q-5 1 -56.5 1t-57.5 1l-84 4zM649 94l121 -2v-4q-41 -2 -123 2zM834 90 l40 2l9 -4h-49v2zM1157 57q-4 1 -7 0t-7 -3l-6 -3q0 -2 4 -2h16v8zM1126 59q-9 3 -14 -8l4 -2q4 -1 6 -0.5t3 3t1 7.5zM1042 55q-2 0 -14 -4h21q0 4 -7 4zM823 88q-18 0 -20 2l17 -1q4 0 3 -1zM793 90q-2 -1 -7.5 -0.5t-7.5 2.5q0 1 3 1t7 -1t5 -2zM915 90q0 -3 -4.5 -3 t-5.5 3l7 1zM1237 -49v-4h6v4h-6zM1235 53q1 0 1 -3t-1 -3q-3 0 -3 3t3 3zM1325 -35q0 -2 6 -2h2v2h-8zM844 37v-2h6v2h-6zM1462 -4v-4h4l-2 4h-2zM868 61q-1 1 -6 0q3 -3 6 0zM1012 53q0 1 -3 1t-3 -1t2 -1t4 1zM1313 41q1 1 -1.5 1t-2.5 -1q4 -4 4 0zM1059 57q0 1 -2 1 t-2 -1h4zM1456 -16h-4q4 -4 4 0z" />
<glyph unicode="a" horiz-adv-x="808" d="M41 166q0 28 8 92q1 6 6 38t4 48l70 694v6l21 277q0 24 8 37q-2 8 -2 32.5t2 30.5q0 39 4 47q0 19 14 19q2 0 7 -3t7 -3h3q13 10 36 10q11 0 11 -4h28l2 8q3 -2 33.5 -6.5t36.5 -20.5v-6q4 -4 4 -12q5 3 7 13.5t7 13.5q8 -3 8 -20t3 -21q10 -10 36 -12t53 -9t40 -29h8 q10 -18 14 -26q13 -16 19 -35l71 -203q0 -1 2 -6.5t2 -7.5q34 -104 52 -168q-2 -17 14 -80q1 -7 8 -24t6 -27l17 -76v-10l-6 14h-5l52 -217v-10h-4q0 -21 7 -65.5t7 -67.5v-19q-11 11 -19.5 38.5t-15.5 37.5v-6q0 -48 10 -106q4 -1 4 -3v-12l17 -86q4 -2 4 -4v-2 q0 -4 -2.5 -17.5t-3.5 -13.5q0 16 -13 23v-8q0 -13 4.5 -35t4.5 -33q0 -6 -5 -13t-10 -3q0 -3 -2 -15t-2 -14q-3 -8 -5 -8q-3 0 -5 -2q-2 -4 -4.5 -9.5t-4 -9t-5 -6.5t-9.5 -4h-6l-3 -3q-3 -4 -5.5 -6.5t-3.5 -2.5q-4 -4 -12 4v-23q-4 2 -4 4q-4 0 -4 7q0 -10 -5 -17.5 t-14 -7.5q2 3 -2 6.5t-11 9t-9 11.5q0 3 -7 10q5 -12 -10 -12q-4 0 -4 2q-1 9 -4.5 18.5t-9 22t-8.5 20.5q-1 5 -3.5 24.5t-6.5 37.5t-9 28l-29 146q0 1 -1 6t-1 6q-1 10 -14 65t-16 64l-2 10q0 1 -4 -1q-2 -1 -3 -1q0 -4 0.5 -8.5t0.5 -5.5t-1.5 -3t-4 -3t-9.5 -4 q-1 0 -3 -1t-3 -1v-7l-35 -14q-4 -1 -30 -8.5t-47 -15t-25 -13.5q-15 -126 -17 -155q-2 -17 -8.5 -60t-7.5 -67h-6q-5 -48 -33 -48l-6 2h-8l4 -6q2 -2 2 -4h-2q0 -4 -8 -4v-18q-2 0 -3 3t-12 3q0 -1 1.5 -3t2.5 -3.5t0 -1.5q-3 -5 -16.5 -10.5t-19.5 -12.5l-2 -4 q-22 0 -58 -6l-14 -8h-6q-10 0 -29 14q-12 0 -12 4q-15 13 -23 32t-9 33.5t-1 41.5v53zM444 510q3 0 20.5 -4.5t18.5 -5.5h4v14l-61 266q-3 9 -6 33q-3 11 -9.5 37.5t-11.5 45t-6 19.5l-2 7l-41 -390v-26q25 -2 33 -2h6q8 0 25 3.5t30 2.5zM297 651v-47q6 12 6 47l4 4l-4 2z M715 475q0 -30 8 -33v13q0 20 -8 20zM293 586q-4 -4 -4 -19v-10l4 4v25zM723 678v6q4 -4 4 -14v-8q-4 8 -4 16zM690 565q4 -6 4 -8q0 -6 2 -8v18q-6 0 -6 -2zM307 705l-1 -12l1 -3q3 2 3 8t-3 7zM250 229l-1 -8l1 -4q3 1 3 6.5t-3 5.5zM444 1411q-3 0 -3 -4t3 -4t3 4t-3 4z M172 147q-3 0 -3 -4t3 -4t3 4t-3 4zM672 14q3 0 3 -4t-3 -4t-3 4t3 4zM715 416q-3 0 -3 -3t3 -3t3 3t-3 3zM311 809q-3 0 -3 -3t3 -3t3 3t-3 3zM279 492h4v12l-4 -8v-4zM686 78q-3 0 -3 -3t3 -3t3 3t-3 3zM285 543v-8h4v8h-4zM737 557q-3 0 -3 -3t3 -3t3 3t-3 3zM279 311 q-3 0 -3 -3t3 -3t3 3t-3 3zM748 358q3 0 3 -3t-3 -3t-3 3t3 3zM264 362l-2 -3q0 -5 2 -5q3 2 3 5t-3 3zM360 1278q-2 0 -2 -4t2 -4q3 0 3 4t-3 4zM743 338q3 0 3 -4t-3 -4q-1 0 -1 4t1 4zM668 670q-2 0 -2 -4t2 -4q3 0 3 4t-3 4zM299 184q-1 0 -1 -4t1 -4q3 0 3 4t-3 4z M711 489q0 -6 4 -8v8h-4zM737 217q2 -4 4 -6v10q-4 0 -4 -4zM250 254v-4l4 -4v8h-4zM666 889q-3 0 -3 -3t3 -3q2 0 2 3t-2 3zM741 539q-3 0 -3 -3.5t3 -3.5q1 0 1 3.5t-1 3.5zM207 1208q-3 0 -3 -3t3 -3q1 0 1 3t-1 3zM100 207q-3 0 -3 -3t3 -3q2 0 2 3t-2 3zM743 373 q3 0 3 -3t-3 -3q-1 0 -1 3t1 3zM729 657q1 0 1 -4.5t-1 -5.5l-1 7zM285 524q-2 -2 -2 -10h2v10zM682 612l-1 -8h1q4 4 0 8zM117 745v-4h4v4h-4zM700 543l-2 -3q0 -5 2 -5q2 1 2 4.5t-2 3.5zM373 864q-1 0 -1 -4t1 -4t1 3t-1 5zM242 129l-1 -4h1q8 0 0 4zM246 184l-1 -4h1 q8 0 0 4zM705 524q-1 1 -1 -1q-2 -5 1 -5q1 2 1 4t-1 2zM709 506q0 -4 2 -6v4q0 4 -2 6v-4zM133 922q-3 0 -3 -2t3 -2v4zM315 854v-4h2v4h-2zM743 524q-2 0 -2 -4v-2l2 2v4zM686 340v-2h4v2h-4zM303 676v-4h4zM455 733v-2h4v2h-4zM715 713q1 0 1 -2t-1 -2t-1 2t1 2zM672 651 q-2 0 -2 -2t2 -2t2 2t-2 2zM690 428q-2 0 -2 -2t2 -2t2 2t-2 2zM719 698q1 0 1 -2t-1 -2t-1 2t1 2zM680 629l-2 -3l2 -3v6zM92 492q-3 0 -3 -1.5t3 -1.5q2 0 2 1.5t-2 1.5zM135 1077l-1 -4h1q4 0 0 4zM254 268q-2 2 -2 -1t2 -3q4 4 0 4zM188 14h-2h2zM680 831q-2 0 -2 -2 t2 -2v4z" />
<glyph unicode="b" horiz-adv-x="942" d="M68 1372l120 31q105 37 181 37q15 0 35 -2t45 -6t36 -5l7 -2q6 -2 41.5 -8t52.5 -14q55 -31 55 -35q23 -16 40 -46t27 -52.5t17 -24.5v-18q0 -57 -31.5 -124t-60.5 -106t-76 -94v-2q0 -5 30 -11t71.5 -13t58.5 -13q92 -33 138 -116t46 -185q0 -127 -41 -217 q-48 -102 -160.5 -186.5t-230.5 -116.5q-3 -1 -47 -16t-64 -15h-2q-6 4 -8 4t-12.5 -16.5t-28.5 -32.5t-39 -16q-1 0 -4.5 1t-5.5 1q0 -8 -4 -8h-2l-8 10v2l-11 -4h-4q0 -5 -4 -14t-10 -9q-11 0 -17 13.5t-14 13.5q-4 0 -12 -4v18l-6 4l-88 484q0 3 -2 22.5t-4.5 44 t-3.5 33.5q-5 56 -7.5 120.5t-3.5 107t-1.5 121.5t-0.5 114v12q2 37 2 88q0 75 -8 211q-8 32 -8 41l4 4h2q9 0 21 -6zM418 143q2 -2 4 -2h2q125 52 229 187v4l-18 -13v5q66 77 90 204v115q0 84 -59.5 126t-141.5 42h-2q-18 -6 -30 -6l-46 -19q-6 -9 -37.5 -23.5t-33.5 -33.5 v-35q0 -15 3 -48.5t3 -51.5l41 -330q-1 2 -7 25t-13 41t-11 18v-8q21 -93 27 -197zM356 1278q15 -141 15 -342q13 0 45 45t53 80q44 66 60 108t16 95q0 39 -46.5 63.5t-90.5 24.5q-74 0 -74 -17v-2zM399 131l2 -2q1 1 3 2.5l4 3t2 2.5v4l-4 15h-5q-2 -15 -2 -19v-6zM575 260 l33 35v-4l-33 -35v4zM387 43q-4 0 -4 -4t4 -4q2 0 2 4t-2 4zM627 317q2 0 2 -4t-2 -4q-4 0 -4 4t4 4zM356 1323q2 0 2 -4t-2 -4q-4 0 -4 4t4 4zM535 225q2 -2 2 -4l-2 -2l-5 2q0 4 5 4zM451 170q2 0 2 -4q0 -2 -2 -2l-5 2q0 4 5 4zM864 670q-4 0 -4 -4q2 -2 4 -2l2 2 q0 4 -2 4zM176 1378v-4h4v4h-4zM616 301q2 0 2 -2h-6l2 2h2zM432 160h4l-4 -4v4zM541 229h4l-4 -4v4z" />
<glyph unicode="c" horiz-adv-x="708" d="M41 600v66q8 28 8 36h-4q0 16 6 49.5t6 47.5v2l-4 4v2q0 9 5 27t5 24h-4q0 4 2 6q4 6 6.5 13t3 11.5t1 14.5t0.5 15q4 4 6 4q0 1 1 6t1 6v4q10 13 4 31l4 -4q10 16 16 50.5t9 43.5q12 33 44.5 91.5t43.5 84.5l63 74q75 88 139 88l11 -2l22 -4l8 4q4 0 13 -5t12 -6 q17 -5 50 -9t48 -7q44 -10 72.5 -53.5t28.5 -91.5q0 -115 -52 -191l-2 -4q-10 -7 -19 -22.5t-15 -20.5q-13 -10 -38 -14t-30 -6q-2 -1 -8.5 -7t-7.5 -6h-27q0 1 -2 5.5t-2 5.5h-4q0 -1 -1.5 -2t-3.5 -2.5t-3 -2.5v21h-9q0 3 -3 11.5t-5 10.5l-2 5q-2 4 -2 6q0 8 25.5 50.5 t25.5 63.5v4l-8 -6v4q25 66 25 115q0 21 -4 37q-4 4 -13 4h-2q-36 -30 -75 -97t-54 -116q-2 0 -2 -2l2 -4q1 1 6 16q4 9 13.5 23t11.5 14h4v-6q0 1 1 5.5t2 7t3.5 6t5.5 4.5v-3q0 -22 -17 -67.5t-17 -69.5h2q0 -5 -2.5 -14t-2.5 -14v-2l9 2v-13l-4 -22h-7q0 -5 2.5 -10 t2.5 -9q0 -24 -10.5 -75t-8.5 -78q-3 0 -6.5 -37.5t-3.5 -46.5q0 -11 4 -19q-2 -12 -2 -56t2 -56q0 -52 6 -94l16 -95q5 -43 21 -59l4 4v4q-33 148 -33 221q0 4 4 6q12 -112 35 -215q0 -1 2.5 -3.5t3.5 -2.5q7 4 7 6h4v-6l-4 -10v-4l8 4h4q4 -10 4 -12h2q7 0 16 9.5t13 16.5 v2h2q5 0 18.5 -7t34.5 -7q0 -2 -1 -6.5t-1 -7.5h6l10 4q4 -4 6 -4q5 -2 7 -2l2 -2q3 0 13 7t15 7q0 -21 4 -25v-53h17q0 -19 -7 -46t-16 -42q-6 -4 -8 -4q-19 -7 -51 -24t-47 -23t-49.5 -9.5t-49.5 -9.5q-20 -4 -69 -4h-6q-42 6 -54 6q-31 23 -43 33q-2 2 -4 2q-5 6 -18 18 t-17 19q-64 85 -85 202.5t-21 262.5zM92 997q3 0 3 -5t-3 -5t-3 5t3 5zM428 1411q3 0 4 -2t0 -4t-4 -2t-3 4t3 4zM201 543v-6h6v6h-6zM354 606q3 0 3 -5t-3 -5q-2 0 -2 5t2 5zM375 977q1 0 1 -4t-1 -4q-3 0 -3 4t3 4zM424 315q3 0 3 -4t-3 -4q-2 0 -2 4t2 4zM217 98 q0 -3 6 -6v6h-6zM354 584q2 -2 2 -13t-2 -12v25zM471 1116q3 0 3 -3t-3 -3q-1 0 -1 3t1 3zM100 1020q2 -2 0 -4t-4 0t0 4t4 0zM354 643q3 0 3 -3t-3 -3q-2 0 -2 3t2 3zM354 549q3 0 3 -3t-3 -3q-2 0 -2 3t2 3zM201 940l-1 -3l1 -3q3 2 3 4t-3 2zM375 1094l-1 -5q0 -4 1 -4 q1 1 1 5t-1 4zM469 1106v-4l-4 -4zM436 1403h-2h2zM362 940v-2v2z" />
<glyph unicode="d" horiz-adv-x="993" d="M221 35q-5 -2 -6.5 -0.5t-4.5 5.5t-5 5q-23 0 -27 6q3 2 8 9.5t11 7.5v22q6 0 12 7.5t6 13.5q0 4 -5 6t-5 6q0 5 3 10.5t3 9.5v2l-16 168v6q-19 198 -37 510q0 7 -1 16t-2.5 20.5t-2.5 17.5q-7 110 -11 278q0 61 -4 72q-4 5 -43.5 26.5t-44.5 18.5q4 4 4 12q0 7 -4 27 l-4 -6v-2l-2 2q-2 15 5 26t14.5 16.5t7.5 6.5v2q0 1 -2.5 3.5t-4.5 2.5l15 31l-4 2q4 2 32.5 20.5t43.5 18.5h2q-4 -7 -21.5 -12t-21.5 -13h8l30 15q17 6 17 14h12q0 6 2 8q98 20 146 16q1 0 4 2.5t4 2.5q25 0 28 -9h23q116 -17 242 -88q11 -5 27.5 -19.5t25.5 -19.5 q56 -49 99 -94.5t85.5 -104.5t64.5 -124t19 -131q6 -12 6 -13v-2l-2 -4q5 -109 -32 -278q-55 -265 -220 -422q-15 -13 -31 -25t-36 -26t-31 -23h-4q0 4 11 12.5t24.5 18t17.5 14.5h-4l-55 -37q-4 1 -14.5 -4.5t-14.5 -5.5q-3 -3 -37 -20l21 20h-2q-2 0 -29 -12t-31 -15 l-12 -4l-12 -2q0 -16 -4 -20q0 -4 -4 -4q-6 0 -9 2t-4 4l-4 8h-4q-4 -6 -4 -8t-1 -14t-1 -13q-17 1 -32 -13.5t-21 -29.5q0 2 -9 2l-6 -2h-4q-4 0 -19 -0.5t-22.5 -0.5t-21.5 3.5t-23.5 10.5t-22 21t-22.5 34zM424 1249q13 -337 47 -784q0 -5 1 -16.5t1 -16.5 q7 -116 10 -119l4 -10q5 0 15 10l45 45q91 96 140.5 249t49.5 298q0 193 -119 330q-30 30 -36 33q-43 22 -127 22q-2 0 -10.5 -1t-10.5 -1q-6 0 -10 -8v-31zM461 358q7 -67 10 -67h2v12q-7 73 -8 74l-4 6v-25zM711 197l-33 -35q6 2 8 4l27 27v4h-2zM459 438l-1 -18 q0 -3 1 -2q1 3 1 10t-1 10zM659 152q-3 0 -3 -4.5t3 -4.5t3 4.5t-3 4.5zM303 1464q-3 0 -3 -3t3 -3t3 3t-3 3zM328 1468q-3 0 -3 -3t3 -3t3 3t-3 3zM487 61q3 0 3 -3t-3 -3t-3 3t3 3zM78 1366q-3 0 -3 -4t3 -4q2 0 2 4t-2 4zM195 1452q-3 0 -3 -4t3 -4q1 0 1 4t-1 4z M643 221q-3 0 -3 -4t3 -4q1 0 1 4t-1 4zM514 66q3 0 3 -4.5t-3 -4.5q-2 0 -2 4.5t2 4.5zM686 397q-4 0 -4 -3t4 -3q2 0 2 3t-2 3zM774 281q-3 0 -3 -3.5t3 -3.5q2 0 2 3.5t-2 3.5zM186 987q-2 0 -2 -3t2 -3q3 0 3 3t-3 3zM752 1051q-3 0 -3 -3.5t3 -3.5q2 0 2 3.5t-2 3.5z M197 1008q-1 0 -1 -3.5t1 -3.5q3 0 3 3.5t-3 3.5zM340 1464q-3 0 -3 -3t3 -3q2 0 2 3t-2 3zM94 1409v-4h4v4h-4zM258 1458l-4 1v-1q0 -8 4 0zM893 522l-1 -4h1q8 0 0 4zM721 1159v-6h2v6h-2zM274 1458h-2q0 -3 1 -3t1 3zM565 1384l-4 -4h4v4zM459 1323q0 1 -2 1t-2 -1h4z M670 154h-2h2zM319 1462h-2h2zM713 242l4 -2v2h-4z" />
<glyph unicode="e" horiz-adv-x="784" d="M164 8q-1 0 -6 -1t-6 -1q-3 0 -27.5 33.5t-24.5 40.5q0 2 3 4.5t3 5.5q-1 -1 -6 4q0 1 2 6t2 6q0 60 -10 182.5t-10 182.5v31l-23 385v43q0 61 -10 185.5t-10 187.5v4q0 47 16 57q4 1 15.5 -3.5t17.5 -4.5q3 0 11 2t12 2q3 0 5.5 -2t4.5 -2q28 0 64 19t77.5 38t83.5 19 q3 0 6.5 -2.5t5.5 -2.5q25 0 25 5q4 0 7.5 -1.5t6.5 -4t4 -3.5q1 0 28 2t34 2q19 0 80 -13.5t61 -31.5l25 -24q-1 -1 -15 -16.5t-26 -22.5q-48 -23 -88 -23q-17 0 -36 13.5t-28 13.5q-22 0 -59 -24.5t-47 -28.5q-7 -4 -30.5 -12t-31.5 -15q-1 -7 5 -25.5t6 -23.5h10v14 q10 -6 17 -67.5t7 -93.5q0 -33 6 -76t11 -43q0 -4 -1 -8t-1 -7q0 -2 2 -2l4 9q2 -2 5 -23.5t3 -38.5l8 -6q0 -19 4 -48t8 -48l3 -19q10 0 30.5 5.5t32.5 5.5q6 0 16.5 -3.5t16.5 -3.5q11 0 35 4.5t37 4.5q18 0 51 -33q-20 -31 -66.5 -53t-90 -37.5t-54.5 -30.5 q0 -168 10 -283h10q0 -4 -4 -8q27 2 91 21.5t81 19.5q1 0 7 -1t10 -1q22 9 100.5 2.5t58.5 -39.5q-27 -15 -49 -37q-15 -7 -71.5 -31.5t-79 -36t-60 -37t-65.5 -54.5q-4 -4 -12 -20.5t-23 -31.5q-2 0 -4.5 1t-3.5 1q-7 0 -8 -15t-15 -15q-3 0 -4.5 3t-2 7.5t-1.5 5.5 q-1 5 -4 -1q-9 -18 -23 -23q-101 -33 -135 -33q-16 0 -16 6l1 4q1 4 1 8zM281 1174q0 -15 8 -15q0 25 -4 25q-4 -2 -4 -10zM442 152q-1 1 -2.5 -1t-1.5 -4q0 -1 6 5h-2zM289 1096v-4h4v4h-4zM618 281v-7h3z" />
<glyph unicode="f" horiz-adv-x="763" d="M131 -20q-10 40 -10 55v12l-47 381q0 8 -4 52.5t-7 49.5l-22 576q3 37 3 107.5t1 86.5q0 6 1 43t1 43l10 35q5 25 21 25h4q2 0 8 -3.5t6 -4.5q5 -2 23.5 7t23.5 9v-12q3 5 20 8t40.5 4.5t25.5 1.5q13 0 34 11.5t30 13.5q76 29 158 26q10 0 10 -2l4 -4h12q13 -1 40 -1 t40 -1q15 0 39.5 -7t34.5 -9q48 0 51 -2l39 -17q0 -1 1 -7.5t1 -8.5v-2q-1 -15 -11.5 -22.5t-22.5 -8t-22 -4.5t-10 -14q-25 6 -82 -8l-12 -7h-4q-9 1 -29 10.5t-30 10.5q-9 0 -17 -2q-105 -42 -145 -82q0 -3 -1 -19t-1 -18q0 -10 1 -28t1 -27v-2l-2 -8q0 -7 2 -7 q1 -21 1.5 -101.5t6.5 -125.5q1 -1 6 -4l8 151v-143l7 -6l2 53l2 -47q1 -2 11.5 -5t22.5 -5.5t13 -3.5q10 0 30.5 2t30.5 2q11 -1 37.5 -5.5t42.5 -4.5q4 -3 18 -8.5t24.5 -11t10.5 -9.5q-2 -13 -15.5 -21.5t-38.5 -16t-26 -7.5q-1 -1 -14.5 -6.5t-15.5 -7.5 q-3 -2 -38.5 -17.5t-58.5 -27.5t-26 -17q0 -2 -1 -14t-1 -15q-1 0 -1 -40l1 -41v-13l-4 4v-6q0 -28 8 -28v-33l2 -2q0 -3 -1 -18t-1 -17q0 -4 2.5 -27t5.5 -50l4 -36q0 -5 1.5 -11.5t0.5 -14.5l47 -369v-4l-4 -4l-73 600q3 14 -2 60.5t-5 56.5q-1 3 -0.5 7t-0.5 5.5t-5 1.5 v-12q-8 -94 4 -138l11 -143q4 -8 4.5 -34t5.5 -31l18 -187q0 -1 2 -8.5t2 -9.5q0 -1 9.5 -71.5t9.5 -84.5q0 -1 1 -11.5t1 -12.5q0 -25 -6 -35l-4 8q-3 -2 -14.5 -23t-24.5 -28q0 21 -9 30q0 -12 -5.5 -30.5t-14.5 -22.5l-6 19h-2q-2 -17 -12.5 -24.5t-14.5 -18.5l-8 8 l-2 -15q-10 0 -29 -8t-28 -8q-7 0 -15 25h-2q0 -4 1 -11t1 -12q-1 -4 -11 -8t-15 -4l-2 2q-1 0 -7.5 5t-7.5 5l-6 -2v-16q-8 8 -8 26q-1 1 -10.5 5t-10.5 6q-4 6 -8 20t-8 21zM356 1186q4 -28 4 -45h-4v45zM152 496q-5 2 -6 -3q2 -3 4 -4q4 0 4 4q0 3 -2 3zM367 1059 q3 0 3 -3t-3 -3t-3 3t3 3zM279 725q-3 0 -3 -3t3 -3q1 0 1 2.5t-1 3.5zM377 975v-4h4v4h-4zM477 973v-4l4 -2v4zM371 795q-3 0 -3 -3.5t3 -3.5v7zM358 61q-3 0 -3 -3t3 -3v6zM371 782q-3 0 -3 -3t3 -1v4zM326 1315q-3 0 -3 -2t3 -2v4zM166 100v-4h2v4h-2z" />
<glyph unicode="g" horiz-adv-x="894" d="M41 600v66q8 28 8 36h-4q0 16 6 49.5t6 47.5v2l-4 4v2q0 9 5 27t5 24h-4q0 4 2 6q4 6 6.5 13t3 11.5t1 14.5t0.5 15q4 4 6 4q0 1 1 6t1 6v4q10 13 4 31l4 -4q10 16 16 50.5t9 43.5q12 33 44.5 91.5t43.5 84.5l63 74q75 88 139 88l11 -2l22 -4l8 4q4 0 13 -5t12 -6 q17 -5 50 -9t48 -7q44 -10 72.5 -53.5t28.5 -91.5q0 -115 -52 -191l-2 -4q-10 -7 -19 -22.5t-15 -20.5q-13 -10 -38 -14t-30 -6q-2 -1 -8.5 -7t-7.5 -6h-27q0 1 -2 5.5t-2 5.5h-4q0 -1 -1.5 -2t-3.5 -2.5t-3 -2.5v21h-9q0 3 -3 11.5t-5 10.5l-2 5q-2 4 -2 6q0 8 25.5 50.5 t25.5 63.5v4l-8 -6v4q25 66 25 115q0 21 -4 37q-4 4 -13 4h-2q-36 -30 -75 -97t-54 -116q-2 0 -2 -2l2 -4q1 1 6 16q4 9 13.5 23t11.5 14h4v-6q0 1 1 5.5t2 7t3.5 6t5.5 4.5v-3q0 -22 -17 -67.5t-17 -69.5h2q0 -5 -2.5 -14t-2.5 -14v-2l9 2v-13l-4 -22h-7q0 -5 2.5 -10 t2.5 -9q0 -24 -10.5 -75t-8.5 -78q-3 0 -6.5 -37.5t-3.5 -46.5q0 -11 4 -19q-2 -12 -2 -56t2 -56q0 -52 6 -94l10 -62q8 -30 31 -88v4q-33 148 -33 221q0 4 4 6q12 -112 35 -215q0 -1 2.5 -3.5t3.5 -2.5q7 4 7 6h4v-6l-4 -10v-4l8 4h4q4 -10 4 -12h2q7 0 16 9.5t13 16.5v2h2 q2 0 4.5 -1t3.5 -1q5 9 38 89q2 7 -1 -4q-1 -4 -4 -13l-27 -76q1 -1 4.5 -2t5.5 -2q23 63 101 297l-2 6l-7 -6q-1 10 6.5 15.5t8.5 11.5q0 2 -1 14t-1 14h-2q0 -19 -9 -28v28q0 2 -2.5 5.5t-5.5 3.5q-12 -4 -14 -4q-46 -2 -69 4t-23 26q0 9 2 13q-5 0 -10 4t-5 10 q0 14 23.5 35.5t44 37t16.5 17.5q-4 -4 -20 -4q55 31 131 31q98 0 213 -41q0 -19 -11 -28.5t-24.5 -11.5t-26 -9.5t-14.5 -20.5q-6 12 -10 12q0 1 -4 -3q-5 -5 -6 -5q7 -12 10.5 -58t3.5 -48q10 0 10 63v21q3 -13 9 -19q0 -20 -6.5 -62.5t-6.5 -70.5q2 -2 4 -2q5 3 11 22 q0 -27 -4 -48.5t-14.5 -56t-16.5 -58.5q-10 -10 -10 -33q0 -1 1 -4.5t1 -5.5q0 -25 -24 -99t-32 -86h8q0 -8 -11 -20.5t-11 -20.5h8q-21 -23 -84.5 -52.5t-66.5 -31.5l-129 -26q-14 0 -45.5 -1.5t-42.5 0t-32.5 8t-43.5 21.5l-15 2q-31 23 -43 33q-2 2 -4 2q-5 6 -18 18 t-17 19q-64 85 -85 202.5t-21 262.5zM500 797l-54 -43v2q2 1 11.5 12.5t21 20t21.5 8.5zM778 543q-3 0 -5 -2.5t-3 -6.5t-1 -7.5t0.5 -8.5t0.5 -6q8 0 8 16v15zM92 997q3 0 3 -5t-3 -5t-3 5t3 5zM428 1411q3 0 4 -2t0 -4t-4 -2t-3 4t3 4zM367 328q4 -18 12 -29zM797 594 q0 -1 1 -3t1 -3l-2 -6q-2 0 -2 6t2 6zM201 543v-6h6v6h-6zM354 606q3 0 3 -5t-3 -5q-2 0 -2 5t2 5zM375 977q1 0 1 -4t-1 -4q-3 0 -3 4t3 4zM424 315q3 0 3 -4t-3 -4q-2 0 -2 4t2 4zM354 584q2 -2 2 -13t-2 -12v25zM354 643q3 0 3 -3t-3 -3q-2 0 -2 3t2 3zM354 549q3 0 3 -3 t-3 -3q-2 0 -2 3t2 3zM471 1116q3 0 3 -3t-3 -3q-1 0 -1 3t1 3zM100 1020q2 -2 0 -4t-4 0t0 4t4 0zM201 940l-1 -3l1 -3q3 2 3 4t-3 2zM375 1094l-1 -5q0 -4 1 -4q1 1 1 5t-1 4zM469 1106v-4l-4 -4zM436 1403h-2h2zM362 940v-2v2z" />
<glyph unicode="h" horiz-adv-x="845" d="M172 -53q-8 -4 -10 -4l-2 4l-10 12l-7 -6q-39 62 -30 186l-21 189q2 23 -0.5 47t-8 55.5t-7.5 44.5q-33 314 -33 655q0 15 -1 73.5t-0.5 87t5.5 74t14 79.5q5 2 12.5 -2.5t6.5 -11.5q14 19 47 10q3 6 10 6q0 -10 6 -10l7 12l4 -4q1 0 5.5 -1t6.5 -1q6 0 15.5 3t15.5 3 q22 0 36 -12t15 -33h2q3 0 6.5 11t7.5 13h2q4 0 5.5 -5.5t1.5 -12t1.5 -12t6.5 -4.5v10q14 -6 14 -29l4 2h4q5 -13 5 -44.5t5 -41.5q-3 9 5 16t16 7q0 -13 2 -15q0 -1 1 -4t1 -4v-4l-2 -6q0 -13 3 -40.5t3 -39.5v-26q0 -1 -2 -6.5t-2 -6.5q2 -8 4 -8q4 -28 4 -109v-81 q0 -64 4 -84q0 -2 -0.5 -8t0 -8t3 -5.5t7.5 -5.5l7 8q12 -12 20 -12q12 0 23.5 2t24.5 5.5t22 4.5h2v-16q24 0 45 8q0 3 1 19.5t1 19.5v4q0 21 -5 215t-5 217v31q0 53 4 92q3 29 28 29h2l5 -6l4 -7q10 5 12 7l2 2h4l8 -9q8 5 8 7q3 0 8 -3.5t7 -3.5q3 0 5.5 3.5t4.5 3.5h2 q11 -11 16 -11q2 0 13 11h10q12 0 27.5 -10.5t25.5 -10.5v-27q4 -2 6 -2q2 2 5 15.5t10 13.5l2 -2l10 -6v-76q7 3 8 -0.5t1 -9.5t5 -8l6 16l13 -45q0 -10 4 -33.5t10 -23.5v22l4 -39h6v17l23 -60v-561q-6 -14 -6 -35v-14q1 -4 3 -39.5t3 -40.5v-2q0 -7 -5 -20t-12 -17v-37 q0 -23 2.5 -67.5t2.5 -65.5q0 -14 -2 -20v-60q-3 0 -3 2q-3 6 -4 17.5t-4 19.5q0 1 -3 6t-3 6q-4 9 -6.5 21t-3 21t-1.5 23.5t-1 20.5q0 3 -2 25t-2 27q0 10 -6 14v-33q0 -4 6 -157q0 -7 3 -20t3 -19q0 -9 -2 -9q6 -10 8.5 -28.5t3 -43.5t0.5 -30v-4q-5 0 -11.5 15.5 t-12.5 35t-9 23.5v-8q0 -16 6.5 -49.5t6.5 -49.5q-6 0 -9 6q3 -9 -6.5 -39t-15.5 -43l-8 9h-4l-9 -9h-2q-8 0 -8 15h-4l-12 -19h-2q-22 0 -27 11q-2 -8 -2 -19q-1 0 -3 -2t-3 -2q-14 1 -17 15t-10 16l-2 -2h-6q-1 0 -8 7t-8 7h-6q-9 8 -11.5 33.5t-7.5 34.5q-57 199 -57 450 v98q0 6 -1 41t-1 41q-4 0 -4 7q0 1 2 4t2 4v39q-2 6 -12 6q-12 0 -32.5 -5.5t-27.5 -6.5q-2 -1 -23 -5.5t-36.5 -10.5t-14.5 -13l43 -561l-8 -2l-12 -60v-26q0 -1 -4 -6.5t-4 -6.5v-16h-2l-4 2q-5 -10 -9 -14l-8 45h-4v-39q0 -3 -1 -10.5t-4.5 -17t-8.5 -9.5l-2 2l-6 18 l-5 -4l-8 -30h-4q-4 0 -18 -21q-16 -13 -41 -20h-21v12q-5 0 -6 -3t-1 -6.5t-3 -4.5l-22 -11h-5q-6 6 -6 11l-6 -11h-6v17zM739 1403q-3 -5 -0.5 -14t2.5 -13h-10q0 2 1 12.5t1 12.5q4 2 6 2zM745 485q0 -13 7 -20v4q0 23 -2 27q-5 0 -5 -11zM373 700h4v-16h-4v16zM745 524 q-3 0 -3 -5t3 -5t3 5t-3 5zM377 653q3 0 3 -5t-3 -5t-3 5t3 5zM385 561q4 -2 4 -14h-4v14zM784 508q-3 0 -3 -4t3 -4t3 4t-3 4zM793 543q-3 0 -3 -4t3 -4t3 4t-3 4zM381 170q-3 0 -3 -3t3 -3t3 3t-3 3zM788 707q-3 0 -3 -3.5t3 -3.5t3 3.5t-3 3.5zM797 465q1 0 1 -4t-1 -4 q-3 0 -3 4t3 4zM209 -45q0 -6 4 -8v6q-4 4 -4 6v-4zM776 285q-2 0 -2 -4.5t2 -4.5q3 0 3 4.5t-3 4.5zM797 475q1 0 1 -3t-1 -3q-3 0 -3 3t3 3zM360 887q3 -1 3 -5t-3 -5v10zM393 180q-1 0 -1 -3t1 -3q6 3 0 6zM645 227q-3 0 -3 -3t3 -3v6zM377 131l4 -4v8zM750 453 q-1 -1 0 -9q2 2 2 5.5t-2 3.5zM377 637q3 0 3 -2t-3 -2q-1 0 -1 2t1 2zM377 256q-1 2 -1 -1t1 -3q8 4 0 4zM389 211q-1 0 -1 -3t1 -3q3 3 0 6zM276 578v-5h3v5h-3zM522 1311l-4 -4h4v4zM377 668q0 -2 -2 -2t-2 2t2 2t2 -2zM715 100q-1 0 -1 -2t1 -2q4 0 0 4zM244 76v-2v2z M586 416v-2v2z" />
<glyph unicode="i" horiz-adv-x="417" d="M121 -16q-2 -2 -3.5 -5t-2.5 -7t-2 -5q0 2 -5 13t-4 14q-6 -4 -8 -4q-6 0 -12 12q-12 36 -20 78t-12.5 71.5t-6.5 82.5t-2.5 72.5t0 83t0.5 75.5q0 148 13.5 441.5t13.5 439.5q0 19 -2 54t-2 52q6 0 15 -4t13 -4h2q1 0 10 8t17 8h2l2 -12h4q1 0 3 1t3 1q0 1 4.5 2t10.5 2 t8 2h4q0 -1 1.5 -2t3.5 -2t3 -2h2q3 0 39 12q1 0 3 2t3 2l2 2q2 0 4 -5.5t4 -6.5l17 -8q6 2 8 2q26 0 38 -7t13 -30q12 8 6 23q17 0 21 -4q6 -9 8 -9h8q23 -7 23 -43q1 -13 2.5 -36.5t2.5 -42.5t1 -35l-2 -21q0 -4 -4 -34.5t-4 -34.5v-113q-1 -57 -9 -184t-8 -195v-16 q0 -8 -1 -49t-1 -46q0 -12 -6 -18v-340h-10q-1 -12 -13 -72q-1 -8 -9 -18.5t-5 -32.5q-9 19 -16 88l-6 -98q-2 0 -4.5 -2.5t-2.5 -3.5v-19l-10 17q-1 0 -3 1t-3 1q-5 -5 -3.5 -18.5t-2.5 -20.5l-8 -2q0 -1 -2 -3t-2 -3q-12 -24 -31 -35h-12q-2 -1 -7 -6.5t-12 -5.5 q-11 0 -14 20h-2v-27l-8 9l-17 -21q-11 0 -18 21zM324 653q-2 0 -2 -5t2 -5q3 1 3 5t-3 5zM324 393l-2 -3q0 -5 2 -5q3 1 3 4.5t-3 3.5zM276 92l-2 -3q0 -5 2 -5q3 2 3 5t-3 3zM92 1462h6q0 -6 -6 -6v6zM242 238l-1 -7l1 -2q2 0 2 4.5t-2 4.5zM367 666q1 -2 1 -6t-1 -5 q-1 0 -1 5.5t1 5.5zM164 18q-2 0 -2 -4t2 -4q4 4 0 8zM285 203l-1 -8h1q1 0 1 3.5t-1 4.5zM332 250l-1 -8h1q2 0 2 3t-2 5zM319 567q-1 0 -1 -3t1 -3q3 3 0 6zM147 205v-2h5v2h-5zM311 252v-2q3 0 3 1t-3 1zM367 688q1 0 1 -2t-1 -2t-1 2t1 2zM207 143q-1 0 -1 -2t1 -2 q4 4 0 4z" />
<glyph unicode="j" horiz-adv-x="741" d="M74 156q-33 106 -31 163q1 16 5 40.5t5 35.5q5 5 11 22l6 17q5 23 24.5 57t36.5 44h6q0 -1 4 -6.5t4 -6.5h7q0 1 2.5 2.5t5.5 3t4 2.5l-2 -14h8q4 0 4 -12q4 12 19 12q4 0 8 -2t8 -2q5 0 20.5 9t16.5 9l8 -2h4q0 -16 6 -22q13 -2 15 -2q2 -2 4.5 -12t9.5 -11h2l16 19h2 q0 -10 -3.5 -26t-4.5 -23h4q3 10 13 26l2 -4q-1 -23 -16.5 -72t-16.5 -75q0 -56 10 -95q13 8 29 48l26 86v18l19 127l1 16q1 17 1 23q2 74 -21 205v620q0 11 4 15l5 2h14v-17l4 -2q1 0 3.5 2t2.5 4q10 2 12 2q5 0 12 -2t11 -2h2q8 6 8 8h4q0 -1 2 -7t2 -7l4 4h19 q34 0 58.5 -15.5t21.5 -47.5q4 3 7.5 17.5t10.5 14.5q6 -1 5 -27.5t10 -31.5l2 19h4q2 0 2 -21.5t1.5 -46.5t4.5 -31v29h6q2 -15 2 -21q1 -3 0.5 -5t-0.5 -3t2 -3t6 -5l13 -70v15l6 -2v-33l10 16q5 -23 8 -47t5.5 -57.5t4.5 -50.5q0 -2 1 -7.5t1 -7.5q23 -268 17 -415 q0 -63 -4 -95q-22 -129 -52 -204q-18 -42 -46.5 -70.5t-75.5 -56.5q-8 -5 -18 -8.5t-17 -8.5q-123 -44 -264 -37q-31 1 -55.5 17t-37 33t-30.5 49zM690 539q3 1 2 80l-2 79l4 -2q2 -22 4 -32q0 -5 1 -33.5t1 -32.5l-1 -15q-1 -15 -2 -33t-1 -26q-2 -16 -2 -59q0 -5 -16 -113 q0 -2 -2 -10t-2 -10l-2 -2q0 1 -1 4t-1 4l2 8q0 2 1 7t1 7q13 99 16 179zM637 244l25 59v-8q0 -24 -25 -57v6zM301 444q-14 -7 -20 -43h4q1 0 16 37v6zM283 389h-7q-2 0 -2 -20v-9q9 4 9 29zM170 178q-3 0 -4 -2t0 -4t4 -2t3 4t-3 4zM598 176q3 0 3 -4t-3 -4t-4 2t0 4t4 2z M477 131q-3 1 -3 -3t3 -5q3 0 3 4t-3 4zM692 719h2v-12h-4zM154 295q-2 0 -2 -4t2 -4q3 0 4 2t0 4t-4 2zM688 743q3 0 3 -3t-3 -3t-3 3t3 3zM690 760q3 0 3 -3t-3 -3t-3 3t3 3zM688 803q3 0 3 -3t-3 -3q-5 2 -3 6h3zM692 780q2 0 2 -4t-2 -4q-3 0 -3 4t3 4zM410 494 q-3 0 -3 -4.5t3 -4.5q2 0 2 4.5t-2 4.5zM121 520q-1 0 -1 -4t1 -4q3 -2 3 2t-3 6zM664 496q-2 0 -2 -4.5t2 -4.5q3 0 3 4.5t-3 4.5zM664 319h6l-6 -8v8zM612 195v-9h-4q0 5 4 9zM274 348q-2 1 -3 -1q0 -4 3 -5q2 2 2 4t-2 2zM154 510q-2 0 -2 -3t2 -3q3 0 3 3t-3 3zM219 80 q1 1 -1.5 2.5t-2.5 -0.5q0 -3 2 -4q1 2 2 2zM692 737q4 -4 0 -8l-1 8h1zM684 840q2 -2 0 -6v6zM635 231q1 0 1 -2t-1 -2q-3 -1 -3 1.5t3 2.5zM627 213q-3 -9 -9 -12q1 1 4 5.5t5 6.5zM688 784q2 0 2 -2t-2 -2q-3 -2 -3 1t3 3zM637 1141q1 -1 1 -3.5t-1 -2.5l-1 3z" />
<glyph unicode="k" horiz-adv-x="913" d="M168 -47q-50 127 -76 276t-26 285v608q0 51 -12.5 156.5t-12.5 157.5q0 12 8 12q6 0 15.5 -5t15.5 -5q22 0 35 10v-12q2 0 10 -1t10 -1l8 6q2 -4 2 -6h2q5 0 16 5t15 5q11 0 49 -19q9 -3 9 -6q-3 -2 -3 -4q0 -10 7 -10l10 6v14q5 4 8 -1t5.5 -14t6.5 -11l2 -2q6 0 27 14 q3 -13 14.5 -39t20.5 -26h2l10 -56q27 -14 27 -250v-88q0 -8 6 -8q-2 0 20.5 25.5t47 60t24.5 51.5l104 166q14 23 28.5 49t21.5 39t16 25.5t17.5 17t19.5 4.5q8 0 23 -4t24 -4v-10h12v-12q60 0 60 -33q0 -12 -4 -27.5t-7.5 -26t-11 -29t-8.5 -22.5l-45 -84q-21 -17 -21 -38 v-2l2 -5q-8 -4 -10 -8q4 -2 4 -4q0 -9 -7.5 -22t-19.5 -28.5t-16 -21.5l-71 -79q0 -16 -2.5 -20t-8.5 -7t-10 -10l4 -4q0 -8 -9 -18t-21 -20.5t-15 -15.5l-49 -59q-1 -2 -6.5 -7.5t-8.5 -10.5t-3 -11t14.5 -18t19.5 -12l78 -82q12 -13 31.5 -40t33.5 -45t19 -18l135 -157 q35 -17 66 -123l4 -11q6 -8 6 -10l2 -4h-8q18 -32 18 -67q0 -7 -12 -31q-3 10 -12 10l-12 -10l-18 21l-45 52.5t-55 62.5t-51.5 54t-31.5 25l-103 113q-8 13 -30.5 33.5t-30.5 31.5l-55 70q-4 4 -15 15.5t-18 18.5t-8 7q0 -49 2 -147.5t2 -147.5v-35l-6 -8q-3 -3 -7 -30.5 t-4 -35.5q0 -5 1 -12.5t1.5 -12.5t0.5 -6l-7 -49q-9 16 -14 49h-4q-8 -8 -8 -12l4 -8q8 -39 8 -90q0 -6 -4 -6q-7 4 -8.5 21.5t-9.5 17.5h-5q0 -2 -2 -2q13 -54 13 -78l-4 -19q-1 -3 -4.5 -23t-4.5 -22q-8 -34 -59 -30h-6l-12 -13q-7 0 -7 -10q2 -8 2 -10v-4q-4 -4 -6 -4h-2 q-11 0 -31.5 21t-25.5 34zM328 223v-22q10 0 10 22h-10zM238 -80q4 0 4 -4t-4 -4q-5 0 -5 4t5 4zM365 350v-8h4v8h-4zM842 174q-4 0 -4 -4q0 -2 4 -2l2 2q0 4 -2 4zM358 391v-4h7v4h-7zM344 70q2 -2 2 -4l-2 -5q-2 0 -2 5q0 4 2 4zM346 438l4 -4l4 4h-8zM645 1024v-2h4z" />
<glyph unicode="l" horiz-adv-x="555" d="M63 225v113q0 66 2.5 195t2.5 194q0 217 -21 518q0 62 -6 86v12q0 20 4 78q2 9 10 9q5 0 8 -5.5t5 -5.5q4 0 12 7.5t12 7.5q6 -7 6 -9h2q11 0 37 5.5t39 5.5h8q1 0 8.5 -3t8.5 -3q14 2 16 0l8 -11h4l11 11q4 -11 12 -11h2l6 2v-35h6q0 1 -0.5 5.5t-0.5 7.5t2 7t5 5 q3 0 9 -20t6 -27q4 -8 4 -33l6 8q0 -1 2 -6t2 -6h4q2 2 2 8q6 -8 6.5 -27t1.5 -24q1 -1 4 -14.5t3 -18.5q12 -138 12 -164q6 -165 6 -169l-4 -7v-16q0 -19 4 -25q-1 -17 1.5 -44.5t2.5 -39.5v-22l-4 -8v-4l4 -7v-57q0 -62 -4 -185t-4 -184v-4q0 -3 2 -34t2 -35q0 -12 8 -48 t19 -36q0 19 -7.5 56t-7.5 54q0 1 -1 39.5t-1 50.5q0 7 1 32t1 26l2 4q0 -106 4 -160q3 -57 23 -106q1 -4 10 -4q70 -4 98 -11l3 -4q1 0 8.5 -1t9.5 -1v-4l-6 -4v-4q0 -2 10 -2v-4q-6 -5 -9 -13t-5 -10q-6 -4 -20 -9t-21 -9v-2q-4 -13 -62 -23l-157 -37h-66q-7 0 -20 13 q-7 4 -9 6q-2 6 -4 8q-8 -2 -10 0q-2 4 -4 6q-3 4 -14.5 15.5t-18.5 21.5q-16 27 -22.5 78.5t-8.5 60.5zM354 504q2 -9 2 -37t-2 -37l-1 61q0 17 1 13zM74 1343q-3 0 -3 -4t3 -4t3 4t-3 4zM358 580q3 0 3 -4.5t-3 -4.5t-3 4.5t3 4.5zM362 670q3 0 3 -4t-3 -4t-3 4t3 4z M358 518q3 0 3 -4t-3 -4t-3 4t3 4zM358 561q2 -1 2 -7t-2 -7l-1 10zM207 326q-3 0 -3 -3.5t3 -3.5t3 3.5t-3 3.5zM358 709q3 0 3 -3.5t-3 -3.5t-3 3.5t3 3.5zM362 766q3 0 3 -3t-3 -3t-3 3t3 3zM362 795q3 0 3 -3.5t-3 -3.5t-3 3.5t3 3.5zM264 264q-3 0 -3 -3t3 -3t3 3t-3 3 zM244 410q-3 0 -3 -4.5t3 -4.5q2 0 2 4.5t-2 4.5zM201 424q-3 0 -3 -4t3 -4q1 0 1 4t-1 4zM123 180q-1 0 -1 -4t1 -4q3 0 3 4t-3 4zM354 977q3 0 3 -4t-3 -4q-2 0 -2 4t2 4zM358 608q2 -2 2 -6t-2 -6l-1 11zM182 1161q-3 0 -3 -3t3 -3q2 0 2 3t-2 3zM358 647q2 -1 2 -3.5 t-2 -2.5l-2 3zM358 629q3 -3 0 -6l-2 3zM106 420q-2 0 -2 -2t2 -2t2 2t-2 2zM358 846q2 0 2 -2t-2 -2t-2 2t2 2zM354 991q4 -4 0 -4q-2 -1 -2 1.5t2 2.5zM117 201q1 1 -1.5 1t-2.5 -1q4 -4 4 0zM362 809v-2v2z" />
<glyph unicode="m" horiz-adv-x="1261" d="M47 -16q0 18 -3 55t-3 55q0 22 2 46t2 36q0 3 -2 22t-2 21q0 139 15.5 399t17.5 302q0 8 1.5 48t3.5 76.5t5.5 87t11 91t18 77t27 56.5t37.5 18q4 0 23 6t26 6q0 1 1.5 -0.5l4.5 -4.5l3 -3l16 4q29 0 51.5 -4t36 -7.5t29 -16t21 -18t21.5 -26t23 -28.5q4 -6 17.5 -17 t17.5 -16q28 -35 49.5 -74t52 -105t45.5 -95l5 -4q14 10 25 44t16 42v-21q9 7 13 28t7 23l-4 5q12 8 26 46t21 42l-41 -111v-16q5 16 31 75t43 93q9 13 32 52t52.5 98.5t29.5 82.5q0 4 -1 12t-1 9l13 -15q7 7 18.5 22.5t18.5 22.5l8 -10h22q13 0 15 4v-2q0 -9 29.5 -11.5 t29.5 -6.5v-4q3 -9 16 -9q0 -5 -4 -11t-4 -11q0 -16 23 -42t24 -36q16 -86 41 -334l4 -4l4 4v96l5 -4q0 -9 12 -110t12 -103l27 -245q0 -4 -1 -12t-1 -11q0 -21 6 -39l33 -336v-82l-9 13l-10 -2v-62q-8 5 -8 6q-1 0 -12 -19.5t-31 -39t-43 -19.5q-1 0 -4 1.5t-4 1.5 q-3 -9 -13.5 -16t-19.5 -7q-6 0 -11.5 8t-11.5 8v-16q-10 9 -30.5 54t-22.5 59l-88 958q0 6 -4 10q-19 -33 -43.5 -100t-38.5 -94q-27 -27 -55.5 -103.5t-63.5 -105.5v-6q0 -32 -32 -64.5t-64 -32.5q-10 0 -14 7q-25 37 -70 135t-81 172t-50 74v-123q-4 -18 -5.5 -39 t-1.5 -48t-1 -38q-3 -8 -7.5 -85.5t-4.5 -140.5v-69.5v-69t-0.5 -58.5t-2 -62.5t-4 -54t-6.5 -59.5t-10 -55q0 -2 -2 -5.5t-2 -4.5v12h-12q0 -26 -18.5 -51t-18.5 -26v4q0 6 -10 6q3 0 -13.5 -22t-48 -44t-65.5 -22q-3 0 -8.5 3t-8.5 3q-2 0 -18 -8.5t-17 -11.5 q-6 12 -16 12q-5 0 -5.5 -7.5t-4.5 -7.5q-6 5 -10.5 27.5t-18.5 22.5zM379 426q0 -3 1 -36t1 -56q0 -19 -0.5 -40.5t-1 -36.5t-0.5 -17q-4 0 -4 94t4 94v-2zM786 1317v-4q-4 -9 -16 -39.5t-21 -50t-20 -37.5q2 18 12 41.5t25.5 52t19.5 37.5zM383 537q0 -2 1 -13t1 -18 t-1 -17.5t-1 -11.5q-2 0 -2 29q0 31 2 31zM387 608q0 -2 1 -9t1 -11q0 -5 -1 -12l-1 -7q-2 0 -2 19v8v6.5t0.5 5t1.5 0.5zM373 182q2 -4 2 -16t-2 -14q-1 -1 -2 4v12q0 14 2 14zM383 471q0 -14 -4 -18l-2 6q0 10 6 12zM1124 1184q4 -2 4 -8l-2 -7q-2 -7 -2 -12v27zM928 1516 q4 0 4 -5q0 -4 -4 -4t-4 4q0 5 4 5zM1120 1217q2 -2 2 -7q0 -4 -2 -4t-2 4q0 7 2 7zM373 145q2 -2 2 -6t-2 -4t-2 4q0 6 2 6zM938 1507q2 -2 2 -4l-2 -4q-4 0 -4 4t4 4zM78 817h-4q0 -4 2 -4q2 2 2 4zM674 1032l-2 2l-2 -2q0 -2 2 -2t2 2zM395 748q2 -1 2 -3h-6q0 3 4 3z M274 59v-6h2zM666 1069q2 0 2 -2h-4q0 2 2 2z" />
<glyph unicode="n" horiz-adv-x="1007" d="M784 72q-2 0 -2 2q-4 0 -4 4h-2q-3 0 -4 -2t-0.5 -4t-1.5 -4t-6 -2q-12 0 -16 4q0 -11 -5 -11l-2 -2l-20 27q-32 63 -71 131.5t-87.5 150t-75.5 128.5q-46 82 -145 288q-1 -6 -2 -37.5t-2 -37.5q-8 -286 -8 -433v-67l-6 4q-5 0 -5 -4v-33l-4 -4v-57q0 -7 -4.5 -18.5 t-5.5 -16.5h-6q-10 2 -12 2h-6q0 -2 -5 -16t-6 -15h-12l-2 -10q-1 -1 -10 -2t-10 -2l-7 -8l-22 -11h-4q-10 2 -10 4h-3q-8 0 -25.5 -6.5t-23.5 -7.5q-13 0 -24 5.5t-20 17t-14 19.5t-13 24q0 1 -1 2t-1 2l-5 8q-9 45 -22 256v68q0 116 9 349t9 353v182q0 3 0.5 12t1 14.5 t1.5 14t2.5 14l3 11t4.5 8t6 2.5q5 0 10.5 -6t11.5 -6q3 0 9 3t10 3q21 0 67.5 -12.5t61.5 -22.5q2 -5 8 -37v-2q4 0 7 11.5t3 15.5q5 -31 8 -41h7l8 4l10 -12v2q1 0 5 1t5 1l6 -10q9 -13 33.5 -32.5t30.5 -25.5q9 -12 25 -36.5t20 -30.5q24 -33 60 -98t60 -111.5t27 -46.5 q0 2 2 2q16 -21 19 -41l6 -23q2 -17 25.5 -66.5t29.5 -66.5q5 -12 13.5 -39t16.5 -47t19 -39l5 10q0 2 -1 7.5t-1 7.5q0 52 6 138t6 132v41l35 289q6 9 6 22v4l35 181q3 4 10 38t17 63.5t24 29.5h6q-12 -24 -12 -33v-4l34 31q0 -15 7 -17l4 10h4l6 -6l8 10q4 0 4 -4 q0 -1 -1 -3t-1 -3q4 4 10 4l7 -8h18q2 0 5 -3.5t3 -4.5l8 4q13 -3 13 -12t-8 -30.5t-9 -25.5q-16 -57 -32 -231.5t-46 -677.5q0 -31 1 -90.5t1 -87.5q0 -8 -1 -23.5t-1 -23.5q0 -10 2 -14v-33q0 -44 -7 -62.5t-33 -54.5q-1 -2 -4 -7.5t-5.5 -9.5t-5.5 -6l-4 5h-2q2 -1 -6 -8 t-16.5 -16t-8.5 -13zM831 1458q-10 0 -10 -14v-12q10 13 10 26zM748 59q2 0 2 -6q0 -4 -2 -4q-5 0 -5 4q0 6 5 6zM319 254q0 -8 5 -8v2q0 8 -5 8v-2zM657 602q-4 0 -4 -4t4 -4q2 0 2 4t-2 4zM778 287q-4 0 -4 -4t4 -4q2 2 2 4zM338 1233q-4 0 -4 -4q2 -2 4 -2l2 2q0 4 -2 4z M879 1315q-5 0 -5 -4q3 -2 5 -2l2 2q0 4 -2 4zM582 858q-2 0 -2 -4t2 -4t2 4t-2 4zM756 1180q-4 0 -4 -4q2 -2 4 -2l2 2zM211 195q-4 0 -4 -5q2 -2 4 -2l2 2q0 1 -1 2.5t-1 2.5zM154 999q-2 0 -2 -4q0 -2 2 -2l2 2q0 4 -2 4zM170 229h-2q-2 0 -2 -2t4 -2l2 2zM834 1479v-6 l4 6h-4zM90 395v-2h4zM193 102v-2h2z" />
<glyph unicode="o" horiz-adv-x="952" d="M348 -6q-68 31 -117 72l-4 6q-35 40 -47 49q-69 100 -102.5 201t-36.5 219v41l18 196l9 51q34 137 79 275q4 8 8 18t8 22t7 19l35 70q7 14 49 80q4 6 13.5 22t14 23t14.5 18.5t18.5 16t22 8.5t28.5 4h16q4 0 13.5 -1.5t17 -3t8.5 -1.5l4 -4l5 1q5 0 10 0.5t10 0t6 -1.5 q9 -1 35.5 -3.5t43 -7t31.5 -14.5q-6 2 -7 -2q0 -1 1 -2q-2 -7 64 -33q10 -9 45.5 -31.5t46.5 -37.5q11 -12 20 -31q3 -4 15 -13t14 -16l12 -20q1 -8 9.5 -15.5t11.5 -13.5l22 -57q1 0 5.5 -9.5t4.5 -11.5l7 -2l-2 15q7 -5 10.5 -19t1.5 -18l41 -219q-1 -7 -0.5 -19 t1.5 -28.5t1 -18.5l6 -2q0 -4 -2 -6v-117q-8 -12 -8 -111q0 -1 -1 -4t-1 -4q3 3 5 17.5t5 26t8 10.5v26l4 -22v-9l-24 -153q0 -8 -7 -29l-4 -8q0 -1 -2 -1t-2 1q1 -15 -0.5 -28.5t-7.5 -32.5t-8 -25.5t-12.5 -31t-10.5 -25.5q-5 -11 -14.5 -33.5t-17.5 -38t-19 -33.5 q-54 -79 -151 -115.5t-207 -33.5q-9 0 -34 4.5t-36 3.5zM328 399q0 -1 1 -4t1 -4q17 -54 25 -77.5t27 -65t42 -72.5q3 -4 10.5 -13.5t13.5 -16.5t13 -11q84 -10 182 332q0 1 1 4t1 4q4 47 17 72l10 98q3 5 3.5 9t-0.5 10t-1 10q2 4 2 29.5t-2 31.5v56v43q0 1 -10.5 62 t-12.5 81q-7 45 -20 89.5t-35 91t-56.5 83.5t-76.5 55q-20 -13 -48 -68t-42 -95q-2 -3 -11.5 -30t-11.5 -30q0 -1 -7 -16.5t-7 -22.5v-6q4 0 4 4q2 2 5.5 9t2.5 10l6 -4l13 28h6v-2q-61 -174 -76 -348l-8 -57q0 -15 6 -33v14q2 -2 4 -2v-2q1 -18 0 -51.5t0 -50.5 q0 -65 16 -117q0 -1 2 -5t2 -5t-1 -8t-1 -9q0 4 9 4q2 -2 2 -4zM879 518q-14 -71 -7 -65q2 1 5 8l8 45zM807 1169v5l2 -3q16 -29 14 -45h-6q-4 0 -7 18t-3 25zM289 559q-4 -20 -4 -39l6 -2zM823 1120q8 0 8 -20v-4q-8 12 -8 24zM303 713v-4q0 -21 -2 -25l-2 12q0 13 4 17z M782 1217q9 0 9 -11q-9 0 -9 11zM895 838v2q6 0 6 -11l-2 -2q-1 1 -4 11zM256 549q-5 0 -3 -10q1 -3 3 -2t2 6t-2 6zM676 518q-3 1 -4 -2q0 -6 6 -6q1 0 1 2t-1 4t-2 2zM313 766q1 0 1.5 -2.5t-0.5 -5t-3 -2.5t-2 2.5t1 5t3 2.5zM446 127q-4 0 -1 -5q2 -3 4 -3q4 0 1 5 q-2 3 -4 3zM852 340q-4 0 -1 -5q1 -3 3 -3q4 0 1 5q-1 3 -3 3zM322 989q-2 0 -2.5 -4t2.5 -4t3.5 4t-3.5 4zM305 588q1 -3 1 -11.5t-1 -9.5l-1 16zM782 1165q-3 0 -3 -4t3 -4t3 4t-3 4zM287 633q-1 0 -1 -5t1 -5q3 0 3 5t-3 5zM672 532q-5 0 -4 -4q0 -2 2 -2q4 -1 4.5 1.5 t-2.5 4.5zM838 1057q-2 -1 -1.5 -4t3.5 -4v6q0 8 -2 10v-8zM895 858q3 0 3 -3t-3 -3t-3 3t3 3zM846 317q-3 0 -3 -3t3 -3t3 3t-3 3zM305 518q1 0 2 -2t1 -4t-1 -2q-4 0 -4 5q0 3 2 3zM326 383q-2 -1 -1.5 -4t3.5 -4v6q1 1 -2 8v-6zM293 498q-3 1 -3 -2q0 -5 3 -7q1 0 1 4.5 t-1 4.5zM297 672q4 0 4 -4q0 -6 -4 -6v10zM348 1030q-3 0 -3 -4t3 -4q2 0 2 4t-2 4zM905 762q5 0 5 -3t-5 -3q-1 0 -1 3t1 3zM870 369q3 0 3 -4.5t-3 -4.5q-2 0 -2 4.5t2 4.5zM315 969v-6h4v6h-4zM901 633l4 -2l-4 -8v10zM905 653l4 -2q-2 -6 -4 -8v10zM795 1143q-3 0 -3 -3 t3 -3q1 0 1 3t-1 3zM332 1020q-2 0 -2 -3t2 -3q3 0 3 3t-3 3zM268 758q-3 0 -3 -3t3 -3q2 0 2 3t-2 3zM553 106l-6 -8h2l4 4v4zM313 956q-3 0 -3 -4t3 -4v8zM805 1090l2 -9h4zM307 662q2 0 2.5 -3t-0.5 -4q-2 1 -2 7zM852 874q-2 -1 2 -4q3 0 2 2t-4 2zM807 803q-2 -1 2 -4 q3 0 2 2t-4 2zM340 1014q-1 -2 2 -6q4 0 -2 6zM309 483q4 -4 2 -6q-2 2 -2 6zM289 610q-1 1 -1.5 -1t-0.5 -5q2 2 2 6zM874 379q2 0 2 -2l-2 -2l-1 4h1zM313 455q3 -3 0 -6q-1 0 -1 3t1 3zM862 1047q4 -3 0 -7q-2 0 -2 3.5t2 3.5zM903 670l4 -4h-4v4zM791 1200q2 -2 2 -6h-2 v6zM879 938h4v-4zM799 1186l4 -4h-4v4zM887 918l2 -5l-2 -4v9zM729 246q-1 1 -1 0q-1 -3 1 -4q1 0 1 2t-1 2zM334 995q-2 1 -2 -1.5t2 -2.5t2 2t-2 2zM858 846q-2 0 -2 -2t2 -2t2 2t-2 2zM227 244q-1 2 -1 -1t1 -3q4 4 0 4zM319 977h-2q0 -2 2 -2v2zM258 508v-4q2 0 2 2 t-2 2zM786 1157q-2 0 -1 -1t3 -1t1 1t-3 1zM549 1241q-1 1 -1 -1.5t1 -2.5v4zM907 700v-2v2z" />
<glyph unicode="p" horiz-adv-x="870" d="M215 -47l-8 4q0 13 -11.5 40t-13.5 42q-2 21 -6.5 63t-7.5 67.5t-8.5 61t-12.5 64.5l-41 463v6q0 4 -0.5 7l-1.5 9t-2 11l-24 204q0 17 -4 21l-33 287v92q0 4 6 4h12q7 0 11 -4q78 67 144.5 94t168.5 27q32 0 80 -7t114 -28.5t120.5 -54t93 -89.5t38.5 -129 q0 -137 -90 -278.5t-215 -198.5l-32 -16q-2 -1 -7.5 3t-7.5 3q-4 -4 -33 -17l-28 -14v-28l8 -9v-65q8 -11 8 -66q0 -5 -2 -14t-2 -14q0 -15 4.5 -64.5t7.5 -50.5v-76l4 -8v-23q0 -31 3.5 -92t3.5 -90h-7q-1 10 -12 62t-12 59q0 8 -4 12q-2 -2 -4 -2q0 -13 5 -36t5 -35 q0 -6 -3 -10t-3 -7q10 -86 12 -96q1 -9 -3 -19.5t-5 -13.5q-13 39 -19 39h-2q0 -26 -3 -39.5t-8 -23.5t-7 -15l-4 4q-1 0 -3.5 -4.5t-7.5 -10.5t-12 -9q-2 -1 -19 -7t-30 -11t-14 -7l-4 4q-1 0 -3.5 -1t-4.5 -1v-8q-5 0 -9 3t-8 3q-5 -10 -6 -10q-4 0 -5.5 7t-6.5 7 q-6 0 -6 -8v-4q-3 0 -11.5 15.5t-11.5 25.5zM356 1049q-2 -16 8.5 -35.5t10.5 -32.5q0 -101 16 -117l4 -2q79 55 156.5 172t77.5 217q0 55 -65 104.5t-122 49.5q-44 0 -121 -24t-77 -42q0 -10 4 -12q3 2 6 5.5t5 6.5t3 4l8 -6q-2 -6 -2 -18q0 -15 19 -49.5t16 -40.5l8 16 q0 -28 8 -41l25 -135q3 -11 12 -20zM395 840q0 -6 4 -6l68 65q1 4 28 41q5 8 2 5q-3 -2 -14 -13q-20 -17 -55.5 -52.5t-32.5 -39.5zM281 1260q0 -17 4 -19q6 0 6 4q0 15 -10 15zM594 838q-4 0 -4 -7q0 -4 4 -4t4 4q0 7 -4 7zM86 1337q-4 0 -4 -6q0 -4 4 -4q2 0 2 4q0 6 -2 6 zM158 307q-4 0 -4 -4t4 -4q2 0 2 4t-2 4zM537 995q-13 -13 -13 -18q8 8 13 18zM332 12q-2 0 -2 -6q0 -4 2 -4t2 4q0 6 -2 6zM408 248v-6h4v6h-4zM303 1210v-4h4v4h-4zM416 70l-2 2l-2 -2q0 -4 2 -4q2 2 2 4zM621 834q-3 2 -5 2v-7zM549 1012l-2 2l-2 -2q0 -2 2 -2t2 2z M707 956v-2h6z" />
<glyph unicode="q" horiz-adv-x="925" d="M119 262h10q0 6 -4.5 16.5t-5.5 14.5q-7 -5 -9 -2t-5 12.5t-5 11.5l-22 99v2q0 2 5 8t5 10q-11 0 -14.5 3.5t-3.5 17.5v2q1 0 2 2t2 2v4q-4 10 -7.5 31t-7.5 30q-7 46 -16 170l-1 12q-1 12 -1 17q0 2 1 14.5t1 14.5q0 1 8 7t8 7q0 3 -5 6.5t-5 7.5q0 2 3 5t3 6l-2 2l-4 2 l-2 22v123q4 21 8.5 58.5t10.5 68t16 57.5q3 1 7.5 12.5t9 27t7.5 20.5q21 49 41.5 84.5t51 73.5t72 58.5t91.5 20.5h7q33 0 41 -4h4q8 0 25 4t26 4q42 0 57 -18q11 -14 16 -18t25 -15q3 -2 6 -14t7 -26t6 -19q6 -9 44 -28.5t48 -33.5q38 -59 61 -127q0 -1 7.5 -22t7.5 -23 l6 -8v12q0 23 -21 70q-16 41 -35 72h5q16 0 52 -106.5t40 -145.5q2 -9 1.5 -47t8.5 -47q12 -95 6 -195l6 -4v12q10 -10 10 -12v-2q0 -3 -4 -13.5t-4 -13.5q-2 -14 -2 -49q0 -8 2 -12v-23q0 -30 -12 -88t-12 -86v-4q2 0 9 -6.5t7 -7.5v-23q3 -7 18.5 -20.5t18.5 -16.5 q2 -3 10.5 -12t11.5 -10v-4l-18 10l-2 2l-2 -2q-2 0 -6 -4q0 -3 17 -22.5t18 -24.5v-2l-2 -8q0 -2 3.5 -8.5t4.5 -6.5v-16q0 -29 -25 -37q-14 -5 -14 -7q1 -7 -4 -15q-8 8 -15 8l-2 -2q-1 -1 -2 -5.5t-2.5 -9t-3.5 -4.5h-4l-6 4h-4q-8 0 -8 -4q-32 37 -56 51 q-5 -2 -16 -25.5t-18 -29.5q-1 -1 -20 -16.5t-27.5 -22t-24 -16.5t-27.5 -14q-12 -5 -45 -14t-49 -17l-8 -10q-1 0 -8 -3.5t-9 -3.5q-12 -4 -96 -16h-4q-15 0 -27 1t-23.5 5.5t-18.5 7t-18.5 11t-16 12t-18.5 15.5t-19 16l-10 4q-53 39 -89 125q-4 9 -5.5 16t-2 10t-2.5 8 t-8 13zM352 551q8 -15 2 -21l39 -159l33 -86q19 -54 43 -70v12q-45 71 -59 135h4l27 -64q27 -65 38 -65q9 0 29 56t20 67v6l-63 64q-6 2 -24.5 23.5t-18.5 27.5t3.5 10.5t8.5 4.5h4q6 -5 8 -5q28 0 82 13q3 1 18.5 7.5t22.5 6.5q1 0 5.5 -1t5.5 -1v31q-7 -15 -11 -17v9 q0 8 13 47v-15h4q0 12 3.5 29t4.5 29q4 46 4 90h-6q3 137 -25 313q-6 13 -13.5 45.5t-14.5 48.5q-25 59 -41 78q-4 -4 -9 1.5t-9 13.5l-3 8q-19 28 -59 45v2l8 4q2 2 2 4q0 7 -11 13.5t-18 2.5q2 5 10 8.5t15.5 4.5t17 2.5t11.5 1.5v2q0 9 -19 28l-43 -43q-2 -6 -12 -20 t-10 -23v-4q14 21 18 23v-4q-2 -5 -9.5 -19t-11 -21.5t-7 -20t-3.5 -23.5q0 -39 13 -47v30q1 -2 9.5 -10t8.5 -10q0 -11 -2 -34t-2 -34q-1 0 -3 -1q-3 -3 -4 4l-1 3q-10 -6 -18 -18t-12.5 -29t-7.5 -32t-4 -37t-1.5 -33.5t0 -32.5t0.5 -24v-56q0 -1 2 -4t2 -4l-4 -8v-33 q0 -105 20 -225zM786 1116q13 -11 23 -61t10 -78v-19q-29 123 -33 148v10zM539 350q-3 -1 -27.5 -65t-24.5 -70q13 0 33.5 59t20.5 72zM778 918l8 -89q0 -15 5 -20v25q0 22 -4 60.5t-5 51.5h-4q-4 -10 -4 -16v-4q4 -6 4 -8zM57 621q0 -51 9 -54v17q0 28 -5 59l-2 -2 q-2 -14 -2 -20zM586 672q6 -2 6 -8v-9l-10 -61h-2q0 40 6 78zM766 1010l8 -52h6q0 30 -6 54h-2zM825 842q4 -23 4 -54q0 -46 -4 -81v135zM594 788l4 -10v29q0 36 -4 59v-78zM387 449h4q6 -17 8 -23q4 -24 4 -27v-6l-4 8zM772 1151q10 0 10 -18v-11q-10 4 -10 29zM410 1032 q24 0 24 -12q-24 0 -24 12zM760 1065q0 -19 6 -37v6q0 19 -6 37v-6zM592 700v-16h-8q0 14 8 16zM795 379l14 -14q0 14 -12 14h-2zM135 229q3 0 4 -2t0 -4t-4 -2t-3 4t3 4zM821 924q1 -3 1 -9.5t-1 -7.5l-1 12zM387 473q3 0 3 -4t-3 -4t-3 4t3 4zM375 508q3 0 3 -4t-3 -4 t-3 4t3 4zM731 1229q3 0 3 -4t-3 -4t-3 4t3 4zM375 324q-3 0 -3 -4.5t3 -4.5t3 4.5t-3 4.5zM59 668v-13h4q0 9 -4 13zM369 1122q-2 1 -3 -3q-1 -9 3 -9v12zM70 1016q-3 0 -3 -3t3 -3t3 3t-3 3zM104 334q0 -8 5 -10v10h-5zM594 754q0 -6 4 -6v10q-4 0 -4 -4zM82 469 q-3 0 -3 -4t3 -4q2 0 2 4t-2 4zM580 559q-3 0 -3 -4t3 -4q2 0 2 4t-2 4zM616 1212q-2 0 -2 -4t2 -4q3 0 3 4t-3 4zM66 539l4 -4v8zM59 872q-3 0 -3 -3t3 -3v6zM602 1083l4 -4v8zM78 1057q-3 0 -3 -2.5t3 -1.5q2 0 2 2t-2 2zM410 1012q0 -4 -4 0q0 3 3 3t1 -3zM100 350 q-2 2 -2 -1t2 -3q8 4 0 4zM96 397q-2 0 -2 -10l2 6v4zM100 367l-4 -5h4v5zM446 1024h5v-2h-5v2zM481 205q-3 1 -3 -0.5t3 -1.5v2zM70 526v-2h4v2h-4zM195 700l-1 -4h1q1 0 1 2t-1 2zM825 860q1 0 1 -2t-1 -2t-1 2t1 2zM393 1286v-4h-2zM82 1071v-2v2zM371 1094v-2v2z" />
<glyph unicode="r" horiz-adv-x="868" d="M139 72l-35 377q-4 13 -4 29.5v21.5q0 10 -1 30.5t-1 30.5t-1 31t-1 31q-19 473 -55 741q4 10 8 10h49v-2q0 -4 8 -4q4 0 8.5 2t8.5 2h4q91 49 233 49h37l99 -18l6 -4q50 0 109.5 -30t102 -80t42.5 -99q0 -97 -61.5 -182t-157.5 -150q-5 -4 -24 -12t-32.5 -17.5 t-13.5 -19.5l47 -80q3 -4 13 -23.5t18 -29.5l129 -232q3 0 41.5 -69t52.5 -99v-16q2 -2 10 -18.5t10 -18.5l10 -23q10 -22 19.5 -47t9.5 -32q-2 2 -2 -1v-2q5 -42 -45 -65q8 -5 11 -14l-19 -14l-14 2l-10 -2q-21 40 -68 112q-2 3 -11.5 14.5t-14.5 19.5t-9 17l-137 242 q-11 25 -39.5 65.5t-36.5 53.5q-5 9 -21.5 36.5t-29 49.5t-12.5 29l-7 -7l13 -24q3 -37 6 -110.5t6 -110.5q1 -12 7.5 -62.5t6.5 -77.5q0 -22 -5 -66t-5 -67v-18q-5 -4 -5 -20t-13 -17v-25q-1 -5 -8 7t-11 12h-2q0 -4 -1 -22t-1 -21l-6 -10q-3 3 -6 11.5t-8 8.5v-6 q0 -25 -4 -33l-4 4q-4 -11 -37 -34t-60 -23q-10 10 -10 12q-3 -14 -12 -20l-4 4q-4 7 -15 9.5t-16 8.5q-8 11 -13.5 25.5t-7.5 24.5t-4.5 29t-3.5 26zM287 1161q3 -3 7.5 -23t4.5 -34l8 -12q5 -26 12 -87.5t15 -91.5q4 -4 4 -22h2q4 0 8.5 2t7.5 4.5t7 6t6 5.5 q41 33 71.5 60.5t67.5 69t57.5 86.5t20.5 89h-8v17q0 32 -41 57t-85 35t-75 10h-43q-25 0 -63 -8.5t-38 -24.5v-4q0 -2 1.5 -14.5t1.5 -13.5l12 6q0 -10 4 -14l10 -68h8q13 -39 13 -59h4v28zM227 -25q-2 0 -2 -8q0 -6 2 -6t2 6t-2 8zM262 -20q-4 0 -4 -5q0 -4 4 -4q2 0 2 4 q0 5 -2 5zM590 1327q-4 0 -4 -4t4 -4q2 2 2 4zM303 1081q-4 0 -4 -4q2 -2 4 -2l2 2q0 4 -2 4zM451 1368q-5 0 -5 -4q3 -2 5 -2l2 2q0 4 -2 4zM434 872q-2 0 -2 -4t2 -4t2 4t-2 4zM469 565q-2 0 -2 -4t2 -4t2 4t-2 4zM762 43q-2 0 -2 -4h2q2 0 2 2zM748 283q-3 0 -3 -4 q1 -3 3 -3v7z" />
<glyph unicode="s" horiz-adv-x="696" d="M203 20q-36 0 -73 53.5t-58.5 111t-26.5 91.5q0 7 2 7q8 0 13.5 -9t9.5 -10q6 -2 12 -2.5t8 -1.5t5 -4t9 -12q7 -4 13 8q6 -9 10.5 -12.5t13 -6t13.5 -4.5q0 1 1 -2q7 -13 11 -14l2 2l-4 29h6q8 0 20 -22.5t30 -45t38 -22.5q23 0 39 22.5t20 46.5l5 -4q7 -1 16.5 14.5 t11.5 24.5h-4l-18 -20q-1 13 15 36t19 31q40 104 23 219q-8 85 -33 146q-22 47 -77.5 123.5t-69.5 99.5q-6 12 -22 39.5t-27.5 47.5t-10.5 19q-25 52 -39 136q-11 77 12.5 148.5t80.5 109.5q20 12 55.5 27.5t50.5 15.5q32 0 92 -25q10 -4 41 -11.5t49.5 -18t30.5 -31.5 l10 -15q3 -9 -9 -26t-13 -21q-5 -21 -22 -51.5t-33 -30.5q-5 0 -10.5 6.5t-10.5 6.5v12v10h-6l-4 25h-4q-3 0 -6 8q-1 5 0 17t0 18q0 7 -5.5 12.5t-13.5 5.5q-24 0 -53.5 -28t-32.5 -54q3 -16 -2 -60.5t-2 -68.5l8 -2l4 -31l2 -4q1 0 3 3t4 8t2 10q6 -49 56 -126t117 -161.5 t83 -110.5q49 -83 63 -198q13 -103 8 -144l-2 -11q-11 -63 -18 -77q-6 -10 -15.5 -31.5t-15.5 -31.5q-48 -81 -108.5 -123t-159.5 -70q-2 -3 -9.5 -4.5t-14.5 -1.5h-7zM590 553q-4 0 -4 -6q0 -4 6 -4v4zM266 166l4 -2q4 -4 -2 -4q-2 0 -6 4q2 2 4 2zM412 178q-6 0 -2 -4 l2 -4q2 0 2 4zM43 291l4 -2l-2 -2h-2v4zM410 1395h-4q0 -2 2 -2t2 2z" />
<glyph unicode="t" horiz-adv-x="880" d="M342 -117q0 3 -1 14l-1 11q-4 8 -4 12l-6 -2v-22q-4 0 -9.5 20.5t-12.5 43.5t-15 26l-45 768q1 11 -0.5 31.5t-1.5 27.5v90q0 5 -2 45.5t-2 44.5v4q0 2 2 27.5t2 28.5v12q0 4 -2 10t-2 10t2 13t2 14q0 10 -4 14v164q-18 0 -56.5 -10t-60.5 -10h-33q-5 4 -14.5 7.5 t-11.5 4.5q-5 4 -9 17.5t-8 17.5l-8 6v6q0 7 7.5 12.5t15.5 8t19 5t13 3.5q5 2 59 19.5t83 23.5q10 2 37.5 3t50.5 4t32 11q50 -2 143.5 3t129.5 5h108q13 -4 32.5 -6t36 -6t32.5 -14v-8l-2 -17q-11 -2 -13 -2q-1 -1 -8 -3t-8 -3q-36 -13 -70 -18q-11 -2 -161 -13l-35 -4 l-4 -4v-117q0 -2 1.5 -47t6 -220.5t10.5 -436.5q0 -2 2.5 -5t3.5 -3q-1 -29 -0.5 -43t3 -43t3.5 -43q1 -13 7 -103t6 -137q-4 -6 -4 -8v-49q-15 0 -15.5 -37t-7.5 -37l-8 2q-1 0 -4 -1t-4 -1q0 11 -9 14l-2 -4l-10 -67q-2 -2 -2 -4q0 22 -12 28l-6 -4v-43q-6 -1 -31 -22 t-31 -21q-10 0 -26 12h-4q0 -1 -2.5 -6t-2.5 -6h-2l-10 4q-4 0 -7.5 -2t-8.5 -2h-11q1 5 -3.5 7t-10 1t-6.5 -2zM557 942h8v-65h6l2 -21q-4 4 -4 8l-4 -2q0 -4 1 -11t0.5 -12t-3.5 -10q-1 6 -3 44.5t-3 44.5v24zM567 719v24q1 -1 3.5 -2.5l5 -3t2.5 -2.5v-4q0 -4 -7 -4v-78 q-4 20 -4 70zM557 999q6 -14 6 -45h-6v45zM569 625l4 -7v-45q-4 24 -4 45v7zM582 479q2 -6 2 -28.5t-2 -28.5l-1 47zM578 547q2 -6 2 -23.5t-2 -23.5l-1 37zM545 35q0 -7 6 -10l4 4q-3 6 -10 6zM563 813q1 -1 1 -8t-1 -8q-4 0 -3 12q2 3 3 4zM543 -25q1 -3 1 -10t-1 -10 l-1 16zM825 1393q2 -4 9 -4q0 5 -7 8zM578 778q2 -3 2 -10.5t-2 -9.5l-1 16zM328 -47v-16h2v16h-2zM573 950q3 0 3 -3t-3 -5l-1 3q0 5 1 5zM586 375q2 -1 2 -6t-2 -7l-1 11zM573 918q3 0 3 -3t-3 -4l-1 4zM569 1116q6 -3 0 -6q-1 0 -1 3t1 3zM573 934q3 0 3 -2t-3 -2l-1 4h1 zM586 393q2 0 2 -3.5t-2 -4.5l-1 8h1zM555 1176q1 0 1 -3t-1 -4l-1 4zM555 1135q1 0 1 -2.5t-1 -4.5q-1 0 -1 3.5t1 3.5zM555 1157q1 0 1 -2t-1 -2t-1 2t1 2zM281 817q1 1 -1 1l-4 -1q0 -1 2.5 -1t2.5 1zM362 1221q2 1 -1 1t-3 -1q4 -4 4 0zM557 104l-2 -4h2v4z" />
<glyph unicode="u" horiz-adv-x="905" d="M57 500q-4 4 -7 29.5t-3 37.5q-6 43 -6 123v58q7 99 20 188l7 37q60 321 87 398q15 43 27 44h47l9 4q4 0 20 -8q0 1 3 4.5t5 3.5h4l6 -4q2 0 13.5 3t13.5 3h2q15 0 27 -6l6 -4q5 -2 10.5 -3t7.5 -1.5t3 -2.5t1 -7q0 -9 -2 -11l9 -4q2 -18 4 -28v-4q0 -42 -13 -72h4l13 16 l4 -6q0 -35 -11.5 -103.5t-11.5 -103.5h6q-1 -14 -8.5 -46t-7.5 -50l4 -6q0 -10 -8 -14v-21q0 -22 -4 -62.5t-4 -60.5q0 -81 8 -141q1 -11 6.5 -32t5.5 -32v-8l21 -116q0 -4 8.5 -36.5t9.5 -39.5l15 -37q2 -2 2 -4q26 -86 49 -86q6 0 8 2l4 -8q2 1 6 7.5t6 8.5q0 -14 6 -14 q82 163 115 374v9q0 8 7 86.5t7 87.5v123q0 38 -9.5 92.5t-10.5 77.5l-43 168q-8 31 -8 63v20q7 7 12 7q1 0 3.5 -5.5t8.5 -5.5q7 0 11 6.5t8 6.5q6 0 14 -25q12 29 25 29q10 0 10 -17q17 21 33 21t29.5 -20t17.5 -23l3 3q2 3 4 5t5 2q54 -154 68 -248l6 -6q4 4 4 6 q0 6 -5 17.5t-5 17.5l-31 152q9 -12 13.5 -27.5t8 -37t5.5 -30.5q1 -2 16 -57.5t20 -91.5l5 -8q4 -12 4 -51l6 -17l6 35q0 -75 12 -80v-53q0 -146 -18 -287l-51 -166q0 -2 -4 -13t-9 -23.5t-6 -14.5q-4 -10 -6 -29.5t-6 -29.5q-58 -135 -197 -197q-7 -3 -36.5 -17t-41.5 -19 t-35.5 -14t-43 -12t-39.5 -3q-70 0 -121 40q-90 67 -129.5 159.5t-63.5 234.5zM362 1094q3 0 3 -4q0 -5 -3 -5q-4 0 -4 5q0 4 4 4zM358 1270q-4 0 -4 -4t4 -4q2 0 2 4t-2 4zM760 676q-4 0 -4 -4t4 -4q2 0 2 4t-2 4zM182 238q-4 0 -4 -5q0 -4 4 -4q2 0 2 4q0 5 -2 5z M631 1307q-4 0 -4 -4q0 -5 4 -5q2 0 2 5q0 4 -2 4zM817 969q-4 0 -4 -4q2 -2 4 -2l2 2z" />
<glyph unicode="v" horiz-adv-x="876" d="M123 743q-12 36 -19.5 108.5t-15.5 102.5l-47 349v20q0 31 6 74h2q4 0 5.5 -4t6.5 -4t8 6t7 6h59q2 0 4 3.5t3 7.5l1 3q4 -10 15 -10q8 0 13.5 6.5t8.5 13.5l2 7q11 0 23 -10t14 -11q2 6 4 6h4q11 0 17 -6l6 -6v-57l12 20l8 -39h9q0 -5 -5 -8v-29l5 -35h6q0 3 -1 6.5 t-0.5 5.5t3.5 7q0 -1 1 -9.5t2 -14t3.5 -12.5t5.5 -11t8 -4v20q0 -2 4 -20.5t8.5 -34t10.5 -25.5l20 -92h8l45 -282q-3 -24 18.5 -73.5t16.5 -76.5l11 6v-4q6 0 9 6.5t5.5 17t5.5 15.5q2 -2 2 -10q0 -6 -5 -21t-5 -22q2 -4 4 -4q0 6 4 14l188 565q44 105 56 125l4 4l8 -24 q0 -2 2 -2q8 0 14.5 14t8.5 16l4 -8l12 14l10 -10h4q8 8 8 10q0 -1 4.5 -10.5t4.5 -13.5v-2l-4 -8v-4q4 0 11.5 9t10.5 11v-31l6 -2q4 0 4 8l2 -8q0 -12 -9 -31.5t-9 -29.5l2 -6q1 1 6.5 12t10.5 19t8 8v-7l-48 -163q-4 -7 -4 -9q-3 -9 -18 -45.5t-21 -56.5q-1 -2 -6 -28 t-6 -29l-104 -400q-3 -14 -26 -107t-34 -143q-1 -5 -3.5 -9.5t-2.5 -6v-8.5l-24 -133q-4 -21 -20 -30.5t-17 -10.5q-7 -10 -32 -39t-32 -33q-4 -4 -20 -4l-4 -8q-8 -5 -30.5 -13t-29.5 -8q-10 0 -17.5 4t-16 13.5t-11.5 11.5q-82 73 -98 182zM481 733v-8q0 -10 -10 -37v10 q0 15 10 35zM55 1376v-39q4 8 4 27v4q0 6 -4 8zM780 1303q-3 -1 -2 -7q-2 -2 -1.5 -6t3.5 -4t3 4t-3 6q3 0 3 3.5t-3 3.5zM283 1255q-3 0 -3 -5t3 -5t3 5t-3 5zM211 332q-3 0 -3 -5t3 -5t3 5t-3 5zM63 1411q3 0 3 -5t-3 -5t-3 5t3 5zM164 1098q-3 0 -3 -4t3 -4t4 2t0 4t-4 2 zM170 1389q-4 0 -4 -4.5t4 -4.5q3 0 3 4.5t-3 4.5zM510 846q3 0 4 -2t0 -4t-4 -2t-3 4t3 4zM418 778q2 -2 2 -8.5t-2 -9.5l-1 15q0 4 1 3zM309 209q-3 0 -4 -2t0 -4t4 -2q1 0 1 4t-1 4zM330 233q-3 0 -3 -4t3 -4t3 4t-3 4zM354 1098q3 0 3 -4t-3 -4t-3 4t3 4zM55 1321 q-3 0 -3 -4t3 -4t3 4t-3 4zM498 608q-3 0 -3 -4t3 -4t3 4t-3 4zM55 1309q-3 0 -3 -4.5t3 -4.5t3 4.5t-3 4.5zM498 799q3 0 3 -4t-3 -4t-3 4t3 4zM358 440q-3 0 -3 -4t3 -4t3 4t-3 4zM780 1317q-2 1 -3 -2q0 -5 3 -6q2 0 2 4t-2 4zM299 1075q-3 0 -3 -3t3 -3t3 3t-3 3z M494 780q3 0 3 -3t-3 -3t-3 3t3 3zM350 780q-3 0 -3 -3t3 -3t3 3t-3 3zM455 618q-1 0 -1 -5t1 -5q3 2 3 5t-3 5zM414 803q4 -4 0 -8q-2 -1 -3 2q-1 6 3 6zM506 823q2 0 2 -5.5t-2 -6.5l-1 9zM283 1348h4v-11q-4 4 -4 11zM717 1300v-8q4 2 4 8h-4zM244 436q-2 0 -2 -4t2 -4 q3 0 3 4t-3 4zM311 98q-1 0 -1 -3t1 -3q3 0 3 3t-3 3zM350 1055l4 -4v8zM784 1169v-4h4v4h-4zM279 508q0 2 -2.5 2t-2.5 -2q0 -3 2.5 -3t2.5 3zM442 631q2 1 -1 1t-3 -1q0 -3 2 -3t2 3zM238 225q-3 1 -3 -1.5t3 -2.5q4 4 0 4zM729 1329l4 -4h-4v4zM410 823v-2q-3 -1 -3 0.5 t3 1.5zM422 739q2 0 2 -2t-2 -2t-2 2t2 2z" />
<glyph unicode="w" horiz-adv-x="1218" d="M256 -6h-2q-6 -2 -8 -4q-22 29 -38.5 69.5t-23.5 68.5t-18 77l-6 24q-19 127 -56 557q-2 27 -3.5 114t-8.5 134q-4 26 -9 71.5t-9 70.5l-23 147v8q0 9 -5 32.5t-5 31.5q0 14 6 14q5 0 14.5 -6t14.5 -6h6q1 1 7 2t11.5 2t5.5 2h3l32 -8h2q1 0 25 8h2q8 0 20 -10.5 t17 -10.5q1 0 3 1t3 1q0 -4 8 -12l4 -8q3 0 7 6t6 6q4 0 16 -24h4q0 1 2 5t2 5h2q4 0 6 -5t4 -12t2 -8l9 4q28 -74 37 -131h4v35q11 -21 59 -336q1 -4 1 -25.5t1.5 -40.5t5.5 -22q0 -116 17 -147q0 8 6 14q0 6 27.5 63.5t29.5 57.5l2 2v-2q2 0 -12.5 -30t-30.5 -66.5 t-16 -48.5v-7q4 9 36 85t57 126t36 50q12 0 12 -19q1 0 3 3t3 3l6 13q-1 -3 3 -4t9.5 -0.5t12 -2t10.5 -8.5l10 6q3 -5 9 -22h2q2 0 7.5 3t8.5 3q7 0 9.5 -6t2.5 -12.5t7 -12.5t22 -6q6 0 15 3t14 3h2q3 -2 18 -9t23 -14t10 -16l16 -63q3 -14 10.5 -37t8.5 -23h2q0 16 1 16 q2 -1 10 -14q0 -1 1 -2q4 -4 4 -8l51 -225l6 -4q2 52 16 146.5t17 131.5v11q9 213 56 424q2 11 12 26l4 -4q2 4 6.5 21t5.5 18v2q-1 1 -2 3t-2 3.5t-2 1.5v2q4 0 14.5 39t30 78t43.5 39h6v-2l-2 -8v-2q4 0 11 1t12 1q18 0 24 -17l13 8q0 -1 3 -4t3 -4h12l4 -6q5 -3 10.5 -3 t7 -2t1.5 -13q0 -13 -9 -41t-10 -33q-52 -203 -67 -324v-8q0 -26 -9 -57l-32 -473q-1 -2 -4.5 -32.5t-7.5 -69.5t-7 -56q-3 -24 -26 -68.5t-23 -54.5l-6 4q-3 0 -6.5 -5t-3.5 -7t2.5 -10t3.5 -8v-5q0 -4 -5.5 -6.5t-6.5 -5.5q-7 -22 -13.5 -28.5t-22.5 -9.5t-28 -9 q-16 -12 -27 -12h-2l-6 4q-4 -2 -4 -4h-2q-1 1 -3 1.5t-3.5 1t-1.5 1.5h-4q0 -1 -2 -2t-2 -2h-2q-8 0 -17.5 12t-19 33t-16.5 40t-15.5 43t-11.5 32q-60 136 -72 178l-12 41q0 16 -6 22l-50 238q-2 2 -4 2h-4q-43 -79 -47 -119l-80 -229l-30 -125q0 -7 2 -21t2 -20v-15 l-11 27q-2 -8 -2 -10q0 -6 4.5 -19t4.5 -20q0 -27 -13 -53q4 0 4 -4q-2 -2 -4 -2l-2 2q-7 -7 -10 -7q-1 0 -5 1t-5 1v-32q-11 0 -19 -4l-2 -11h-4q-4 0 -8 4h-2q-5 0 -9.5 -11t-11.5 -13h-16q-10 0 -30.5 -7t-32.5 -7q-6 0 -14 6t-13 6zM803 680q0 -9 4 -21q0 2 3 8t3 7l2 2 q-8 0 -8 10v6q-4 -4 -4 -12zM514 389v-6q0 -7 -8 -23v2q0 19 8 27zM528 434v-4q0 -15 -8 -18v2q0 8 8 20zM1102 1386q-4 0 -4 -4t4 -4t4 4t-4 4zM176 516q-4 0 -4 -4t4 -4q2 0 2 4t-2 4zM911 449q-4 0 -4 -5q0 -4 4 -4q2 0 2 4q0 5 -2 5zM754 836q-4 0 -4 -5q0 -4 4 -4 q2 0 2 4q0 5 -2 5zM428 88h-2q-2 -2 -2 -4q0 -4 4 -4q2 0 2 2q0 1 -1 3t-1 3zM492 850q2 -2 2 -4l-2 -4q-5 0 -5 4t5 4zM1032 1270q-4 0 -4 -4q0 -2 4 -2l2 2q0 4 -2 4zM664 883q2 0 2 -4q0 -2 -2 -2l-5 2q0 4 5 4zM487 842q2 0 2 -4q0 -2 -2 -2l-4 2q0 4 4 4zM502 346v-4 q-2 -4 -4 -6v4q0 6 4 6zM479 823q2 0 2 -4q0 -2 -2 -2l-4 2q0 4 4 4zM461 147q2 0 2 -4q0 -2 -2 -2l-4 2q0 4 4 4zM975 1192q-2 0 -2 -4t2 -4q2 2 2 4q0 1 -1 2t-1 2zM295 1202q-2 0 -2 -4q0 -2 2 -2l2 2q0 4 -2 4zM961 1110q-3 0 -3 -4q1 -2 3 -2l2 2q0 1 -1 2t-1 2z M322 1270q2 0 2 -2h-5q1 2 3 2zM334 1018q-2 2 -4 2v-2h4zM494 324l2 -2l-2 -3v5zM942 666l-2 -2h2v2z" />
<glyph unicode="x" horiz-adv-x="882" d="M102 66q-16 -16 -16 4q-4 -4 -6 -4l-2 -3l-2 3q-1 0 -2 1t-2 1q-2 -2 -4 -2v-11h-2v4q0 13 -1 19t-6.5 12.5t-17.5 7.5q2 16 14 58q2 4 13 38t14 42q4 6 4 8q1 4 10 25.5t19.5 44.5t11.5 26q147 319 166 389q3 8 14 30t17.5 39t7.5 31v15q-5 5 -15 35l-24.5 52.5 t-32 68.5t-16.5 36q-75 125 -78 129q-10 7 -48 72.5t-38 81.5q1 7 3 8.5t7 1.5q19 0 33 -2q-3 8 6 8q6 0 17 -5t16 -5l6 4h6q6 0 10 -4q30 10 41 10q3 0 25.5 -12.5t25.5 -15.5l3 4l10 6l28 -21q10 4 37 -28t55.5 -72.5t36.5 -46.5v8q4 0 7.5 -3.5t6 -8.5t3.5 -6h2 q3 0 17.5 31.5t19.5 46.5l92 174q2 2 2 4q20 35 39 35h2q8 -11 25 -13q6 0 10 1t6 1q6 0 10 -6t6 -6l11 6h2q4 0 10.5 -3t11.5 -3q7 -1 16.5 0.5t12.5 1.5q13 0 27 -20.5t10 -34.5q1 1 4 6t5 8.5t6 6.5t7 3q0 -16 -16.5 -47t-16.5 -45v-2l2 -2q0 -4 -2 -9.5t-2 -10.5 q5 0 15 23t20 28q-11 -16 -19 -48.5t-10 -37.5q-2 -6 -16 -37.5t-14 -48.5h6q-3 -58 -39 -107l-92 -229v-2q-2 -35 37 -105l6 -28q6 -11 16 -25q15 -47 67.5 -132.5t67.5 -129.5h-4q-13 23 -18 27v-2q0 -7 2 -12.5t6 -13t6 -11.5v-4q-1 0 -2 -2.5t-2 -2.5q19 -8 19 -24 q0 -2 -2.5 -5t-2.5 -5v-2q3 -2 5 -2q0 -2 4 -13t4 -12h-4l-29 41v-6q0 -11 6.5 -37.5t5.5 -40.5q0 -20 -4 -43q-4 -8 -4 -20q-3 -3 -22 -9t-25 -6h-2q-8 2 -8 4l-2 2h-2q4 -12 4 -22q-4 1 -10 4.5t-9 3.5l-2 -14q-5 0 -10 4t-10 10.5t-6 7.5l-2 -8l-2 -2l-3 2q-2 0 -6 4 q-8 17 -33 77.5t-42 90.5q-17 34 -86 131q0 1 -3.5 5t-3.5 5h-2q-2 0 -12 -10q0 -1 -4 -11t-8.5 -21t-5.5 -13l-7 -6h-4q3 4 8.5 15.5t11.5 24.5t7 15q4 6 4 17q0 10 -8 10q-2 0 -4 -3.5t-4 -9t-2 -6.5q-9 -9 -9 -16l3 -4v-4q0 -1 -5.5 -9.5t-12.5 -19t-9 -14.5 q-74 -166 -96 -211q-1 -1 -2 -3q0 -2 -0.5 -2.5t-1.5 -0.5q0 -1 -5.5 -6.5t-5.5 -6.5l-14 -24q-8 -2 -12 -4q-7 -2 -18 -25.5t-27 -23.5q-24 0 -41 -31q-9 6 -11 6q-7 -1 -23.5 -10.5t-29.5 -7.5l-4 -5h-31q0 -1 -1 -3t-1 -3h-6l-6 6q-9 0 -16 1.5t-11 1.5zM649 664 q0 -15 8 -19v4q0 14 -8 17v-2zM627 707q0 -12 8 -17v4q0 13 -8 13zM473 393q0 7 8 15q0 -14 -8 -17v2zM344 201q-2 0 -2 -5.5t2 -5.5q4 0 4 5.5t-4 5.5zM453 348q3 0 3 -4t-3 -4t-4 2t0 4t4 2zM768 1137q4 0 4 -4.5t-4 -4.5q-3 0 -3 4.5t3 4.5zM250 539q-3 0 -3 -5.5t3 -5.5 t3 5t-3 6zM231 555q-3 0 -3 -4t3 -4q3 -1 3 3t-3 5zM825 1335q3 0 3 -3t-3 -3q-5 0 -5 3t5 3zM672 623q-3 0 -3 -4.5t3 -4.5t3 4.5t-3 4.5zM668 631q-3 0 -3 -4t3 -4t3 4t-3 4zM145 233q-3 0 -3 -4t3 -4t3 4t-3 4zM659 827q3 0 3 -4t-3 -4t-3 4t3 4zM420 270q3 0 3 -3t-3 -3 q-4 0 -4 3t4 3zM211 285q-3 0 -3 -4.5t3 -4.5t3 4.5t-3 4.5zM446 340q3 0 4 -2t0 -4t-4 -2q-2 0 -2 4t2 4zM461 369q3 0 3 -5.5t-3 -5.5q-1 0 -1 5.5t1 5.5zM643 676q-4 1 -4.5 -1.5t2.5 -4.5q5 0 4 4q0 2 -2 2zM774 1251q-1 -1 -2 -4.5t-2 -5.5v-4q4 2 4 10v4zM692 336 q-4 0 -4 -3t4 -3q1 -1 1 1zM647 788q0 -7 -6 -4q-1 3 1.5 4.5t4.5 -0.5zM293 1100q-6 0 -8 -4h8v4zM301 1087q-1 0 -1 -3t1 -3q5 0 5 3t-5 3zM131 78q-1 0 -1 -4t1 -4q3 0 3 4t-3 4zM678 608q0 -16 4 0h-4zM444 328q2 0 2 -3t-2 -3q-3 0 -3 3t3 3zM440 1171l4 -4v-4 q-4 2 -4 4v4zM733 518h-4l4 -4v4zM457 356q1 0 1 -2t-1 -2q-3 -2 -3 1t3 3zM741 504q0 -1 1 -3t1 -3q0 1 1 2t1 2l-4 4v-2zM625 713q-3 0 -3 -2t3 -2q4 0 0 4zM289 690q0 3 -2 3t-2 -3q4 -4 4 0zM627 1176q-3 0 -3 -2.5t3 -2.5v5zM745 1126q-1 0 -1 -3t1 -3q3 3 0 6z M676 614q-2 2 -2 -1t2 -3t2 2t-2 2zM432 299q2 0 2 -2t-2 -2t-2 2t2 2zM440 315v-2l-4 -2z" />
<glyph unicode="y" horiz-adv-x="729" d="M221 -156h-10v-14q-31 29 -31 115v202q5 5 7 15.5t1 20t0 18.5q4 54 14.5 158t14.5 155l4 10v11q0 1 -4 16t-16 67.5t-29.5 136t-49.5 249t-71 378.5q-1 5 -5.5 15.5t-4.5 17.5q0 15 10 15h4q9 -9 11 -9l6 4q9 0 14 -10h4q1 0 9.5 2t9.5 2h4l4 -4h2l4 4h24q16 0 42 -6.5 t34 -15.5q4 4 13 4q28 0 55 -23t31 -51h4q1 0 9.5 -30.5t18.5 -71t15 -64.5q1 -2 28 -160q0 -2 2 -2q3 0 45 84q17 43 33 64l10 18q3 5 14 28t17 28v-2q0 -2 -2 -6.5t-2 -6.5v-4q13 7 44 77.5t40 70.5q6 0 6 -9q0 -6 -4 -17t-4 -17h2l14 28q4 2 12 9.5t13 7.5 q0 -15 12.5 -16.5t12.5 -8.5q0 -6 -5.5 -16t-5.5 -15v-4q5 11 21 11q13 0 16 -5v-14q0 -5 -2 -15t-2 -16v-2q4 -8 4 -10q0 -5 -8 -29q-4 -6 -6 -6v-16q-2 -24 -18.5 -69.5t-18.5 -51.5l-123 -266q-13 -10 -36 -57.5t-23 -59.5v-2q0 -14 4 -22q20 -10 20 -15v-47q2 -2 8 -20 q0 -21 5 -41q6 -4 6 -25q0 -14 -1 -28.5t-2.5 -32.5t-2.5 -29q-1 -7 -5 -52t-4 -53q-1 -24 -7.5 -69t-8.5 -64l-8 -34h-8q0 -3 1 -18.5t1 -18.5q-1 -6 -6.5 -18.5t-6.5 -18.5q-6 -12 -6 -49q-1 -1 -2 -6.5t-2.5 -9t-5.5 -3.5v-30q-4 0 -4 2q-6 6 -6 8v-8q-14 0 -17 14 l-6 -76h-2q-6 0 -16 29q-5 -42 -13 -53q-2 -4 -7 -4.5t-7 -4.5q-5 -9 -7.5 -18t-3.5 -13t-8.5 -9t-23.5 -11h-2q-3 0 -5.5 6.5t-2.5 10.5q-3 -16 -14 -19q0 2 -3.5 7.5t-7.5 6.5v-30q-4 4 -4 8h-2q-8 0 -8 -10l-4 -4q-1 0 -7 2t-7 2q-5 0 -7 -2q-8 8 -8 30zM387 -14 q-3 0 -3 -4.5t3 -4.5t3 4.5t-3 4.5zM532 977q-3 0 -3 -4t3 -4t3 4t-3 4zM645 1126q-3 0 -3 -4t3 -4t3 4t-3 4zM477 774q-3 0 -3 -4t3 -4t3 4t-3 4zM492 1155q-3 0 -3 -4t3 -4t3 4t-3 4zM659 1202q-3 0 -3 -4t3 -4t3 4t-3 4zM397 1317q3 0 3 -3t-3 -3t-3 3t3 3zM293 1346 q-3 0 -3 -3.5t3 -3.5t3 3.5t-3 3.5zM311 -150q-3 0 -3 -3t3 -3t3 3t-3 3zM412 -29q2 -1 2 -4.5t-2 -3.5q-2 -1 -3 2q-1 6 3 6zM315 -88q-3 0 -3 -3t3 -3q1 0 1 3t-1 3zM422 186q-2 0 -2 -3t2 -3q3 0 3 3t-3 3zM213 -137v-4h4v4h-4zM152 1430q2 0 2 -2.5t-2 -2.5t-2 2.5 t2 2.5zM598 1335q2 1 -1 1t-3 -1q4 -4 4 0z" />
<glyph unicode="z" horiz-adv-x="716" d="M651 1339q3 0 3 -3t-3 -3h-2q13 -19 15 -28v-50q0 -62 -43.5 -202t-45.5 -219h-4l-4 -5q4 0 4 -6q0 -20 -13.5 -62.5t-10.5 -66.5q-1 -1 -18 -61t-36 -126.5t-22 -76.5q0 -11 -14 -53q-27 -98 -27 -113v-24l10 -2q20 1 47.5 -4t40.5 -5h2l11 4h2q8 0 18 -10q-8 0 -10 -2 v-4q29 0 37 -4q4 0 23 -3.5t24 -6.5h2q18 -4 14 -17l25 -26h-12q4 -2 4 -8q0 -8 -35 -20.5t-58 -18.5q-11 -2 -33 -7t-39.5 -9.5t-19.5 -4.5q-16 -4 -78.5 -13t-82.5 -11h-9q-7 -1 -49 -5t-51 -4h-6q-23 0 -31 4q-2 0 -2 5h-4l-8 -5q-2 0 -2 9q0 6 2 8v2q-5 4 -12.5 11.5 t-19.5 28t-11 36.5q-1 1 -3.5 2.5t-4.5 3.5t-2 4q-1 5 6 12.5t8 9.5q0 1 1 15.5t1 15.5q18 97 44.5 197.5t68 236.5t57.5 193l41 153q2 0 2 3.5t-2 5.5q51 177 51 264q0 45 -27 45h-14l-176 -31h-25q-22 0 -49.5 6t-34.5 19v6q-2 8 -11 24t-9 25v2l20 25l72 18q4 -1 14 2.5 t15 3.5q86 11 137 11q146 0 305 -62q20 -12 43 -35v4q-3 0 -3 3t3 3q6 0 2 -4h2zM567 764q3 0 3 -4t-3 -4t-3 4t3 4zM580 807q3 0 3 -4t-3 -4t-3 4t3 4zM571 848q-3 0 -3 -3t3 -3t3 3t-3 3zM561 737q1 -1 1 -4.5t-1 -3.5q-2 -1 -3 2q-1 6 3 6zM293 481q-1 0 -1 -4t1 -4 q3 0 3 4t-3 4zM393 1405q-3 0 -3 -2t3 -2q1 0 1 2t-1 2zM575 793q1 0 1 -3.5t-1 -3.5t-1 3.5t1 3.5zM346 682v-2q4 0 4 1t-4 1zM551 711q1 0 1 -2t-1 -2t-1 2t1 2zM514 645h-2h2zM193 438v-2v2zM477 569v-2h2z" />
<glyph unicode="&#xad;" horiz-adv-x="1150" d="M41 594v2q4 4 4 25v4q0 18 -4 22v4q0 22 39 29.5t43 11.5l125 29q22 -3 63 3t51 7q236 17 420 17q1 0 9 -2.5t10 -2.5q3 0 26 -1t29 -1v-16q1 0 5.5 -0.5t7 0t6 1t5.5 3t3 6.5l4 -8q3 -4 28.5 -8t36.5 -4h2l9 6q10 -6 12 -6t17.5 -1t17.5 -1l4 -11l8 11q7 -11 34 -14.5 t34 -18.5q2 -4 10 -6t10 -6q-15 -18 -16 -21q-3 -4 -12.5 -3.5t-12.5 -4.5q-2 -2 -3 -5t-3.5 -4t-9.5 -1q-12 -1 -70 -6.5t-88 -10.5l-4 -4q-20 -10 -92 -11t-74 -1q-25 0 -25 -4l-4 -8q-43 -2 -59 -2q-104 -5 -252 -29q-9 -2 -61.5 -15.5t-81.5 -13.5q-129 0 -189 60 q-1 1 -6.5 3.5t-5.5 6.5zM815 727q13 0 21 -4h2q6 0 6 10q-23 0 -29 -6zM188 565q-3 0 -3 -4t3 -4q2 0 2 4t-2 4zM465 616v-4h6v4h-6zM934 733q-4 -8 -12 0h12zM1106 651q0 -1 -2 -1t-4 1q0 3 3 3t3 -3zM866 743q2 -1 2 -5.5t-2 -4.5q-1 -2 -1 1zM801 727l2 -4l4 4h-6z" />
<glyph unicode="&#xc0;" d="M68 35q-2 1 -2 6t2 6l-2 1q-4 3 -7 -5q-7 0 -12 14q-3 9 -4.5 19t-0.5 24t1.5 20.5t3.5 24.5t4 21q0 33 17 203q8 25 14 108q9 72 33 204.5t32 182.5q3 15 14 48t13 51l2 4q0 1 -1 3.5t-1.5 4.5t0.5 4q5 26 21.5 101t23.5 116q1 2 4 27.5t4 27.5q8 52 29 135q12 38 21 45 t42 7h5l34 -4q7 -4 9 -4l4 4q4 -2 6 -2l6 -2q1 0 3 -2.5t3 -2.5q3 0 17 7t18 8h2q10 -2 24 -13t37 -14q7 0 26.5 3t29.5 1q11 -1 20 -4.5t14.5 -7t11.5 -12.5l9 -13.5t9 -18t9 -18.5q2 -6 15 -35.5t14 -33.5q10 -10 10 -12l4 -2q16 6 17 6h2q-2 -4 -2 -22t4 -19h2q1 1 3 1.5 t3.5 1t1.5 1.5q7 -33 30 -95.5t30 -91.5q37 -141 79 -360q0 -2 6.5 -26t4.5 -35h-4q-3 0 -7.5 25.5t-9.5 57t-10 41.5l-35 160q-10 -5 -10 -10q-1 -4 3 -32t7 -36l19 -75q4 -7 4 -9l61 -335q1 -11 19 -113t12 -148l-6 -14l-2 -14q0 -32 -2 -39q-1 -10 -16 -28t-23 -23h-7.5 t-5 0.5t-3 -1.5t-2.5 -6t-3 -14q-6 0 -9 5.5t-5 6.5q0 -12 -12 -24q-9 -2 -11 -2q-14 0 -14 12q-4 -4 -10 -4h-4q-37 34 -54 133l-2 15q-5 22 -16 100t-16 100l-7 6l-20 142q2 8 -8 8q-17 1 -132.5 -36.5t-121.5 -45.5q-8 -81 -23 -125q-3 -10 -13.5 -33t-12.5 -37 q-2 -4 -8 -29l-7 -26q-1 -6 -6.5 -19.5t-14 -26t-13.5 -11.5h-3q-6 2 -8 4q4 -5 0.5 -8.5t-4.5 -8.5l-4 -16q-3 -8 -20 -16.5t-19 -10.5q-74 -54 -131 -47h-16l-4 10q-3 9 -2 11zM424 735l-21 -155q0 -9 11 -9q4 0 11 4.5t11 4.5l2 -5q4 -2 6 -2h2l80 13q48 -8 76 -8 q3 1 9 0.5t9.5 0.5t4.5 5v2l-39 192q-4 21 -29 129q-23 122 -63 240l-5 20q-1 -4 -7 -35t-11.5 -57.5t-9.5 -34.5l-2 -8q0 -10 6 -10l-8 -82l6 -6l-8 -39q-2 -23 -13 -65.5t-14 -63.5q-1 -3 0 -8.5t0 -9.5q0 -13 -4 -13zM600 1567l-76 -23q-6 0 -18 -6q-11 2 -25.5 9 t-19.5 9l-4 -2l4 -8q-3 2 -19 2q-6 3 -17.5 11t-16.5 10l-5 -6l-6 4q-3 1 -10 6t-12 8t-6 2q-3 3 -7.5 4.5t-10 2t-7.5 1.5l-6 4q-5 2 -24.5 20.5t-28.5 18.5l-15 21l4 2l-12 22v2q-9 13 -2 15q3 1 6.5 -0.5t5 -3t2.5 -0.5l2 2q-8 12 9 22q6 0 8 2q1 -1 1.5 0.5t1 4t1.5 3.5 l8 5q1 0 2.5 2.5t3 5.5t2.5 4h4q9 7 43 22q3 2 17 14.5t22 14.5q8 6 17.5 0.5t13 -9t9 -12.5t5.5 -10l134 -137l18 -27q-2 -4 2.5 -16.5t1.5 -15.5zM840 606q7 -3 28 -107t19 -116v-6l-6 6q-25 127 -37 180q0 7 -2.5 22t-1.5 21zM760 946q-6 -17 6 -20q0 18 -6 20zM274 156 l-4 -15q11 3 11 15h-7zM690 1214q-1 0 -2 -2.5t-1 -5t1 -2.5q5 0 5.5 4t-3.5 6zM754 985q-4 0 -5 -4t3 -4t4 5q0 3 -2 3zM274 133q-2 0 -3 -2.5t-1 -5t2 -2.5t3 2.5t1 5t-2 2.5zM84 432q-2 -5 4 -8l2 8h-6zM883 360v2q1 0 3 -3t3 -3v-4q-6 0 -6 8zM295 1622l-6 8 q10 -3 10 -6zM276 203l-2 -8q7 0 7 6zM395 1597q-5 -3 2 -6q6 6 -2 6zM705 1169q-3 0 -3 -4t3 -4q1 0 1 4t-1 4zM641 1315l2 2l4 -10h-2q0 1 -2 3t-2 3v2zM371 1102v-8l6 2zM201 1069q-3 -3 2 -8l2 8h-4zM717 1098v-6l6 -2zM131 31l-2 -4h4l2 4h-4zM156 246l-1 -4h1q3 0 3 2 t-3 2zM381 858q-1 0 -1 -2t1 -2q3 0 3 2t-3 2zM240 178q-2 0 -2 -2t2 -2q8 0 0 4zM641 1329q3 0 3 -2t-3 -2v4zM242 678q-2 -2 -2 -6q2 0 2 6zM537 1554q-2 -2 -1.5 -2.5t3.5 0.5l1 1q-2 2 -3 1zM457 995q-2 0 -2 -1l2 -1q3 0 3 1t-3 1zM850 311q0 4 -1 -1q0 -3 1 -3 q2 0 2 2t-2 2zM657 1288v-10q-3 3 0 10zM743 1001v-4l5 4h-5zM76 242l-3 -4h1q6 0 2 4zM735 1032v-4h4zM692 1188v-4h4zM256 1671q4 -1 2 -4q-3 1 -2 4zM477 1409v-2q3 0 3 1t-3 1z" />
<glyph unicode="&#xc1;" d="M68 35q-2 1 -2 6t2 6l-2 1q-4 3 -7 -5q-7 0 -12 14q-3 9 -4.5 19t-0.5 24t1.5 20.5t3.5 24.5t4 21q0 33 17 203q8 25 14 108q9 72 33 204.5t32 182.5q3 15 14 48t13 51l2 4q0 1 -1 3.5t-1.5 4.5t0.5 4q5 26 21.5 101t23.5 116q1 2 4 27.5t4 27.5q8 52 29 135q12 38 21 45 t42 7h5l34 -4q7 -4 9 -4l4 4q4 -2 6 -2l6 -2q1 0 3 -2.5t3 -2.5q3 0 17 7t18 8h2q10 -2 24 -13t37 -14q7 0 26.5 3t29.5 1q11 -1 20 -4.5t14.5 -7t11.5 -12.5l9 -13.5t9 -18t9 -18.5q2 -6 15 -35.5t14 -33.5q10 -10 10 -12l4 -2q16 6 17 6h2q-2 -4 -2 -22t4 -19h2q1 1 3 1.5 t3.5 1t1.5 1.5q7 -33 30 -95.5t30 -91.5q37 -141 79 -360q0 -2 6.5 -26t4.5 -35h-4q-3 0 -7.5 25.5t-9.5 57t-10 41.5l-35 160q-10 -5 -10 -10q-1 -4 3 -32t7 -36l19 -75q4 -7 4 -9l61 -335q1 -11 19 -113t12 -148l-6 -14l-2 -14q0 -32 -2 -39q-1 -10 -16 -28t-23 -23h-7.5 t-5 0.5t-3 -1.5t-2.5 -6t-3 -14q-6 0 -9 5.5t-5 6.5q0 -12 -12 -24q-9 -2 -11 -2q-14 0 -14 12q-4 -4 -10 -4h-4q-37 34 -54 133l-2 15q-5 22 -16 100t-16 100l-7 6l-20 142q2 8 -8 8q-17 1 -132.5 -36.5t-121.5 -45.5q-8 -81 -23 -125q-3 -10 -13.5 -33t-12.5 -37 q-2 -4 -8 -29l-7 -26q-1 -6 -6.5 -19.5t-14 -26t-13.5 -11.5h-3q-6 2 -8 4q4 -5 0.5 -8.5t-4.5 -8.5l-4 -16q-3 -8 -20 -16.5t-19 -10.5q-74 -54 -131 -47h-16l-4 10q-3 9 -2 11zM424 735l-21 -155q0 -9 11 -9q4 0 11 4.5t11 4.5l2 -5q4 -2 6 -2h2l80 13q48 -8 76 -8 q3 1 9 0.5t9.5 0.5t4.5 5v2l-39 192q-4 21 -29 129q-23 122 -63 240l-5 20q-1 -4 -7 -35t-11.5 -57.5t-9.5 -34.5l-2 -8q0 -10 6 -10l-8 -82l6 -6l-8 -39q-2 -23 -13 -65.5t-14 -63.5q-1 -3 0 -8.5t0 -9.5q0 -13 -4 -13zM332 1544l-76 23q-3 3 1.5 15.5t2.5 16.5l19 27 l133 137q0 1 5.5 10t9 12.5t13 9t17.5 -0.5q8 -2 22 -14.5t17 -14.5q34 -15 43 -22h4q1 -1 2.5 -4t3 -5.5t2.5 -2.5l8 -5q1 -1 1.5 -3.5t1 -4t1.5 -0.5l8 -2q17 -10 9 -22l2 -2q1 -1 2.5 0.5t5 3t6.5 0.5q7 -2 -2 -15v-2l-12 -22l4 -2l-15 -21q-9 0 -28.5 -18.5t-24.5 -20.5 l-6 -4q-2 -1 -7.5 -1.5t-10 -2t-7.5 -4.5q-1 1 -6 -2t-12 -8t-10 -6q-4 -4 -6 -4l-4 6q-5 -2 -17.5 -10t-17.5 -11q-16 0 -19 -2l4 8l-4 2q-5 -2 -19.5 -9t-25.5 -9q-12 6 -18 6zM840 606q7 -3 28 -107t19 -116v-6l-6 6q-25 127 -37 180q0 7 -2.5 22t-1.5 21zM760 946 q-6 -17 6 -20q0 18 -6 20zM274 156l-4 -15q11 3 11 15h-7zM690 1214q-1 0 -2 -2.5t-1 -5t1 -2.5q5 0 5.5 4t-3.5 6zM754 985q-4 0 -5 -4t3 -4t4 5q0 3 -2 3zM274 133q-2 0 -3 -2.5t-1 -5t2 -2.5t3 2.5t1 5t-2 2.5zM84 432q-2 -5 4 -8l2 8h-6zM883 360v2q1 0 3 -3t3 -3v-4 q-6 0 -6 8zM567 1630l-6 -8l-4 2q0 3 10 6zM276 203l-2 -8q7 0 7 6zM461 1597q-8 0 -2 -6q7 3 2 6zM705 1169q-3 0 -3 -4t3 -4q1 0 1 4t-1 4zM641 1315l2 2l4 -10h-2q0 1 -2 3t-2 3v2zM371 1102v-8l6 2zM201 1069q-3 -3 2 -8l2 8h-4zM717 1098v-6l6 -2zM131 31l-2 -4h4l2 4 h-4zM156 246l-1 -4h1q3 0 3 2t-3 2zM381 858q-1 0 -1 -2t1 -2q3 0 3 2t-3 2zM240 178q-2 0 -2 -2t2 -2q8 0 0 4zM641 1329q3 0 3 -2t-3 -2v4zM242 678q-2 -2 -2 -6q2 0 2 6zM319 1554l-2 -2q3 -1 3.5 -0.5t-1.5 2.5zM600 1671q2 -1 -2 -4q-2 0 -1.5 2t3.5 2zM657 1288v-10 q-3 3 0 10zM850 311q0 4 -1 -1q0 -3 1 -3q2 0 2 2t-2 2zM457 995q-2 0 -2 -1l2 -1q3 0 3 1t-3 1zM743 1001v-4l5 4h-5zM76 242l-3 -4h1q6 0 2 4zM735 1032v-4h4zM692 1188v-4h4zM477 1409v-2q3 0 3 1t-3 1z" />
<glyph unicode="&#xc2;" d="M68 35q-2 1 -2 6t2 6l-2 1q-4 3 -7 -5q-7 0 -12 14q-3 9 -4.5 19t-0.5 24t1.5 20.5t3.5 24.5t4 21q0 33 17 203q8 25 14 108q9 72 33 204.5t32 182.5q3 15 14 48t13 51l2 4q0 1 -1 3.5t-1.5 4.5t0.5 4q5 26 21.5 101t23.5 116q1 2 4 27.5t4 27.5q8 52 29 135q12 38 21 45 t42 7h5l34 -4q7 -4 9 -4l4 4q4 -2 6 -2l6 -2q1 0 3 -2.5t3 -2.5q3 0 17 7t18 8h2q10 -2 24 -13t37 -14q7 0 26.5 3t29.5 1q11 -1 20 -4.5t14.5 -7t11.5 -12.5l9 -13.5t9 -18t9 -18.5q2 -6 15 -35.5t14 -33.5q10 -10 10 -12l4 -2q16 6 17 6h2q-2 -4 -2 -22t4 -19h2q1 1 3 1.5 t3.5 1t1.5 1.5q7 -33 30 -95.5t30 -91.5q37 -141 79 -360q0 -2 6.5 -26t4.5 -35h-4q-3 0 -7.5 25.5t-9.5 57t-10 41.5l-35 160q-10 -5 -10 -10q-1 -4 3 -32t7 -36l19 -75q4 -7 4 -9l61 -335q1 -11 19 -113t12 -148l-6 -14l-2 -14q0 -32 -2 -39q-1 -10 -16 -28t-23 -23h-7.5 t-5 0.5t-3 -1.5t-2.5 -6t-3 -14q-6 0 -9 5.5t-5 6.5q0 -12 -12 -24q-9 -2 -11 -2q-14 0 -14 12q-4 -4 -10 -4h-4q-37 34 -54 133l-2 15q-5 22 -16 100t-16 100l-7 6l-20 142q2 8 -8 8q-17 1 -132.5 -36.5t-121.5 -45.5q-8 -81 -23 -125q-3 -10 -13.5 -33t-12.5 -37 q-2 -4 -8 -29l-7 -26q-1 -6 -6.5 -19.5t-14 -26t-13.5 -11.5h-3q-6 2 -8 4q4 -5 0.5 -8.5t-4.5 -8.5l-4 -16q-3 -8 -20 -16.5t-19 -10.5q-74 -54 -131 -47h-16l-4 10q-3 9 -2 11zM121 1563q0 27 22 65l2 2q31 61 92.5 131t114.5 103q9 2 13 4h4q0 -1 1 -4.5t1 -5.5h32 q0 -7 27 -7q4 0 11 3.5t10 3.5h2l-4 -7q12 -4 54.5 -14t71.5 -23t48 -36l69 -78q6 -17 8 -21l11 -39v-4l-4 -4v-4l-7 -4q-1 -1 -0.5 -2.5t1 -3.5t1 -3.5t0.5 -2.5l-2 -4q-2 -2 -2 -9t2 -10l-8 -2q-10 -8 -18 -8q-2 0 -2 -10q0 -3 -1 -8.5t-1 -8.5q-2 -9 -35.5 -18.5 t-36.5 -13.5v14q-8 -13 -20 -21l-13 17q-4 0 -4 -14q-7 11 -13.5 40.5t-6.5 30.5q-5 14 -13 29t-15 25.5t-20.5 26.5t-19.5 22t-23 23.5t-20 21.5l-59 -72l-33 -49q-35 -53 -71 -83t-85 -30q-20 0 -32 4q-5 0 -17 26t-12 32zM424 735l-21 -155q0 -9 11 -9q4 0 11 4.5t11 4.5 l2 -5q4 -2 6 -2h2l80 13q48 -8 76 -8q3 1 9 0.5t9.5 0.5t4.5 5v2l-39 192q-4 21 -29 129q-23 122 -63 240l-5 20q-1 -4 -7 -35t-11.5 -57.5t-9.5 -34.5l-2 -8q0 -10 6 -10l-8 -82l6 -6l-8 -39q-2 -23 -13 -65.5t-14 -63.5q-1 -3 0 -8.5t0 -9.5q0 -13 -4 -13zM840 606 q7 -3 28 -107t19 -116v-6l-6 6q-25 127 -37 180q0 7 -2.5 22t-1.5 21zM760 946q-6 -17 6 -20q0 18 -6 20zM274 156l-4 -15q11 3 11 15h-7zM690 1214q-1 0 -2 -2.5t-1 -5t1 -2.5q5 0 5.5 4t-3.5 6zM754 985q-4 0 -5 -4t3 -4t4 5q0 3 -2 3zM274 133q-2 0 -3 -2.5t-1 -5t2 -2.5 t3 2.5t1 5t-2 2.5zM678 1624q-3 0 -3 -5t3 -5q2 0 2 5t-2 5zM84 432q-2 -5 4 -8l2 8h-6zM883 360v2q1 0 3 -3t3 -3v-4q-6 0 -6 8zM387 1673q3 0 3 -3t-3 -3t-3 3t3 3zM276 203l-2 -8q7 0 7 6zM705 1169q-3 0 -3 -4t3 -4q1 0 1 4t-1 4zM641 1315l2 2l4 -10h-2q0 1 -2 3t-2 3 v2zM371 1102v-8l6 2zM201 1069q-3 -3 2 -8l2 8h-4zM717 1098v-6l6 -2zM131 31l-2 -4h4l2 4h-4zM156 246l-1 -4h1q3 0 3 2t-3 2zM381 858q-1 0 -1 -2t1 -2q3 0 3 2t-3 2zM240 178q-2 0 -2 -2t2 -2q8 0 0 4zM641 1329q3 0 3 -2t-3 -2v4zM242 678q-2 -2 -2 -6q2 0 2 6zM850 311 q0 4 -1 -1q0 -3 1 -3q2 0 2 2t-2 2zM657 1288v-10q-3 3 0 10zM457 995q-2 0 -2 -1l2 -1q3 0 3 1t-3 1zM692 1188v-4h4zM743 1001v-4l5 4h-5zM76 242l-3 -4h1q6 0 2 4zM315 1753l-2 -8h2v8zM735 1032v-4h4zM477 1409v-2q3 0 3 1t-3 1zM584 1686q-2 0 -2 -2.5t2 -2.5v5z M381 1663h-2h2zM688 1681v-2v2z" />
<glyph unicode="&#xc3;" d="M68 35q-2 1 -2 6t2 6l-2 1q-4 3 -7 -5q-7 0 -12 14q-3 9 -4.5 19t-0.5 24t1.5 20.5t3.5 24.5t4 21q0 33 17 203q8 25 14 108q9 72 33 204.5t32 182.5q3 15 14 48t13 51l2 4q0 1 -1 3.5t-1.5 4.5t0.5 4q5 26 21.5 101t23.5 116q1 2 4 27.5t4 27.5q8 52 29 135q12 38 21 45 t42 7h5l34 -4q7 -4 9 -4l4 4q4 -2 6 -2l6 -2q1 0 3 -2.5t3 -2.5q3 0 17 7t18 8h2q10 -2 24 -13t37 -14q7 0 26.5 3t29.5 1q11 -1 20 -4.5t14.5 -7t11.5 -12.5l9 -13.5t9 -18t9 -18.5q2 -6 15 -35.5t14 -33.5q10 -10 10 -12l4 -2q16 6 17 6h2q-2 -4 -2 -22t4 -19h2q1 1 3 1.5 t3.5 1t1.5 1.5q7 -33 30 -95.5t30 -91.5q37 -141 79 -360q0 -2 6.5 -26t4.5 -35h-4q-3 0 -7.5 25.5t-9.5 57t-10 41.5l-35 160q-10 -5 -10 -10q-1 -4 3 -32t7 -36l19 -75q4 -7 4 -9l61 -335q1 -11 19 -113t12 -148l-6 -14l-2 -14q0 -32 -2 -39q-1 -10 -16 -28t-23 -23h-7.5 t-5 0.5t-3 -1.5t-2.5 -6t-3 -14q-6 0 -9 5.5t-5 6.5q0 -12 -12 -24q-9 -2 -11 -2q-14 0 -14 12q-4 -4 -10 -4h-4q-37 34 -54 133l-2 15q-5 22 -16 100t-16 100l-7 6l-20 142q2 8 -8 8q-17 1 -132.5 -36.5t-121.5 -45.5q-8 -81 -23 -125q-3 -10 -13.5 -33t-12.5 -37 q-2 -4 -8 -29l-7 -26q-1 -6 -6.5 -19.5t-14 -26t-13.5 -11.5h-3q-6 2 -8 4q4 -5 0.5 -8.5t-4.5 -8.5l-4 -16q-3 -8 -20 -16.5t-19 -10.5q-74 -54 -131 -47h-16l-4 10q-3 9 -2 11zM487 1534q-7 3 -23.5 4t-23.5 4q-27 14 -42.5 36t-30.5 61t-21 51l-2 2q-3 -2 -14.5 -11 t-16.5 -13t-11.5 -12.5t-10.5 -17.5q0 7 -6 7h-2q-7 -16 -25 -68q-1 -5 -6 -8t-6 -4q-2 -7 -4 -9h-2q0 1 -1 3.5t-1 3.5q-7 -1 -13 -9l-6 -8q-20 0 -20 -4l-2 -2q-4 -4 -15 -4q-6 0 -6 2q-1 0 -8 2t-8 2q-5 21 -15 31q-5 34 -4 41q2 75 74 143q36 25 68 25q14 0 37 -7t30 -8 q9 -1 26.5 -2.5t28 -3t21.5 -6.5q1 0 7 -4t7 -4q2 -1 23 -8t22 -8l27 -39q3 -6 5 -22t5 -23l4 -2q21 0 39 36.5t23 63.5q3 6 7.5 28t4.5 27q0 2 1.5 3.5l2.5 2.5h2q8 0 13 -9t10 -9l6 4q4 0 6.5 -5t5.5 -5q1 0 4 1t4 1q4 0 7.5 -4.5t3.5 -7.5l6 10q0 -15 10 -15q8 0 8 5 l6 -1q5 -1 10.5 -4.5t8.5 -9.5q0 -1 1 -8.5t2 -10.5t4 -7t9 -5q-10 -58 -39 -118v-2h2v-4q-27 -31 -70 -51.5t-85 -20.5q-16 0 -52 4zM424 735l-21 -155q0 -9 11 -9q4 0 11 4.5t11 4.5l2 -5q4 -2 6 -2h2l80 13q48 -8 76 -8q3 1 9 0.5t9.5 0.5t4.5 5v2l-39 192q-4 21 -29 129 q-23 122 -63 240l-5 20q-1 -4 -7 -35t-11.5 -57.5t-9.5 -34.5l-2 -8q0 -10 6 -10l-8 -82l6 -6l-8 -39q-2 -23 -13 -65.5t-14 -63.5q-1 -3 0 -8.5t0 -9.5q0 -13 -4 -13zM840 606q7 -3 28 -107t19 -116v-6l-6 6q-25 127 -37 180q0 7 -2.5 22t-1.5 21zM760 946q-6 -17 6 -20 q0 18 -6 20zM274 156l-4 -15q11 3 11 15h-7zM690 1214q-1 0 -2 -2.5t-1 -5t1 -2.5q5 0 5.5 4t-3.5 6zM754 985q-4 0 -5 -4t3 -4t4 5q0 3 -2 3zM274 133q-2 0 -3 -2.5t-1 -5t2 -2.5t3 2.5t1 5t-2 2.5zM84 432q-2 -5 4 -8l2 8h-6zM883 360v2q1 0 3 -3t3 -3v-4q-6 0 -6 8z M276 203l-2 -8q7 0 7 6zM705 1169q-3 0 -3 -4t3 -4q1 0 1 4t-1 4zM641 1315l2 2l4 -10h-2q0 1 -2 3t-2 3v2zM313 1767v-8q4 2 4 8h-4zM371 1102v-8l6 2zM201 1069q-3 -3 2 -8l2 8h-4zM717 1098v-6l6 -2zM131 31l-2 -4h4l2 4h-4zM156 246l-1 -4h1q3 0 3 2t-3 2zM381 858 q-1 0 -1 -2t1 -2q3 0 3 2t-3 2zM240 178q-2 0 -2 -2t2 -2q8 0 0 4zM641 1329q3 0 3 -2t-3 -2v4zM242 678q-2 -2 -2 -6q2 0 2 6zM174 1688l-1 -2l1 -5q4 3 0 7zM850 311q0 4 -1 -1q0 -3 1 -3q2 0 2 2t-2 2zM657 1288v-10q-3 3 0 10zM457 995q-2 0 -2 -1l2 -1q3 0 3 1t-3 1z M735 1032v-4h4zM692 1188v-4h4zM76 242l-3 -4h1q6 0 2 4zM743 1001v-4l5 4h-5zM477 1409v-2q3 0 3 1t-3 1zM717 1696q-1 0 -1 -3t1 -3v6zM281 1671q-2 2 -2 -1q1 -1 2 -1v2zM715 1675v-2v2z" />
<glyph unicode="&#xc4;" d="M68 35q-2 1 -2 6t2 6l-2 1q-4 3 -7 -5q-7 0 -12 14q-3 9 -4.5 19t-0.5 24t1.5 20.5t3.5 24.5t4 21q0 33 17 203q8 25 14 108q9 72 33 204.5t32 182.5q3 15 14 48t13 51l2 4q0 1 -1 3.5t-1.5 4.5t0.5 4q5 26 21.5 101t23.5 116q1 2 4 27.5t4 27.5q8 52 29 135q12 38 21 45 t42 7h5l34 -4q7 -4 9 -4l4 4q4 -2 6 -2l6 -2q1 0 3 -2.5t3 -2.5q3 0 17 7t18 8h2q10 -2 24 -13t37 -14q7 0 26.5 3t29.5 1q11 -1 20 -4.5t14.5 -7t11.5 -12.5l9 -13.5t9 -18t9 -18.5q2 -6 15 -35.5t14 -33.5q10 -10 10 -12l4 -2q16 6 17 6h2q-2 -4 -2 -22t4 -19h2q1 1 3 1.5 t3.5 1t1.5 1.5q7 -33 30 -95.5t30 -91.5q37 -141 79 -360q0 -2 6.5 -26t4.5 -35h-4q-3 0 -7.5 25.5t-9.5 57t-10 41.5l-35 160q-10 -5 -10 -10q-1 -4 3 -32t7 -36l19 -75q4 -7 4 -9l61 -335q1 -11 19 -113t12 -148l-6 -14l-2 -14q0 -32 -2 -39q-1 -10 -16 -28t-23 -23h-7.5 t-5 0.5t-3 -1.5t-2.5 -6t-3 -14q-6 0 -9 5.5t-5 6.5q0 -12 -12 -24q-9 -2 -11 -2q-14 0 -14 12q-4 -4 -10 -4h-4q-37 34 -54 133l-2 15q-5 22 -16 100t-16 100l-7 6l-20 142q2 8 -8 8q-17 1 -132.5 -36.5t-121.5 -45.5q-8 -81 -23 -125q-3 -10 -13.5 -33t-12.5 -37 q-2 -4 -8 -29l-7 -26q-1 -6 -6.5 -19.5t-14 -26t-13.5 -11.5h-3q-6 2 -8 4q4 -5 0.5 -8.5t-4.5 -8.5l-4 -16q-3 -8 -20 -16.5t-19 -10.5q-74 -54 -131 -47h-16l-4 10q-3 9 -2 11zM424 735l-21 -155q0 -9 11 -9q4 0 11 4.5t11 4.5l2 -5q4 -2 6 -2h2l80 13q48 -8 76 -8 q3 1 9 0.5t9.5 0.5t4.5 5v2l-39 192q-4 21 -29 129q-23 122 -63 240l-5 20q-1 -4 -7 -35t-11.5 -57.5t-9.5 -34.5l-2 -8q0 -10 6 -10l-8 -82l6 -6l-8 -39q-2 -23 -13 -65.5t-14 -63.5q-1 -3 0 -8.5t0 -9.5q0 -13 -4 -13zM524 1532q-14 0 -18 8q-2 -2 -6 -2v31l-4 4 q-2 0 -2 6q0 31 18 92t18 92l-2 11q1 6 15.5 7.5t15.5 2.5q1 -4 2.5 -5.5t5.5 -2t8 -2.5l7 -7h2q1 0 3.5 2.5t4.5 2.5q4 0 9.5 -6.5t8.5 -6.5l4 2l7 2l6 -2h2l4 2v2l2 -2q2 -3 13 -8t14 -12q4 -7 12 -6.5t14 -1.5l2 -9q5 -8 24 -12.5t23 -13.5q6 -18 6 -37v-6h-4l-4 -21 q-8 -1 -12.5 -12t-9.5 -14q-1 0 -4 -1t-4 -1l-5 -11l-4 7h-2q-4 0 -8.5 -3t-7 -6t-6 -9t-4.5 -7q0 4 -6 4q-1 0 -9 -9.5t-10 -10.5h-6q-4 0 -4 -7l-4 9l-2 2q-21 -21 -27 -25q-2 0 -7 -2.5t-5 -3.5h-4q-4 2 -4 4h-2q-17 0 -29 -8v14q-4 -3 -7 -7t-6.5 -5.5t-11.5 -1.5z M231 1604v122l5 9h14l4 2q2 0 12 -7t13 -8q5 -2 29.5 -4.5t31.5 -5.5q5 -2 16 -9.5t15 -8.5q2 -1 10.5 -2.5t14 -5t5.5 -11.5l7 4q3 0 9 -7.5t7 -8.5l4 4q6 0 6 -22q0 -1 -4.5 -8t-10 -15.5t-7.5 -11.5q-3 -4 -25.5 -15.5t-24.5 -11.5h-2q-2 4 -2 6q-1 -1 -9 -10.5 t-14.5 -14.5t-10.5 -5q-3 0 -8 4t-7 4q-1 0 -6.5 -5.5t-7.5 -5.5q-4 -4 -14 -4q-9 0 -9 4q-2 -4 -8 -4h-4q-4 7 -6 7q-3 2 -7 0.5t-7 3.5t-2 20.5t-7 20.5zM840 606q7 -3 28 -107t19 -116v-6l-6 6q-25 127 -37 180q0 7 -2.5 22t-1.5 21zM760 946q-6 -17 6 -20q0 18 -6 20z M274 156l-4 -15q11 3 11 15h-7zM690 1214q-1 0 -2 -2.5t-1 -5t1 -2.5q5 0 5.5 4t-3.5 6zM754 985q-4 0 -5 -4t3 -4t4 5q0 3 -2 3zM274 133q-2 0 -3 -2.5t-1 -5t2 -2.5t3 2.5t1 5t-2 2.5zM84 432q-2 -5 4 -8l2 8h-6zM754 1690v-21h-2v17zM883 360v2q1 0 3 -3t3 -3v-4 q-6 0 -6 8zM276 203l-2 -8q7 0 7 6zM705 1169q-3 0 -3 -4t3 -4q1 0 1 4t-1 4zM641 1315l2 2l4 -10h-2q0 1 -2 3t-2 3v2zM371 1102v-8l6 2zM201 1069q-3 -3 2 -8l2 8h-4zM520 1552q-3 0 -3 -3t3 -3q2 0 2 3t-2 3zM717 1098v-6l6 -2zM758 1663q2 -1 2 -5t-2 -5l-1 7zM358 1683 q-2 0 -2 -4t2 -4t2 4t-2 4zM131 31l-2 -4h4l2 4h-4zM156 246l-1 -4h1q3 0 3 2t-3 2zM381 858q-1 0 -1 -2t1 -2q3 0 3 2t-3 2zM240 178q-2 0 -2 -2t2 -2q8 0 0 4zM641 1329q3 0 3 -2t-3 -2v4zM242 678q-2 -2 -2 -6q2 0 2 6zM657 1288v-10q-3 3 0 10zM850 311q0 4 -1 -1 q0 -3 1 -3q2 0 2 2t-2 2zM457 995q-2 0 -2 -1l2 -1q3 0 3 1t-3 1zM76 242l-3 -4h1q6 0 2 4zM692 1188v-4h4zM743 1001v-4l5 4h-5zM735 1032v-4h4zM477 1409v-2q3 0 3 1t-3 1zM561 1550q-1 0 -1 -2t1 -2q4 0 0 4zM268 1620v-2l4 2h-4zM565 1790l2 -4h-2v4zM539 1796h-2h2z M551 1559q-1 0 -1 -1.5t1 -1.5v3z" />
<glyph unicode="&#xc5;" d="M250 1538q0 22 2 25q26 52 75 99.5t95 47.5q10 0 18 -2h47q1 0 4.5 1t4.5 1q7 0 17.5 -7t10.5 -15q1 0 3 1t3 1l9 -9h16q13 -10 38.5 -45t29.5 -51l2 -10v-45h2q8 0 8 26q0 6 -3 18t-3 17h2q4 -10 4 -14l4 -16q0 -67 -70 -119q0 -3 -14 -10l-10 -5q-1 0 -3 -1t-3 -1 l-35 -12q34 5 39 4q11 -1 20 -4.5t14.5 -7t11.5 -12.5l9 -13.5t9 -18t9 -18.5q2 -6 15 -35.5t14 -33.5q10 -10 10 -12l4 -2q16 6 17 6h2q-2 -4 -2 -22t4 -19h2q1 1 3 1.5t3.5 1t1.5 1.5q7 -33 30 -95.5t30 -91.5q37 -141 79 -360q0 -2 6.5 -26t4.5 -35h-4q-3 0 -7.5 25.5 t-9.5 57t-10 41.5l-35 160q-10 -5 -10 -10q-1 -4 3 -32t7 -36l19 -75q4 -7 4 -9l61 -335q1 -11 19 -113t12 -148l-6 -14l-2 -14q0 -32 -2 -39q-1 -10 -16 -28t-23 -23h-7.5t-5 0.5t-3 -1.5t-2.5 -6t-3 -14q-6 0 -9 5.5t-5 6.5q0 -12 -12 -24q-9 -2 -11 -2q-14 0 -14 12 q-4 -4 -10 -4h-4q-37 34 -54 133l-2 15q-5 22 -16 100t-16 100l-7 6l-20 142q2 8 -8 8q-17 1 -132.5 -36.5t-121.5 -45.5q-8 -81 -23 -125q-3 -10 -13.5 -33t-12.5 -37q-2 -4 -8 -29l-7 -26q-1 -6 -6.5 -19.5t-14 -26t-13.5 -11.5h-3q-6 2 -8 4q4 -5 0.5 -8.5t-4.5 -8.5 l-4 -16q-3 -8 -20 -16.5t-19 -10.5q-74 -54 -131 -47h-16l-4 10q-3 9 -2 11q-2 1 -2 6t2 6l-2 1q-4 3 -7 -5q-7 0 -12 14q-3 9 -4.5 19t-0.5 24t1.5 20.5t3.5 24.5t4 21q0 33 17 203q8 25 14 108q9 72 33 204.5t32 182.5q3 15 14 48t13 51l2 4q0 1 -1 3.5t-1.5 4.5t0.5 4 q5 26 21.5 101t23.5 116q1 2 4 27.5t4 27.5q8 52 29 135q10 30 16.5 39.5t20.5 10.5q-9 6 -12 14q-31 45 -31 88zM424 735l-21 -155q0 -9 11 -9q4 0 11 4.5t11 4.5l2 -5q4 -2 6 -2h2l80 13q48 -8 76 -8q3 1 9 0.5t9.5 0.5t4.5 5v2l-39 192q-4 21 -29 129q-23 122 -63 240 l-5 20q-1 -4 -7 -35t-11.5 -57.5t-9.5 -34.5l-2 -8q0 -10 6 -10l-8 -82l6 -6l-8 -39q-2 -23 -13 -65.5t-14 -63.5q-1 -3 0 -8.5t0 -9.5q0 -13 -4 -13zM471 1522h-2q17 14 33 43v2l2 6v26q0 10 -16.5 26.5t-26.5 19.5q1 1 -0.5 4.5t-3.5 3.5q-4 0 -7.5 -2.5t-7.5 -7t-6 -5.5 q-4 -3 -13 -13.5t-11 -14.5q-4 -4 -15.5 -26t-11.5 -25h10l-1 -13q0 -13 0.5 -18t2.5 -15t7.5 -14t13.5 -4q27 0 49 25q0 -4 4 -4q1 0 1 3t-1 3zM840 606q7 -3 28 -107t19 -116v-6l-6 6q-25 127 -37 180q0 7 -2.5 22t-1.5 21zM760 946q-6 -17 6 -20q0 18 -6 20zM274 156 l-4 -15q11 3 11 15h-7zM754 985q-4 0 -5 -4t3 -4t4 5q0 3 -2 3zM690 1214q-1 0 -2 -2.5t-1 -5t1 -2.5q5 0 5.5 4t-3.5 6zM274 133q-2 0 -3 -2.5t-1 -5t2 -2.5t3 2.5t1 5t-2 2.5zM84 432q-2 -5 4 -8l2 8h-6zM883 360v2q1 0 3 -3t3 -3v-4q-6 0 -6 8zM276 203l-2 -8q7 0 7 6z M705 1169q-3 0 -3 -4t3 -4q1 0 1 4t-1 4zM641 1315l2 2l4 -10h-2q0 1 -2 3t-2 3v2zM371 1102v-8l6 2zM201 1069q-3 -3 2 -8l2 8h-4zM432 1495v-4q6 0 6 4h-6zM717 1098v-6l6 -2zM131 31l-2 -4h4l2 4h-4zM156 246l-1 -4h1q3 0 3 2t-3 2zM381 858q-1 0 -1 -2t1 -2q3 0 3 2 t-3 2zM430 1493q-8 0 -8 -2h8v2zM240 178q-2 0 -2 -2t2 -2q8 0 0 4zM641 1329q3 0 3 -2t-3 -2v4zM242 678q-2 -2 -2 -6q2 0 2 6zM401 1630q-1 0 -1 -3t1 -3t1 3t-1 3zM383 1544q-1 0 -1 -3t1 -3q3 3 0 6zM657 1288v-10q-3 3 0 10zM457 995q-2 0 -2 -1l2 -1q3 0 3 1t-3 1z M850 311q0 4 -1 -1q0 -3 1 -3q2 0 2 2t-2 2zM743 1001v-4l5 4h-5zM692 1188v-4h4zM735 1032v-4h4zM76 242l-3 -4h1q6 0 2 4zM465 1516q-1 0 -1 -2.5t1 -2.5t1 2.5t-1 2.5z" />
<glyph unicode="&#xc6;" horiz-adv-x="1181" d="M506 86q-17 160 -17 289q0 15 5 92q-108 -34 -117 -43q-8 -81 -23 -125q-3 -10 -13.5 -33t-12.5 -37q-2 -4 -8 -29l-7 -26q-1 -6 -6.5 -19.5t-14 -26t-13.5 -11.5h-3q-6 2 -8 4q4 -5 0.5 -8.5t-4.5 -8.5l-4 -16q-3 -8 -20 -16.5t-19 -10.5q-74 -54 -131 -47h-16l-4 10 q-3 9 -2 11q-2 1 -2 6t2 6l-2 1q-4 3 -7 -5q-7 0 -12 14q-3 9 -4.5 19t-0.5 24t1.5 20.5t3.5 24.5t4 21q0 33 17 203q8 25 14 108q9 72 33 204.5t32 182.5q3 15 14 48t13 51l2 4q0 1 -1 3.5t-1.5 4.5t0.5 4q5 26 21.5 101t23.5 116q1 2 4 27.5t4 27.5q8 52 29 135 q12 38 21 45t42 7h5l34 -4q7 -4 9 -4l4 4q4 -2 6 -2l6 -2q1 0 3 -2.5t3 -2.5q3 0 17 7t18 8h2q10 -2 24 -13t37 -14q7 0 26.5 3t29.5 1q6 0 10 -2q4 4 12 4v-8l8 -4q7 3 21.5 6t24.5 6t10 6l4 -6h2q176 41 258 41q3 0 23.5 -2t23.5 -2h8q36 -4 74 -4q24 -2 71.5 -25.5 t47.5 -42.5h-21l10 -12q-12 -5 -31 -15.5t-35 -16t-36 -5.5q-14 0 -40 6.5t-40 6.5q-78 0 -155 -23q0 -2 -2.5 -17t-2.5 -18q0 -13 8 -47.5t9 -40.5v-16q4 -24 4 -76q1 -3 3 -19t3 -18q0 -1 1 -5t1 -5v-2q0 -1 -1 -11.5t-1 -11.5v-2q0 -1 1 -11t1 -11q0 -3 2 -21.5t2 -21.5 l4 10v-55l11 -8v-13q0 -14 -2.5 -43t-2.5 -45q10 0 30 4t32 4q8 0 23.5 -3t23.5 -3q15 0 44 3t42 3h21l49 -26l4 -4q0 -27 -56 -52h-2l-211 -69q-1 -7 -14 -182v-62q0 -112 4 -178q2 -18 5 -22.5t16 -4.5q19 0 56.5 5.5t57.5 5.5h5q5 -1 34 -3.5t33 -3.5q5 -3 19.5 -6.5 t25 -8.5t10.5 -15v-2q-4 -7 -4 -9q-33 -24 -57 -38q-58 -20 -66 -25q-18 -11 -49.5 -34.5t-46.5 -33.5q-16 -10 -76 -32l-10 -7l-31 -22q-31 -21 -38 -23h-23q-3 -1 -23 -11.5t-34 -10.5q-23 0 -42 11t-33.5 33.5t-21.5 38t-18 42.5zM424 735l-21 -155q0 -9 11 -9 q4 0 11 4.5t11 4.5l2 -5q4 -2 6 -2h2l56 9q2 34 4.5 96t5.5 113.5t8 95.5v174l-26 86l-5 20q-1 -4 -7 -35t-11.5 -57.5t-9.5 -34.5l-2 -8q0 -10 6 -10l-8 -82l6 -6l-8 -39q-2 -23 -13 -65.5t-14 -63.5q-1 -3 0 -8.5t0 -9.5q0 -13 -4 -13zM772 1305v-35q8 27 8 53 q-9 0 -16 -10zM840 596v-12q0 -14 -4 -54v13q0 42 4 53zM774 1196q-2 0 -2 -5t2 -5h2q0 -4 4 -4q3 0 3 5t-3 5h-2q0 4 -4 4zM836 459q0 -3 -2.5 -13t-2.5 -14v35q0 -1 2.5 -4t2.5 -4zM274 156l-4 -15q11 3 11 15h-7zM836 352q2 -3 2 -14t-2 -14l-1 20zM274 133q-2 0 -3 -2.5 t-1 -5t2 -2.5t3 2.5t1 5t-2 2.5zM840 618q2 0 2 -5t-2 -5q-3 0 -3 5t3 5zM84 432q-2 -5 4 -8l2 8h-6zM821 958q-3 0 -3 -4t3 -4t3 4t-3 4zM764 1288q-3 0 -3 -4t3 -4t3 4t-3 4zM836 938q3 0 3 -4t-3 -4t-3 4t3 4zM836 309q3 0 3 -3t-3 -3t-3 3t3 3zM276 203l-2 -8q7 0 7 6z M545 66q-3 0 -3 -4.5t3 -4.5q1 0 1 4.5t-1 4.5zM371 1102v-8l6 2zM201 1069q-3 -3 2 -8l2 8h-4zM840 246q2 0 2 -3t-2 -3q-3 0 -3 3t3 3zM760 1296l4 -6v10zM131 31l-2 -4h4l2 4h-4zM831 492q1 0 1 -2.5t-1 -2.5q-3 0 -3 2.5t3 2.5zM156 246l-1 -4h1q3 0 3 2t-3 2zM381 858 q-1 0 -1 -2t1 -2q3 0 3 2t-3 2zM240 178q-2 0 -2 -2t2 -2q8 0 0 4zM242 678q-2 -2 -2 -6q2 0 2 6zM457 995q-2 0 -2 -1l2 -1q3 0 3 1t-3 1zM831 401v-2q-3 0 -3 1.5t3 0.5zM778 1192q-2 0 -2 -6q2 0 2 6zM76 242l-3 -4h1q6 0 2 4zM612 260v-4h2v4h-2zM477 1409v-2q3 0 3 1 t-3 1z" />
<glyph unicode="&#xc7;" horiz-adv-x="772" d="M270 -428q0 2 2 2l13 10h-4q-2 0 -6 -2t-5 -2q0 3 3 7t3 7q-10 0 -10 5q0 8 21 21t30 15q4 3 13 14t12 13q23 11 50.5 39t27.5 49q24 39 24 68q0 10 -5.5 24.5t-14.5 14.5q-3 0 -14 -6.5t-15 -6.5h-6q-7 1 -11 -4.5t-7 -5.5l-6 2h-3q-30 0 -43 -7q-2 -2 -2 -3q-6 6 -8 6 q-3 0 -7.5 -2t-6.5 -2q-4 0 -7.5 2t-7 6t-6.5 6q-6 0 -8 2l-2 6l-22 39q-8 21 -12 42.5t-4.5 48.5t0 43.5t2.5 50t3 45.5q4 30 9 49q-117 73 -160 217q-1 9 -10.5 40.5t-8.5 53.5q-4 0 -4 4q-6 29 -9 75.5t-7 57.5q3 17 7.5 70t4.5 68l-2 6q2 5 0 12h4v2v14q0 7 2 9l-2 2v4 q2 2 2 4l6 35q-2 5 5 12l4 31l6 2h-8l-2 4q3 3 6 8t5.5 12t4 13t3.5 17t3.5 18.5t3.5 22.5t4 24v4l-2 10q0 1 4 4t4 4l2 4q-1 5 -3.5 10t-2.5 9q1 6 7.5 8.5t7.5 3.5q0 1 -1.5 5t-0.5 9v6l6 -6q0 6 -1 10t-1 5v4q0 1 3 11t3 11l2 6q23 56 55.5 102t75 83.5t99.5 55.5t120 11 q15 0 21 -6q10 -2 36 -2q33 -5 71.5 -18.5t72.5 -41t31 -59.5l-2 -4q4 -35 -21 -43q-4 -3 -10 -8.5t-10 -9.5t-5 -4q-2 0 -4.5 1t-3.5 1t-10.5 -6.5t-24 -12.5t-28.5 -4v10q3 33 -24 71.5t-60 41.5q-4 1 -12 -3t-16.5 -10t-10.5 -7v-5q0 -9 -19.5 -38t-19.5 -37q0 -4 2 -4 h-2q-2 -5 -10.5 -25.5t-11.5 -28.5t-8 -24t-7 -29.5t-2 -26.5v-12q-2 -1 -7.5 -15.5t-8.5 -15.5l2 -6q0 -2 -2 -10t-2 -10q0 -63 -15 -98l-4 -60q0 -3 -3.5 -22.5t-4.5 -22.5v-2q0 -45 2 -55h6q0 -2 -1 -15.5t-1 -23t3.5 -20.5t10.5 -15v-106q4 -16 11 -50q5 -26 8.5 -40 t9 -38.5t10.5 -38t12 -34t14 -31.5t16.5 -25t20 -20.5t23.5 -12t28 -5t32 5.5l18 6q6 7 24 15.5t29 8.5q7 -2 19 -14q0 5 11 10t18 4v-10q12 -2 27.5 0t24.5 5l9 3h4q0 -38 -6 -53q-53 -98 -227 -98l-19 -2q-1 -12 -5.5 -42t-4.5 -46l2 -39q0 -2 2 -25t2 -30q1 -9 25.5 -17 t53 -16.5t52 -33t23.5 -62.5h-6q0 13 -5 18q-11 -83 -77 -162q-9 -3 -21 -17.5t-16 -17.5q-76 -46 -109 -51q-12 -1 -33.5 -4.5t-39 -5.5t-33.5 -2l-2 2q-1 0 -8 1t-9 1zM354 788v-26l-2 -27q-2 0 -2 27q0 26 4 26zM360 696q2 0 2 -6q0 -4 -2 -4q-4 0 -4 6q0 4 4 4zM461 115 v4h-6v-10l2 -5q0 9 4 11zM260 -416q3 0 3 -3t-3 -3t-3 3t3 3zM629 285q2 0 2 -4q0 -5 -2 -5q-4 4 -4 7q0 2 4 2zM342 707v-9h4v9h-4zM614 270q-2 -2 -2 -6h4q0 1 1 3t1 3h-4zM72 922q2 0 2 -4q-1 0 -2 -1.5t-2 -1.5q-2 1 -2 3q0 4 4 4zM350 590q0 2 -2 2l-2 -2q0 -4 2 -4 q2 2 2 4zM453 94l-1 -8h1q4 4 0 8zM510 -100v-6q3 0 3 3t-3 3zM487 -88q-1 0 -1 -2t1 -2q3 0 3 2t-3 2zM256 -401q3 0 3 -2.5t-3 -2.5q-2 0 -2 2.5t2 2.5zM334 -150q-2 0 -2 -2t2 -2q3 0 3 2t-3 2zM623 -205q3 -3 0 -6l-1 3zM199 1061v-4h2v4h-2zM96 1038l4 -4h-2q-2 0 -2 4 zM549 -221v-2q3 0 3 1t-3 1zM154 786q0 2 -4 2q-3 2 -3 0zM137 918q-2 2 -4 2v-2h4zM676 1233v-2h4zM317 -164v-2v2z" />
<glyph unicode="&#xc8;" horiz-adv-x="733" d="M57 98q-16 150 -16 289q0 30 2 63.5t5.5 74t4.5 63.5q2 32 4.5 97t6 117t8.5 97v377q0 2 1 21t1 24q0 3 2 21t4.5 30.5t6.5 27.5t12 23.5t18 8.5v-17q4 4 20 8t29.5 8t13.5 7l4 -6h2q176 41 258 41q3 0 24 -2.5t24 -2.5h8q36 -4 73 -4q25 -2 72 -25t47 -42h-20l10 -13 q-12 -5 -31 -15t-35 -15.5t-36 -5.5q-14 0 -40 6t-40 6q-79 0 -156 -23q0 -2 -2 -16.5t-2 -17.5q0 -13 7.5 -48.5t8.5 -40.5v-16q4 -24 4 -76q1 -3 3.5 -19t3.5 -18q0 -1 1 -5t1 -5v-2q0 -1 -1 -11t-1 -11v-2q0 -1 1 -11.5t1 -11.5q0 -3 2 -21.5t2 -21.5l4 10v-55l10 -8v-12 q0 -14 -2 -43.5t-2 -45.5q10 0 29.5 4.5t31.5 4.5q8 0 24 -3.5t24 -3.5q15 0 44 3.5t42 3.5h20l49 -27l4 -4q0 -27 -55 -51h-2l-211 -70q-1 -7 -14 -182v-62q0 -112 4 -178q1 -13 2 -17.5t5 -6.5t13 -2q19 0 57 5t58 5h4q6 -1 35 -3t33 -3q5 -3 19.5 -6.5t25 -9t10.5 -15.5 v-2q-4 -6 -4 -8q-35 -26 -58 -39q-56 -19 -65 -25q-18 -11 -49.5 -34t-46.5 -33q-20 -12 -76 -33l-10 -6q-3 -2 -19 -13t-31 -20.5t-20 -11.5h-23q-4 -1 -24 -12t-33 -11q-23 0 -42 11t-33.5 33.5t-21.5 38t-18 42.5zM498 1587l-76 -22q-7 0 -19 -6q-11 2 -25.5 9.5 t-19.5 8.5l-4 -2l4 -8q-3 2 -18 2l-17.5 10.5t-17.5 9.5l-4 -6l-6 4q-3 2 -10 6.5t-12.5 8t-6.5 2.5q-3 3 -7.5 4.5t-9.5 2t-7 1.5l-6 4q-5 2 -25 20.5t-29 18.5l-14 20l4 2l-12 23v2q-8 12 -2 14q3 1 6.5 -0.5t5 -3t2.5 -0.5l2 2q-9 13 8 23q6 0 8 2q1 -1 1.5 0.5t1.5 4 t2 3.5l8 4q1 0 2.5 2.5t3 5.5t2.5 4h4q11 9 43 23q3 2 17 14.5t22 14.5q8 6 17.5 0.5t13 -9t9 -12.5t5.5 -10l133 -137l19 -27q-2 -4 2.5 -17t1.5 -16zM324 1317v-35q8 27 8 53q-10 0 -17 -10zM391 608v-12q0 -11 -4 -57v16q0 42 4 53zM387 471q0 -4 -2 -16t-2 -17v43 q0 -1 2 -5t2 -5zM326 1208q-2 0 -2 -5t2 -5h2q0 -4 4 -4q3 0 3 5t-3 5h-2q0 4 -4 4zM387 365q1 -3 1 -14.5t-1 -14.5l-1 21zM391 631q1 0 1 -5t-1 -5q-3 0 -3 5t3 5zM315 1300q-3 0 -3 -4t3 -4t3 4t-3 4zM387 950q3 0 3 -4t-3 -4t-3 4t3 4zM373 971q-3 0 -3 -4t3 -4t3 4 t-3 4zM387 322q3 0 3 -3.5t-3 -3.5t-3 3.5t3 3.5zM193 1642l-7 9q11 -4 11 -6zM293 1618q-5 -2 2 -6q6 6 -2 6zM96 78q-3 0 -3 -4t3 -4q2 0 2 4t-2 4zM391 258q1 0 1 -3t-1 -3q-3 0 -3 3t3 3zM311 1309l4 -6v10zM383 504q1 0 1 -2t-1 -2q-3 0 -3 2t3 2zM434 1575 q-2 -2 -1.5 -2.5t3.5 0.5l1 1q-2 2 -3 1zM154 1692q4 -1 2 -4q-3 1 -2 4zM383 414v-2q-3 0 -3 2t3 0zM164 272v-4h2v4h-2zM330 1204q-2 0 -2 -6q2 0 2 6z" />
<glyph unicode="&#xc9;" horiz-adv-x="733" d="M57 98q-16 150 -16 289q0 30 2 63.5t5.5 74t4.5 63.5q2 32 4.5 97t6 117t8.5 97v377q0 2 1 21t1 24q0 3 2 21t4.5 30.5t6.5 27.5t12 23.5t18 8.5v-17q4 4 20 8t29.5 8t13.5 7l4 -6h2q176 41 258 41q3 0 24 -2.5t24 -2.5h8q36 -4 73 -4q25 -2 72 -25t47 -42h-20l10 -13 q-12 -5 -31 -15t-35 -15.5t-36 -5.5q-14 0 -40 6t-40 6q-79 0 -156 -23q0 -2 -2 -16.5t-2 -17.5q0 -13 7.5 -48.5t8.5 -40.5v-16q4 -24 4 -76q1 -3 3.5 -19t3.5 -18q0 -1 1 -5t1 -5v-2q0 -1 -1 -11t-1 -11v-2q0 -1 1 -11.5t1 -11.5q0 -3 2 -21.5t2 -21.5l4 10v-55l10 -8v-12 q0 -14 -2 -43.5t-2 -45.5q10 0 29.5 4.5t31.5 4.5q8 0 24 -3.5t24 -3.5q15 0 44 3.5t42 3.5h20l49 -27l4 -4q0 -27 -55 -51h-2l-211 -70q-1 -7 -14 -182v-62q0 -112 4 -178q1 -13 2 -17.5t5 -6.5t13 -2q19 0 57 5t58 5h4q6 -1 35 -3t33 -3q5 -3 19.5 -6.5t25 -9t10.5 -15.5 v-2q-4 -6 -4 -8q-35 -26 -58 -39q-56 -19 -65 -25q-18 -11 -49.5 -34t-46.5 -33q-20 -12 -76 -33l-10 -6q-3 -2 -19 -13t-31 -20.5t-20 -11.5h-23q-4 -1 -24 -12t-33 -11q-23 0 -42 11t-33.5 33.5t-21.5 38t-18 42.5zM229 1565l-75 22q-3 3 1.5 16t2.5 17l18 27l133 137 q0 1 5.5 10t9 12.5t13 9t17.5 -0.5q8 -2 22 -14.5t17 -14.5q32 -14 43 -23h4q1 -1 3 -4t3.5 -5.5t2.5 -2.5l8 -4q1 -1 1.5 -3.5t1 -4t1.5 -0.5l8 -2q17 -10 8 -23l2 -2q1 -1 3 0.5t5.5 3t6.5 0.5q6 -2 -2 -14v-2l-13 -23l4 -2l-14 -20q-9 0 -28.5 -18.5t-24.5 -20.5l-6 -4 q-2 -1 -7.5 -1.5t-10 -2t-7.5 -4.5q-1 1 -6.5 -2.5t-12.5 -8t-10 -6.5q-4 -4 -6 -4l-4 6q-5 -2 -17.5 -9.5l-17.5 -10.5q-15 0 -18 -2l4 8l-4 2q-5 -1 -19.5 -8.5t-25.5 -9.5q-12 6 -19 6zM324 1317v-35q8 27 8 53q-10 0 -17 -10zM391 608v-12q0 -11 -4 -57v16q0 42 4 53z M387 471q0 -4 -2 -16t-2 -17v43q0 -1 2 -5t2 -5zM326 1208q-2 0 -2 -5t2 -5h2q0 -4 4 -4q3 0 3 5t-3 5h-2q0 4 -4 4zM387 365q1 -3 1 -14.5t-1 -14.5l-1 21zM391 631q1 0 1 -5t-1 -5q-3 0 -3 5t3 5zM315 1300q-3 0 -3 -4t3 -4t3 4t-3 4zM387 950q3 0 3 -4t-3 -4t-3 4t3 4z M373 971q-3 0 -3 -4t3 -4t3 4t-3 4zM387 322q3 0 3 -3.5t-3 -3.5t-3 3.5t3 3.5zM465 1651l-6 -9l-4 3q0 3 10 6zM358 1618q-8 0 -2 -6q7 4 2 6zM96 78q-3 0 -3 -4t3 -4q2 0 2 4t-2 4zM391 258q1 0 1 -3t-1 -3q-3 0 -3 3t3 3zM311 1309l4 -6v10zM383 504q1 0 1 -2t-1 -2 q-3 0 -3 2t3 2zM217 1575l-2 -2q3 -1 3.5 -0.5t-1.5 2.5zM498 1692q2 -1 -2 -4q-2 0 -1.5 2t3.5 2zM164 272v-4h2v4h-2zM330 1204q-2 0 -2 -6q2 0 2 6zM383 414v-2q-3 0 -3 2t3 0z" />
<glyph unicode="&#xca;" horiz-adv-x="733" d="M57 98q-16 150 -16 289q0 30 2 63.5t5.5 74t4.5 63.5q2 32 4.5 97t6 117t8.5 97v377q0 2 1 21t1 24q0 3 2 21t4.5 30.5t6.5 27.5t12 23.5t18 8.5v-17q4 4 20 8t29.5 8t13.5 7l4 -6h2q176 41 258 41q3 0 24 -2.5t24 -2.5h8q36 -4 73 -4q25 -2 72 -25t47 -42h-20l10 -13 q-12 -5 -31 -15t-35 -15.5t-36 -5.5q-14 0 -40 6t-40 6q-79 0 -156 -23q0 -2 -2 -16.5t-2 -17.5q0 -13 7.5 -48.5t8.5 -40.5v-16q4 -24 4 -76q1 -3 3.5 -19t3.5 -18q0 -1 1 -5t1 -5v-2q0 -1 -1 -11t-1 -11v-2q0 -1 1 -11.5t1 -11.5q0 -3 2 -21.5t2 -21.5l4 10v-55l10 -8v-12 q0 -14 -2 -43.5t-2 -45.5q10 0 29.5 4.5t31.5 4.5q8 0 24 -3.5t24 -3.5q15 0 44 3.5t42 3.5h20l49 -27l4 -4q0 -27 -55 -51h-2l-211 -70q-1 -7 -14 -182v-62q0 -112 4 -178q1 -13 2 -17.5t5 -6.5t13 -2q19 0 57 5t58 5h4q6 -1 35 -3t33 -3q5 -3 19.5 -6.5t25 -9t10.5 -15.5 v-2q-4 -6 -4 -8q-35 -26 -58 -39q-56 -19 -65 -25q-18 -11 -49.5 -34t-46.5 -33q-20 -12 -76 -33l-10 -6q-3 -2 -19 -13t-31 -20.5t-20 -11.5h-23q-4 -1 -24 -12t-33 -11q-23 0 -42 11t-33.5 33.5t-21.5 38t-18 42.5zM18 1583q0 26 23 66l2 2q31 61 92.5 130.5t114.5 102.5 q8 2 12 4h4q0 -1 1 -4.5t1 -5.5h33q0 -6 27 -6q4 0 10.5 3t9.5 3h2l-4 -6q11 -4 54.5 -14.5t72 -23.5t47.5 -36l70 -78q6 -16 8 -20l10 -39v-4l-4 -4v-4l-6 -4q-1 -2 -0.5 -4t1.5 -5t1 -4l-2 -4q-2 -2 -2 -8.5t2 -9.5l-8 -2q-11 -9 -19 -9q-2 0 -2 -10q0 -3 -1 -8t-1 -8 q-2 -9 -35 -19t-36 -14v14q-6 -10 -21 -20l-12 16q-4 0 -4 -14q-5 8 -9 21t-7 29t-5 22q-5 14 -13 29t-14.5 25t-20 26t-19.5 22t-23 23.5t-20 21.5l-60 -72l-32 -49q-35 -53 -71 -82.5t-85 -29.5q-21 0 -33 4q-5 0 -17 25.5t-12 31.5zM324 1317v-35q8 27 8 53 q-10 0 -17 -10zM391 608v-12q0 -11 -4 -57v16q0 42 4 53zM387 471q0 -4 -2 -16t-2 -17v43q0 -1 2 -5t2 -5zM326 1208q-2 0 -2 -5t2 -5h2q0 -4 4 -4q3 0 3 5t-3 5h-2q0 4 -4 4zM387 365q1 -3 1 -14.5t-1 -14.5l-1 21zM575 1645q-3 0 -3 -5.5t3 -5.5q1 0 1 5.5t-1 5.5z M391 631q1 0 1 -5t-1 -5q-3 0 -3 5t3 5zM315 1300q-3 0 -3 -4t3 -4t3 4t-3 4zM387 950q3 0 3 -4t-3 -4t-3 4t3 4zM373 971q-3 0 -3 -4t3 -4t3 4t-3 4zM285 1694q3 0 3 -3t-3 -3t-3 3t3 3zM387 322q3 0 3 -3.5t-3 -3.5t-3 3.5t3 3.5zM96 78q-3 0 -3 -4t3 -4q2 0 2 4t-2 4z M391 258q1 0 1 -3t-1 -3q-3 0 -3 3t3 3zM311 1309l4 -6v10zM383 504q1 0 1 -2t-1 -2q-3 0 -3 2t3 2zM330 1204q-2 0 -2 -6q2 0 2 6zM164 272v-4h2v4h-2zM383 414v-2q-3 0 -3 2t3 0zM213 1774l-2 -9h2v9zM481 1706q-1 0 -1 -2t1 -2v4zM279 1683q-1 -1 -3 0q1 1 3 0zM586 1702 v-2v2z" />
<glyph unicode="&#xcb;" horiz-adv-x="733" d="M57 98q-16 150 -16 289q0 30 2 63.5t5.5 74t4.5 63.5q2 32 4.5 97t6 117t8.5 97v377q0 2 1 21t1 24q0 3 2 21t4.5 30.5t6.5 27.5t12 23.5t18 8.5v-17q4 4 20 8t29.5 8t13.5 7l4 -6h2q176 41 258 41q3 0 24 -2.5t24 -2.5h8q36 -4 73 -4q25 -2 72 -25t47 -42h-20l10 -13 q-12 -5 -31 -15t-35 -15.5t-36 -5.5q-14 0 -40 6t-40 6q-79 0 -156 -23q0 -2 -2 -16.5t-2 -17.5q0 -13 7.5 -48.5t8.5 -40.5v-16q4 -24 4 -76q1 -3 3.5 -19t3.5 -18q0 -1 1 -5t1 -5v-2q0 -1 -1 -11t-1 -11v-2q0 -1 1 -11.5t1 -11.5q0 -3 2 -21.5t2 -21.5l4 10v-55l10 -8v-12 q0 -14 -2 -43.5t-2 -45.5q10 0 29.5 4.5t31.5 4.5q8 0 24 -3.5t24 -3.5q15 0 44 3.5t42 3.5h20l49 -27l4 -4q0 -27 -55 -51h-2l-211 -70q-1 -7 -14 -182v-62q0 -112 4 -178q1 -13 2 -17.5t5 -6.5t13 -2q19 0 57 5t58 5h4q6 -1 35 -3t33 -3q5 -3 19.5 -6.5t25 -9t10.5 -15.5 v-2q-4 -6 -4 -8q-35 -26 -58 -39q-56 -19 -65 -25q-18 -11 -49.5 -34t-46.5 -33q-20 -12 -76 -33l-10 -6q-3 -2 -19 -13t-31 -20.5t-20 -11.5h-23q-4 -1 -24 -12t-33 -11q-23 0 -42 11t-33.5 33.5t-21.5 38t-18 42.5zM403 1563q0 -4 -6 -4v30l-4 4q-2 0 -2 6q0 32 18.5 93 t18.5 92l-2 10q1 6 15.5 7.5t15.5 2.5q1 -4 2.5 -5.5t5.5 -2t8 -2.5l6 -6h2q1 0 3.5 2t4.5 2q4 0 10 -6t9 -6l4 2l6 2l6 -2h2l4 2v2l2 -2q2 -3 13 -8.5t14 -12.5q4 -7 12.5 -6.5t14.5 -1.5l2 -8q5 -8 24 -13t23 -14q6 -18 6 -37v-6h-4l-4 -20q-8 -1 -13 -12.5t-10 -14.5 q-1 0 -4 -1t-4 -1l-4 -10l-4 6h-2q-4 0 -8.5 -3t-7 -6t-6.5 -9t-5 -7q0 5 -6 5q-1 0 -8.5 -10t-9.5 -11h-6l-5 -6l-4 8l-2 2q-20 -20 -26 -24q-2 0 -7.5 -3t-5.5 -4h-4q-4 3 -4 5h-2q-15 0 -29 -9v15q-3 -2 -5 -4.5t-3.5 -4l-3 -3t-4.5 -2.5t-8 -1q-3 0 -11 4t-8 7z M129 1624v123l4 8h14l5 2q2 0 11.5 -6.5t12.5 -7.5q5 -2 30 -4.5t32 -5.5q5 -2 15.5 -10t14.5 -9q2 -1 11 -2t14.5 -4.5t5.5 -11.5l6 4q3 0 9.5 -8t7.5 -9l4 5q6 0 6 -23q0 -1 -5 -8t-10.5 -15.5t-7.5 -11.5q-3 -4 -25 -15t-24 -11h-2q-2 4 -2 6q-1 -1 -9.5 -10.5t-15 -15 t-10.5 -5.5q-3 0 -7.5 4t-6.5 4q-1 0 -6.5 -5t-7.5 -5q-4 -4 -15 -4q-8 0 -8 4q-2 -4 -8 -4h-4q-4 6 -6 6q-3 2 -7.5 0.5t-7.5 3.5t-1.5 20.5t-6.5 20.5zM324 1317v-35q8 27 8 53q-10 0 -17 -10zM391 608v-12q0 -11 -4 -57v16q0 42 4 53zM387 471q0 -4 -2 -16t-2 -17v43 q0 -1 2 -5t2 -5zM326 1208q-2 0 -2 -5t2 -5h2q0 -4 4 -4q3 0 3 5t-3 5h-2q0 4 -4 4zM387 365q1 -3 1 -14.5t-1 -14.5l-1 21zM391 631q1 0 1 -5t-1 -5q-3 0 -3 5t3 5zM651 1710v-20h-2v16zM315 1300q-3 0 -3 -4t3 -4t3 4t-3 4zM387 950q3 0 3 -4t-3 -4t-3 4t3 4zM373 971 q-3 0 -3 -4t3 -4t3 4t-3 4zM387 322q3 0 3 -3.5t-3 -3.5t-3 3.5t3 3.5zM96 78q-3 0 -3 -4t3 -4q2 0 2 4t-2 4zM418 1573q-3 0 -3 -3t3 -3q2 0 2 3t-2 3zM391 258q1 0 1 -3t-1 -3q-3 0 -3 3t3 3zM311 1309l4 -6v10zM655 1683q1 -1 1 -5t-1 -5l-1 7zM256 1704q-2 0 -2 -4t2 -4 t2 4t-2 4zM383 504q1 0 1 -2t-1 -2q-3 0 -3 2t3 2zM164 272v-4h2v4h-2zM330 1204q-2 0 -2 -6q2 0 2 6zM383 414v-2q-3 0 -3 2t3 0zM459 1571q-1 0 -1 -2t1 -2q4 0 0 4zM463 1810l2 -4h-2v4zM166 1640v-2l4 2h-4zM436 1817h-2h2zM449 1579v-2v2z" />
<glyph unicode="&#xcc;" horiz-adv-x="358" d="M125 -47q-24 34 -40 68.5t-25 91t-13 106t-4.5 152t1.5 187t5 253.5t4 311v4q4 7 4 9v34q0 91 11 230l6 12q2 4 4 4h55q0 4 8 4l9 -4q28 0 34 6h25q33 0 42.5 -6.5t27.5 -36.5q1 -2 2 -5t2.5 -4.5t5.5 -2.5v-35q9 -3 11 -14.5t9 -13.5l6 -50l-18 -297q0 -22 4 -22l4 8v-6 q0 -37 -6 -109.5t-6 -109.5q0 -10 4 -12l-4 -9l4 -6q0 -4 -2 -8.5t-2 -9.5q3 4 5.5 -51t2.5 -93q0 -33 4 -98t4 -96q0 -2 -2 -7t-2 -10q0 -10 10 -10q0 -9 -5 -27t-5 -26q0 -16 5 -45t5 -43q0 -17 -6 -35l-12 27h-14q18 -83 18 -109v-8q-4 2 -4 8v4q0 4 -14 4v-4q0 -1 4 -12 t4 -12v-2q0 -21 -10 -21h-5v-37q0 -6 -33 -23t-34 -30l-2 4h-4q-2 -1 -8 -5.5t-11 -4.5q-3 0 -7 3t-7 3h-8q-17 10 -37 37zM315 1323q2 0 2 -6q0 -4 -2 -4q-4 0 -4 4q0 6 4 6zM315 127q0 -1 1 -3t1 -3l-2 -4q-4 0 -4 4q0 6 4 6zM285 182q0 -5 6 -8l2 4q0 4 -8 4zM6 1651 q4 -1 2 -4q-3 1 -2 4zM287 1534q-2 -2 -1.5 -2.5t3.5 0.5l1 1q-2 2 -3 1zM145 1577q-5 -3 2 -6q6 6 -2 6zM45 1602l-6 8q10 -3 10 -6zM350 1546l-76 -22q-6 0 -18 -6q-11 2 -25.5 9t-19.5 9l-4 -2l4 -8q-3 2 -18 2l-17.5 10.5t-17.5 9.5l-4 -6l-7 4q-3 2 -10 6.5t-12 8 t-6 2.5q-3 3 -7.5 4.5t-10 2t-7.5 1.5l-6 4q-5 2 -24.5 20.5t-28.5 18.5l-15 20l5 2l-13 23v2q-8 12 -2 14q3 1 6.5 -0.5t5.5 -3t3 -0.5l2 2q-9 13 8 23q6 0 8 2q1 -1 1.5 0.5t1 4t1.5 3.5l8 4q1 0 2.5 2.5t3 5.5t2.5 4h5q11 9 43 23q3 2 17 14.5t22 14.5q8 6 17.5 0.5 t13 -9t9 -12.5t5.5 -10l133 -137l18 -27q-2 -4 2.5 -17t1.5 -16z" />
<glyph unicode="&#xcd;" horiz-adv-x="358" d="M125 -47q-24 34 -40 68.5t-25 91t-13 106t-4.5 152t1.5 187t5 253.5t4 311v4q4 7 4 9v34q0 91 11 230l6 12q2 4 4 4h55q0 4 8 4l9 -4q28 0 34 6h25q33 0 42.5 -6.5t27.5 -36.5q1 -2 2 -5t2.5 -4.5t5.5 -2.5v-35q9 -3 11 -14.5t9 -13.5l6 -50l-18 -297q0 -22 4 -22l4 8v-6 q0 -37 -6 -109.5t-6 -109.5q0 -10 4 -12l-4 -9l4 -6q0 -4 -2 -8.5t-2 -9.5q3 4 5.5 -51t2.5 -93q0 -33 4 -98t4 -96q0 -2 -2 -7t-2 -10q0 -10 10 -10q0 -9 -5 -27t-5 -26q0 -16 5 -45t5 -43q0 -17 -6 -35l-12 27h-14q18 -83 18 -109v-8q-4 2 -4 8v4q0 4 -14 4v-4q0 -1 4 -12 t4 -12v-2q0 -21 -10 -21h-5v-37q0 -6 -33 -23t-34 -30l-2 4h-4q-2 -1 -8 -5.5t-11 -4.5q-3 0 -7 3t-7 3h-8q-17 10 -37 37zM315 1323q2 0 2 -6q0 -4 -2 -4q-4 0 -4 4q0 6 4 6zM315 127q0 -1 1 -3t1 -3l-2 -4q-4 0 -4 4q0 6 4 6zM285 182q0 -5 6 -8l2 4q0 4 -8 4zM82 1524 l-76 22q-3 3 1.5 16t2.5 17l19 27l133 137q0 1 5.5 10t9 12.5t13 9t17.5 -0.5q8 -2 22 -14.5t17 -14.5q32 -14 43 -23h4q1 -1 2.5 -4t3 -5.5t2.5 -2.5l8 -4q1 -1 1.5 -3.5t1 -4t1.5 -0.5l9 -2q17 -10 8 -23l2 -2q1 -1 2.5 0.5t5 3t6.5 0.5q6 -2 -2 -14v-2l-12 -23l4 -2 l-14 -20q-9 0 -29 -18.5t-25 -20.5l-6 -4q-2 -1 -7 -1.5t-9.5 -2t-7.5 -4.5q-1 1 -6.5 -2.5t-12.5 -8t-10 -6.5q-4 -4 -6 -4l-4 6q-5 -2 -17.5 -9.5l-17.5 -10.5q-16 0 -19 -2l5 8l-5 2q-5 -2 -19.5 -9t-25.5 -9q-12 6 -18 6zM317 1610l-6 -8l-4 2q0 3 10 6zM211 1577 q-8 0 -2 -6q7 3 2 6zM70 1534l-2 -2q3 -1 3.5 -0.5t-1.5 2.5zM350 1651q2 -1 -2 -4q-2 0 -1.5 2t3.5 2z" />
<glyph unicode="&#xce;" horiz-adv-x="358" d="M125 -47q-24 34 -40 68.5t-25 91t-13 106t-4.5 152t1.5 187t5 253.5t4 311v4q4 7 4 9v34q0 91 11 230l6 12q2 4 4 4h55q0 4 8 4l9 -4q28 0 34 6h25q33 0 42.5 -6.5t27.5 -36.5q1 -2 2 -5t2.5 -4.5t5.5 -2.5v-35q9 -3 11 -14.5t9 -13.5l6 -50l-18 -297q0 -22 4 -22l4 8v-6 q0 -37 -6 -109.5t-6 -109.5q0 -10 4 -12l-4 -9l4 -6q0 -4 -2 -8.5t-2 -9.5q3 4 5.5 -51t2.5 -93q0 -33 4 -98t4 -96q0 -2 -2 -7t-2 -10q0 -10 10 -10q0 -9 -5 -27t-5 -26q0 -16 5 -45t5 -43q0 -17 -6 -35l-12 27h-14q18 -83 18 -109v-8q-4 2 -4 8v4q0 4 -14 4v-4q0 -1 4 -12 t4 -12v-2q0 -21 -10 -21h-5v-37q0 -6 -33 -23t-34 -30l-2 4h-4q-2 -1 -8 -5.5t-11 -4.5q-3 0 -7 3t-7 3h-8q-17 10 -37 37zM-129 1542q0 26 23 66l2 2q31 61 92 130.5t114 102.5q9 2 13 4h4q0 -1 1 -4.5t1 -5.5h33q0 -6 26 -6q4 0 11 3t10 3h2l-4 -6q11 -4 54.5 -14.5 t72 -23.5t47.5 -36l69 -78q7 -16 9 -20l10 -39v-4l-4 -4v-4l-6 -4q-1 -2 -0.5 -4t1.5 -5t1 -4l-2 -4q-1 -1 -1 -8t1 -10l-9 -2q-10 -8 -18 -8q-2 0 -2 -11q0 -3 -1 -8t-1 -8q-2 -9 -35.5 -19t-36.5 -14v14q-7 -11 -20 -20l-13 16q-4 0 -4 -14q-7 11 -13.5 41t-6.5 31 q-6 17 -14 32.5t-23 34t-21.5 26t-28.5 30t-24 24.5l-59 -72l-33 -49q-35 -53 -71 -82.5t-85 -29.5q-20 0 -32 4q-5 0 -17 25.5t-12 31.5zM315 1323q2 0 2 -6q0 -4 -2 -4q-4 0 -4 4q0 6 4 6zM315 127q0 -1 1 -3t1 -3l-2 -4q-4 0 -4 4q0 6 4 6zM285 182q0 -5 6 -8l2 4 q0 4 -8 4zM428 1604q-3 0 -3 -5.5t3 -5.5q2 0 2 5.5t-2 5.5zM137 1653q3 0 3 -3t-3 -3t-3 3t3 3zM66 1733l-3 -9h3v9zM334 1665q-2 0 -2 -2t2 -2v4zM131 1642h-2h2zM438 1661v-2v2z" />
<glyph unicode="&#xcf;" horiz-adv-x="358" d="M125 -47q-24 34 -40 68.5t-25 91t-13 106t-4.5 152t1.5 187t5 253.5t4 311v4q4 7 4 9v34q0 91 11 230l6 12q2 4 4 4h55q0 4 8 4l9 -4q28 0 34 6h25q33 0 42.5 -6.5t27.5 -36.5q1 -2 2 -5t2.5 -4.5t5.5 -2.5v-35q9 -3 11 -14.5t9 -13.5l6 -50l-18 -297q0 -22 4 -22l4 8v-6 q0 -37 -6 -109.5t-6 -109.5q0 -10 4 -12l-4 -9l4 -6q0 -4 -2 -8.5t-2 -9.5q3 4 5.5 -51t2.5 -93q0 -33 4 -98t4 -96q0 -2 -2 -7t-2 -10q0 -10 10 -10q0 -9 -5 -27t-5 -26q0 -16 5 -45t5 -43q0 -17 -6 -35l-12 27h-14q18 -83 18 -109v-8q-4 2 -4 8v4q0 4 -14 4v-4q0 -1 4 -12 t4 -12v-2q0 -21 -10 -21h-5v-37q0 -6 -33 -23t-34 -30l-2 4h-4q-2 -1 -8 -5.5t-11 -4.5q-3 0 -7 3t-7 3h-8q-17 10 -37 37zM274 1511q-3 0 -10 3t-8 6q-2 -2 -6 -2v30l-4 4q-2 0 -2 7q0 31 18.5 91.5t18.5 92.5l-2 10q1 6 15 7.5t15 2.5q1 -4 3 -5.5t6 -2t8 -2.5l6 -6h2 q1 0 3.5 2t4.5 2q4 0 9.5 -6t8.5 -6l5 2l6 2l6 -2h2l4 2v2l2 -2q2 -3 13 -8.5t14 -12.5q4 -7 12 -6.5t14 -1.5l2 -8q5 -8 24 -13t23 -14q7 -21 7 -37v-6h-5l-4 -20q-8 -1 -12.5 -12.5t-9.5 -14.5q-1 0 -4 -1t-4 -1l-4 -10l-5 6h-2q-4 0 -8.5 -3t-6.5 -5.5t-6 -8.5t-5 -7 q0 4 -6 4q-1 0 -9 -10t-10 -11h-6q-4 0 -4 -6l-4 8l-2 2q-21 -20 -27 -24q-2 0 -7 -2.5t-5 -3.5h-4q-4 2 -4 4h-2q-16 0 -29 -9v15q-4 -3 -7 -7t-6.5 -6t-11.5 -2zM-18 1583v123l4 8h14l4 2q2 0 12 -6.5t13 -7.5q5 -2 29.5 -4.5t31.5 -5.5q5 -2 16 -10t15 -9q2 -1 11 -2 t14.5 -4.5t5.5 -11.5l6 4q3 0 9 -8t7 -9l4 5q6 0 6 -23q0 -1 -4.5 -8t-10 -15.5t-7.5 -11.5q-3 -4 -25 -15t-24 -11h-2q-2 4 -2 6q-1 -1 -9.5 -10.5t-15 -15t-10.5 -5.5q-3 0 -8 4t-7 4q-1 0 -6.5 -5t-7.5 -5q-4 -4 -14 -4q-8 0 -8 4q-2 -4 -9 -4h-4q-4 6 -6 6q-3 2 -7 0.5 t-7 3.5t-1.5 20.5t-6.5 20.5zM315 1323q2 0 2 -6q0 -4 -2 -4q-4 0 -4 4q0 6 4 6zM315 127q0 -1 1 -3t1 -3l-2 -4q-4 0 -4 4q0 6 4 6zM285 182q0 -5 6 -8l2 4q0 4 -8 4zM504 1669v-20h-2v16zM270 1532q-3 0 -3 -3t3 -3q2 0 2 3t-2 3zM508 1642q2 -2 2 -5t-2 -5l-1 7z M109 1663q-1 0 -1 -4t1 -4t1 4t-1 4zM311 1530q-1 0 -1 -2t1 -2q4 0 0 4zM315 1769l2 -4h-2v4zM18 1599v-2l5 2h-5zM289 1776h-2h2zM301 1538v-2v2z" />
<glyph unicode="&#xd0;" horiz-adv-x="978" d="M221 -41q-77 146 -65 424l-15 229q-31 0 -45 4q-12 2 -33.5 30.5t-21.5 49.5q0 19 8 43q0 6 4.5 10.5t5.5 12.5q0 14 7 14q4 0 15 -3t17 -3q21 0 33 2l-22 379q-9 64 -23 219q0 12 14 12q3 0 5 -2t4 -2l6 8l4 -8q11 3 42.5 11.5t45 12t40.5 9.5t45 8.5t41.5 5t45.5 2.5 q6 0 20 -2t27 -2q10 0 29 1t20 1q5 -5 64 -12q124 -32 208 -86.5t136 -152.5q1 -8 19 -63t18 -81h-7q0 -18 7 -49.5t8 -46.5q-3 10 -13 10v-98q-7 -24 -10.5 -70.5t-9.5 -68.5q-25 -93 -62.5 -185t-94 -190t-137.5 -175.5t-175 -115.5q-6 -2 -12 -12.5t-15 -10.5q-1 1 -3 2 q-5 4 -5 5q-10 -28 -25 -40.5t-35.5 -21.5t-33.5 -22q-14 0 -14 4q-3 0 -4 -4t-7 -4q-18 0 -31.5 10.5t-19.5 11.5zM426 778v-10q53 0 88 -12q0 -2 -1 -5t-1 -6h4q0 -5 3 -8t3 -6q0 -2 -1 -5.5t-1 -6.5l6 -12q2 -7 7.5 -10t7.5 -9q-2 0 -2.5 -4.5t-1.5 -5.5l-5 -6 q-3 -3 -7 -8t-5.5 -7t-5 -5t-5.5 -3.5t-6.5 -2t-8.5 0.5q-2 0 -2 -10q-5 0 -5 4l-2 -6h-55l21 -350q16 9 28 27.5t25.5 49.5t15.5 35q24 31 44 68t28.5 55.5t26.5 68.5t22 60q0 1 1 4t1 4q51 155 51 248q0 191 -108 342q-30 36 -97 61t-114 25q-33 0 -33 -12q0 -7 12 -55 q4 4 6 4q5 0 7.5 -15.5t13.5 -15.5q11 -26 22 -170q20 -235 23 -281h35q-6 -6 -21 -10v4h-2q0 -1 -1 -2t-1 -2h-10zM455 260q1 -1 2 -3q1 -3 2 -3q79 92 129 207q-4 0 -11 -12.5t-15 -28.5t-15 -23q-16 -21 -54 -76.5t-38 -60.5zM924 1016q1 -7 5 -19t6 -20.5t1 -13.5 q-12 24 -12 53zM848 1198q0 -8 3 -12.5t9 -3.5q0 14 -12 18v-2zM895 1073q0 -5 5 -8.5t11 -3.5q0 12 -16 12zM932 899q0 -14 -4 -14q0 13 4 14zM825 1239q0 -4 4 -8l5 4q-2 4 -9 4zM928 850q2 0 2 -4t-2 -4q-4 0 -4 4t4 4zM369 1001q-2 0 -2 -4t2 -4t2 4t-2 4zM113 1200 q-4 0 -4 -4q2 -2 4 -2l2 2zM819 1253q-4 0 -4 -4q2 -2 4 -2l2 2zM477 788h2q-1 -1 -1.5 -3.5t-1 -4.5t-1.5 -2q0 10 2 10zM473 788q-4 -4 -8 0l6 1zM793 1065l-7 -4h7v4zM909 1049q0 2 -4 2q0 -4 2 -4t2 2zM367 872l-5 -2q0 -2 5 -2v4zM248 39q-2 0 -2 -4h2q2 0 2 2z M868 721q-2 2 -4 2l-2 -2h6zM485 788q0 -4 -4 0l4 1v-1zM494 784h-2h2zM465 778h-2q-1 0 2 0z" />
<glyph unicode="&#xd1;" horiz-adv-x="997" d="M123 20l-4 3q-6 -6 -6 -9q4 -4 4 -8q-3 1 -5.5 3t-3.5 4t-2.5 6t-3.5 6h-2q-6 -7 -4 -9l-16 15l-17 51l-4 6l-4 21l8 2q0 35 -4 51q-10 215 -10 401q0 21 2 25q2 8 2 48.5t1.5 75.5t4.5 36q-4 19 1 54.5t3 49.5v469q-5 33 13 33q5 0 8 -9.5t8 -9.5t9.5 9.5t9.5 9.5l4 -2 l8 -4q1 0 8 1t8 1h2q4 0 14.5 -2t14.5 -2q5 0 13.5 4t13.5 4q27 0 45 -11q1 0 5 -3t5 -3l2 -2q3 0 7 3t7 3h2l17 -16l4 -49q4 -1 6.5 0t4 4t2 5t1 7.5t0.5 7.5h2q10 -35 33 -45h18q8 -8 9 -8l6 4q2 2 16 2h2q8 0 14.5 -8.5t10.5 -11.5q1 1 1.5 4.5t1.5 5.5t3 2q9 0 49 -20 q0 -9 19.5 -54t25.5 -45q4 0 8 4l-8 -16q2 -2 6 -2h8l13 -29q11 -21 28 -65.5t29 -65.5q0 -1 11 -18t12 -21l61 -131q7 -14 10 -14h4l9 68q0 2 1 6.5t1 5.5l22 184l1 4q2 5 1 6q2 15 4.5 45.5t6 54.5t8.5 44q2 4 6.5 30t12 43t20.5 9l-9 18l4 8v21q2 0 8 -2t9 -2 q-2 19 3.5 49.5t6.5 42.5q4 -8 22 -14.5t25 -4.5q5 -11 30.5 -18.5t39.5 -7.5q18 -29 22 -82q2 -6 2 -27q0 -12 -5.5 -49.5t-8.5 -46.5v-8q0 -3 3.5 -7t4.5 -8v-6l-14 -141q-17 -37 -8 -113h4l10 80l8 19v-6l-33 -453l11 -90q-5 0 -4.5 -12t0.5 -13q-1 -12 -3 -47t-2 -47.5 t1 -48.5q2 -10 14.5 -32.5t13.5 -37.5q2 -12 -1 -25t-15 -10q-6 5 -6 7q-9 -7 -13 -19t-8 -16h-8q-9 -3 -21 -11t-23 -12.5t-26 -1.5q-3 -5 -25.5 -9.5t-33.5 -4.5q-16 1 -37.5 27.5t-26.5 29.5l-90 158q-5 19 -41 76l-2 4l-123 276l-2 15l-84 186l-2 6q0 2 -4 2v-2 l-10 -119q3 -21 3.5 -26.5t-2 -22.5t-3.5 -28q-6 -116 -2 -439q-6 -24 -6 -53q-8 4 -8 -2l-21 -78q-20 4 -25.5 -5t-7.5 -32q-2 3 -6 15t-8 14q-4 -2 -5.5 -8t-1.5 -13.5t-1 -9.5q-8 -14 -32.5 -26t-41.5 -11h-10q-1 0 -5 2t-5 2q-2 -2 -2 -4q0 -1 -2 -4.5t-2.5 -4.5 t-2.5 -3.5t-5 -3t-7 -0.5h-2q-1 2 -3.5 5.5t-4.5 6.5t-2 4v6zM569 1427q-7 3 -23.5 4.5t-23.5 4.5q-27 14 -42.5 36t-30.5 60.5t-21 50.5l-2 2q-4 -3 -14.5 -11t-16 -12.5t-12 -12.5t-10.5 -17q0 6 -6 6h-2q-7 -16 -25 -68q-1 -5 -6 -8t-6 -4q-2 -6 -4 -8h-2q0 1 -1.5 3 t-1.5 3q-7 -1 -13 -8l-5 -8q-20 0 -20 -4l-2 -2q-4 -4 -15 -4q-6 0 -6 2q-1 0 -8 2t-8 2q-5 20 -15 30q-5 34 -4 41q2 76 74 144q34 24 68 24q15 0 38 -6.5t29 -7.5q9 -1 26.5 -2.5t28 -3t21.5 -6.5q1 0 7 -4.5t7 -4.5q1 -1 22.5 -8t22.5 -8l27 -39q3 -6 5 -22t5 -23l4 -2 q21 0 39 36.5t23 63.5q3 6 7.5 28.5t4.5 27.5q0 2 1.5 3.5l2.5 2.5h2q8 0 13 -9.5t10 -9.5l6 5q4 0 6.5 -5.5t5.5 -5.5q1 0 4 1t4 1q4 0 7.5 -4.5t3.5 -7.5l6 10q0 -14 10 -14q8 0 8 4l6 -1q5 -1 10.5 -4t8.5 -9q0 -1 1 -8.5t2 -10.5t4 -7t9 -5q-10 -60 -39 -119v-2h2v-4 q-27 -31 -70 -51.5t-85 -20.5q-16 0 -52 4zM45 184q3 -4 4.5 -15.5t-0.5 -14.5l-3 8zM492 1190l2 2q2 -1 4 -4l2 -4v-4q-6 6 -8 6v4zM49 141q2 -3 2.5 -14t-0.5 -16zM950 1159q7 -2 4 -6q-1 -1 -4 0q-3 0 -3 3t3 3zM915 678q-3 0 -3 -4t3 -4t3 4t-3 4zM43 264q2 -2 2 -16 q-3 2 -2 16zM946 993q5 -9 2 -12l-2 5q-2 7 0 7zM856 1274l-2 -2q-4 -4 -6 -4v-4l10 8zM889 129l2 -4h8l-6 4h-4zM395 1661v-8q4 2 4 8h-4zM768 1217v-9h2v9h-2zM922 858v-4h4v4h-4zM98 47l-6 -4h8zM831 1335q0 3 -2.5 3t-1.5 -3q0 -4 4 0zM770 1196q0 3 -3 3t-1 -3 q0 -4 4 0zM924 836q0 2 -2 2t-2 -2q4 -8 4 0zM940 590q2 0 2 -3t-2 -3l-2 3zM256 1581q-1 1 -1 -1l1 -5q3 3 0 6zM899 1300l4 -4v4h-4zM799 1589q-1 0 -1 -3t1 -3v6zM362 1565q-2 2 -2 -1q1 -1 2 -1v2zM797 1569v-2v2z" />
<glyph unicode="&#xd2;" horiz-adv-x="956" d="M897 901v-6q0 -6 4 -6q2 0 6 12q4 -18 8 -29q-4 -62 -10 -94q-3 -13 -13.5 -84.5t-26 -141t-40.5 -126.5q-3 -7 -29.5 -66.5t-31.5 -72.5v-15l-55 -79q-45 -67 -147 -100.5t-200 -33.5q-49 0 -96.5 28.5t-83.5 73.5t-62.5 93t-41.5 94q-37 112 -37 252q0 135 45 338 q12 10 12 37q20 71 44 136.5t57 136.5t74.5 114t82.5 43q17 0 52.5 -4t74.5 -4q3 -8 36 -15.5t34 -15.5l-6 -2q0 -12 26 -12h15q77 -33 98 -45q54 -26 115 -95.5t59 -101.5l-8 4q-1 -4 1.5 -6t4.5 -2h4q12 -16 18 -43.5t12 -74.5t11 -75q-6 -2 -6 -12zM618 547v-6l3 2 l-17 -29q0 -1 1 -2t1 -2q-4 0 -4 16l25 64q8 5 8 14q0 12 8 18t8 9q0 19 9.5 38t9.5 33q16 72 16 117q0 3 -4 7.5t-4 7.5q0 2 4 12t4 12q0 52 -1 83t-5.5 74t-15 71t-27.5 60t-45 57t-66 46q-47 31 -67 31q-6 0 -52.5 -85t-46.5 -99q12 0 17 16v-8h4q1 0 3.5 5.5t2.5 8.5 l-4 6q5 9 12 9q0 -11 -7 -30.5t-7 -21.5q-43 -99 -43 -161q0 -14 6 -29t6 -21q0 8 -3 -10q-17 -91 -23 -174q0 -4 -1 -30t-1.5 -49t1 -45t5.5 -25l-1 -8q-1 -8 -1 -13q0 -13 3.5 -31.5t6.5 -31t9.5 -35.5t8.5 -29q5 -24 34.5 -85.5t45.5 -61.5q6 2 6 4v-8h4q6 6 24.5 19 t30 25.5t13.5 26.5q3 15 15 40.5t16 25.5l4 -2q-15 -30 -15 -51q12 9 43.5 74.5t34.5 86.5l-28 -47l24 66q2 0 3.5 -2t2.5 -2q4 0 13.5 30.5t11.5 44.5l-14 -26h-5zM874 903q3 -6 11 -6q0 47 -8.5 124t-24.5 77l-4 -2q26 -84 26 -193zM895 805l2 -4q8 -6 12 60v11l-4 5 q-2 0 -4.5 -11t-4 -28t-1.5 -33zM547 373q7 17 35 63q-27 -63 -35 -63zM651 616q-5 0 -7.5 -7.5t-2.5 -14.5v-8q10 4 10 30zM362 1083h-4l-6 -12q-7 -12 -6 -14q16 0 16 26zM596 506q1 -3 -1 -9.5t-5 -15t-4 -12.5q-2 4 -2 6q0 6 5.5 17.5t6.5 13.5zM860 1157q8 -16 8 -27 q-1 0 -2.5 4l-3 8t-2.5 5v10zM662 698q0 -12 -7 -14q0 9 7 14zM348 1047q-10 0 -10 -9q10 0 10 9zM367 1069q-5 0 -5 -4t5 -4q2 2 2 4zM874 1114q3 0 3 -4t-3 -4q-2 0 -2 4t2 4zM903 913h4v-12zM883 702v-4h4v4h-4zM815 1231l2 -2l-2 -2q-4 0 -4 2q2 2 4 2zM879 1104 q0 -1 1 -2t1 -2q0 -9 -2 -1v6v-1zM301 899l-2 2l-2 -2l2 -2q2 0 2 2zM526 309l-6 -2l2 -2zM66 424v2l-3 -2v-4q3 0 3 4zM870 1124q2 -2 2 -4l-2 -2v6zM834 913l-3 2l-2 -2h5zM895 782v-4h2zM369 1083v-2l4 2h-4zM623 547l-2 -4q2 2 2 4zM285 1634q4 -1 2 -4q-3 1 -2 4z M565 1518q-2 -2 -1.5 -2.5t3.5 0.5l1 1q-2 2 -3 1zM424 1561q-6 -3 2 -7q7 7 -2 7zM324 1585l-7 8q11 -4 11 -6zM629 1530l-76 -23q-6 0 -18 -6q-11 2 -26 9.5t-20 9.5l-4 -2l4 -9q-3 2 -18 2q-5 3 -17.5 11t-17.5 10l-4 -6l-6 4q-3 1 -10 6t-12.5 8t-6.5 2q-3 3 -7.5 4.5 t-9.5 2t-7 1.5l-6 5q-5 2 -25 20t-29 18l-14 21l4 2l-12 22v3q-8 12 -2 14q3 1 6.5 -0.5t5 -3t2.5 -0.5l2 2q-8 12 8 22q7 0 9 2q1 -1 1.5 1t1 4.5t1.5 3.5l8 4q1 0 2.5 2.5t3 5.5t2.5 4h4q11 9 43 23q2 1 16.5 13.5t22.5 14.5q8 6 17.5 0.5t13 -9t9 -12.5t5.5 -10l133 -137 l19 -26q-2 -4 2.5 -17t1.5 -16z" />
</font>
</defs>
</svg>
